<svg width="31" height="31" viewBox="0 0 31 31" fill="none" xmlns="http://www.w3.org/2000/svg">
<circle cx="15.5" cy="15.5" r="15.5" fill="#C1C2C5"/>
<path d="M20.1655 17.6293C21.1495 16.2601 21.5822 14.5708 21.3774 12.8972C21.1726 11.2237 20.3454 9.68849 19.0603 8.59686C17.7751 7.50523 16.1261 6.93713 14.4412 7.00553C12.7563 7.07392 11.1588 7.7738 9.96635 8.966C8.77394 10.1582 8.07394 11.7554 8.00553 13.44C7.93712 15.1247 8.50532 16.7733 9.59715 18.0583C10.689 19.3432 12.2245 20.1702 13.8983 20.375C15.5722 20.5797 17.2618 20.1471 18.6312 19.1633L22.465 23L24 21.4653L20.1655 17.6293ZM14.7359 18.2549C13.8417 18.2549 12.9676 17.9898 12.2241 17.4931C11.4807 16.9964 10.9012 16.2904 10.559 15.4645C10.2168 14.6385 10.1273 13.7297 10.3017 12.8528C10.4762 11.976 10.9068 11.1706 11.539 10.5384C12.1713 9.90625 12.9769 9.47574 13.8539 9.30133C14.7309 9.12691 15.6399 9.21643 16.466 9.55855C17.2921 9.90068 17.9982 10.48 18.495 11.2234C18.9918 11.9667 19.2569 12.8407 19.2569 13.7347C19.2556 14.9331 18.7788 16.082 17.9313 16.9295C17.0837 17.7769 15.9345 18.2535 14.7359 18.2549Z" fill="white"/>
</svg>
