<svg width="2014" height="512" viewBox="0 0 2014 512" fill="none" xmlns="http://www.w3.org/2000/svg">
<path d="M10.9972 -1.35258e-09C4.93344 -1.35258e-09 -5.40143e-09 4.9188 -5.40143e-09 10.9645C-5.40143e-09 17.0113 4.93344 21.9301 10.9972 21.9301C17.0619 21.9301 21.9953 17.0113 21.9953 10.9645C21.9953 4.9188 17.0619 -1.35258e-09 10.9972 -1.35258e-09ZM10.9972 18.6608C6.74148 18.6608 3.27885 15.2086 3.27885 10.9645C3.27885 6.72148 6.74148 3.26933 10.9972 3.26933C15.2539 3.26933 18.7163 6.72148 18.7163 10.9645C18.7163 15.2086 15.2539 18.6608 10.9972 18.6608Z" transform="translate(1629.94 137.717) scale(17.0667)" fill="#00C0EE"/>
<path d="M1.85466 0C0.830393 0 0 0.827929 0 1.84916V28.1511C0 29.1723 0.830393 30 1.85466 30C2.87891 30 3.7093 29.1723 3.7093 28.1511V1.84916C3.7093 0.827929 2.87891 0 1.85466 0Z" transform="scale(17.0667)" fill="#111820"/>
<path d="M1.85445 -2.11925e-10C0.830376 -2.11925e-10 -9.0023e-10 0.827929 -9.0023e-10 1.84916V20.0812C-9.0023e-10 21.1024 0.830376 21.9301 1.85445 21.9301C2.87871 21.9301 3.70909 21.1024 3.70909 20.0812V1.84916C3.70909 0.827929 2.87871 -2.11925e-10 1.85445 -2.11925e-10Z" transform="translate(1482.71 137.717) scale(17.0667)" fill="#111820"/>
<path d="M10.5612 0.00848776C4.90547 0.228119 0.226347 4.89419 0.00834774 10.5334C-0.232985 16.7759 4.78977 21.9302 10.9981 21.9302C14.4079 21.9302 17.5851 20.3471 19.6627 17.6844C19.6627 17.6844 20.0661 17.1471 20.0981 17.0829C20.13 17.0187 20.13 17.0187 20.1443 16.9862C20.4478 16.2937 20.2416 15.463 19.6002 15.0061C18.9043 14.5105 17.9578 14.6409 17.4104 15.2747C15.9717 17.4 13.5672 18.6608 10.9981 18.6608C7.30402 18.6608 4.20751 16.0599 3.45406 12.5993H20.3567C21.2622 12.5993 21.9963 11.8672 21.9963 10.9646C21.9963 4.7743 16.8242 -0.234572 10.5612 0.00848776ZM3.45406 9.32993C4.20751 5.86915 7.30402 3.26918 10.9981 3.26918C14.6923 3.26918 17.7888 5.86915 18.5423 9.32993H3.45406Z" transform="translate(139.05 137.717) scale(17.0667)" fill="#111820"/>
<path d="M20.3568 0C19.4514 0 18.7173 0.731886 18.7173 1.63468V11.236C16.7302 9.28073 14.0044 8.06989 10.9982 8.06989C4.93322 8.06989 -1.85049e-09 12.9887 -1.85049e-09 19.0344C-1.85049e-09 25.0812 4.93322 30 10.9982 30C14.0044 30 16.7302 28.7892 18.7173 26.8337V28.3655C18.7173 29.2683 19.4514 30 20.3568 30C21.2623 30 21.9964 29.2683 21.9964 28.3655V1.63468C21.9964 0.731886 21.2623 0 20.3568 0ZM10.9982 26.7307C6.74148 26.7307 3.27885 23.2785 3.27885 19.0344C3.27885 14.7914 6.74148 11.3392 10.9982 11.3392C15.2547 11.3392 18.7173 14.7914 18.7173 19.0344C18.7173 23.2785 15.2547 26.7307 10.9982 26.7307Z" transform="translate(997.875) scale(17.0667)" fill="#111820"/>
<path d="M10.0251 0.00457403C7.33244 0.00623019 5.10999 0.87436 3.27885 2.69738V1.63468C3.27885 0.731902 2.54479 -3.92687e-10 1.63932 -3.92687e-10C0.733866 -3.92687e-10 -5.05133e-09 0.731902 -5.05133e-09 1.63468V20.3002C-5.05133e-09 21.203 0.733866 21.9347 1.63932 21.9347C2.54479 21.9347 3.27885 21.203 3.27885 20.3002V9.99996C3.27885 5.64664 6.83892 3.21995 10.0251 3.21995C14.0627 3.21995 16.8344 6.46928 16.8344 10.2008V20.3013C16.8344 21.2034 17.5679 21.9347 18.4727 21.9347H18.4752C19.3798 21.9347 20.1135 21.2034 20.1135 20.3013V10.2008C20.1135 6.84328 17.4525 -4.75548e-10 10.0251 0.00457403Z" transform="translate(585.642 137.65) scale(17.0667)" fill="#111820"/>
<path d="M2.12104 4.22949C3.29245 4.22949 4.24208 3.28269 4.24208 2.11475C4.24208 0.946804 3.29245 0 2.12104 0C0.949621 0 0 0.946804 0 2.11475C0 3.28269 0.949621 4.22949 2.12104 4.22949Z" transform="translate(1478.16) scale(17.0667)" fill="#111820"/>
</svg>
