<?xml version="1.0" encoding="utf-8"?>
<!-- Generator: Adobe Illustrator 23.0.2, SVG Export Plug-In . SVG Version: 6.00 Build 0)  -->
<svg version="1.1" id="Layer_1" xmlns="http://www.w3.org/2000/svg" xmlns:xlink="http://www.w3.org/1999/xlink" x="0px" y="0px"
	 viewBox="0 0 141.6 36" style="enable-background:new 0 0 141.6 36;" xml:space="preserve">
<style type="text/css">
	.st0{fill:#00C0EE;}
	.st1{fill:#111820;}
</style>
<path class="st0" d="M127.8,9.7c-7.3,0-13.2,5.9-13.2,13.2c0,7.3,5.9,13.2,13.2,13.2c7.3,0,13.2-5.9,13.2-13.2
	C141,15.6,135,9.7,127.8,9.7z M127.8,32.1c-5.1,0-9.3-4.1-9.3-9.2c0-5.1,4.2-9.2,9.3-9.2c5.1,0,9.3,4.1,9.3,9.2
	C137,27.9,132.9,32.1,127.8,32.1z"/>
<path class="st1" d="M2.2,0C1,0,0,1,0,2.2v31.6C0,35,1,36,2.2,36c1.2,0,2.2-1,2.2-2.2V2.2C4.4,1,3.4,0,2.2,0z"/>
<path class="st1" d="M106.4,9.7c-1.2,0-2.2,1-2.2,2.2v21.9c0,1.2,1,2.2,2.2,2.2c1.2,0,2.2-1,2.2-2.2V11.9
	C108.7,10.7,107.7,9.7,106.4,9.7z"/>
<path class="st1" d="M22.4,9.7C15.6,10,10,15.6,9.8,22.3C9.5,29.8,15.5,36,22.9,36c4.1,0,7.9-1.9,10.4-5.1c0,0,0.5-0.6,0.5-0.7
	c0-0.1,0-0.1,0.1-0.1c0.4-0.8,0.1-1.8-0.7-2.4c-0.8-0.6-2-0.4-2.6,0.3c-1.7,2.6-4.6,4.1-7.7,4.1c-4.4,0-8.1-3.1-9.1-7.3h20.3
	c1.1,0,2-0.9,2-2C36.1,15.4,29.9,9.4,22.4,9.7z M13.9,20.9c0.9-4.2,4.6-7.3,9.1-7.3c4.4,0,8.1,3.1,9.1,7.3H13.9z"/>
<path class="st1" d="M94.6,0c-1.1,0-2,0.9-2,2v11.5c-2.4-2.3-5.7-3.8-9.3-3.8c-7.3,0-13.2,5.9-13.2,13.2c0,7.3,5.9,13.2,13.2,13.2
	c3.6,0,6.9-1.5,9.3-3.8V34c0,1.1,0.9,2,2,2c1.1,0,2-0.9,2-2V2C96.5,0.9,95.6,0,94.6,0z M83.3,32.1c-5.1,0-9.3-4.1-9.3-9.2
	c0-5.1,4.2-9.2,9.3-9.2c5.1,0,9.3,4.1,9.3,9.2C92.6,27.9,88.4,32.1,83.3,32.1z"/>
<path class="st1" d="M53.2,9.7c-3.2,0-5.9,1-8.1,3.2v-1.3c0-1.1-0.9-2-2-2c-1.1,0-2,0.9-2,2V34c0,1.1,0.9,2,2,2c1.1,0,2-0.9,2-2
	V21.7c0-5.2,4.3-8.1,8.1-8.1c4.8,0,8.2,3.9,8.2,8.4V34c0,1.1,0.9,2,2,2h0c1.1,0,2-0.9,2-2V21.9C65.3,17.9,62.1,9.7,53.2,9.7z"/>
<path class="st1" d="M106.4,5.1c1.4,0,2.5-1.1,2.5-2.5c0-1.4-1.1-2.5-2.5-2.5c-1.4,0-2.5,1.1-2.5,2.5C103.9,3.9,105,5.1,106.4,5.1z"
	/>
</svg>
