<svg width="187" height="36" viewBox="0 0 187 36" fill="none" xmlns="http://www.w3.org/2000/svg">
<path fill-rule="evenodd" clip-rule="evenodd" d="M17.9716 0C27.8918 0 35.9431 8.05326 35.9431 18.024C35.9431 27.6112 28.4669 35.4248 19.0259 36V25.4061C20.6553 25.3103 22.4285 24.9268 23.8183 24.3036C28.1315 22.482 30.336 18.7909 30.959 14.285L31.1028 13.1824L29.9526 13.0866C28.0356 12.8948 25.6873 13.2783 23.9621 13.9973C21.0866 15.1957 19.1697 17.257 18.0195 19.8935C16.8693 17.3049 14.9523 15.1957 12.029 13.9973C10.2558 13.2783 7.90748 12.8948 6.03844 13.0866L4.88826 13.1824L5.03203 14.285C5.65505 18.7909 7.85956 22.482 12.1727 24.3036C13.5625 24.8788 15.3357 25.3103 16.9651 25.4061V35.9521C7.52409 35.4727 0 27.6112 0 18.024C0 8.05326 8.05125 0 17.9716 0ZM7.42824 15.2437C8.09918 18.1678 9.63275 20.6125 12.3644 22.0027C13.7063 22.6738 15.2878 23.1052 16.7734 23.2011C16.1504 20.229 14.6648 17.6884 11.8373 16.2983C10.5433 15.6751 8.91389 15.2916 7.42824 15.2437ZM28.6107 15.2437C27.0771 15.2916 25.4956 15.6751 24.1538 16.3462C21.3262 17.7364 19.8406 20.277 19.2176 23.249C20.7512 23.1531 22.2847 22.7217 23.6266 22.0506C26.4541 20.5646 27.9877 18.1678 28.6107 15.2437Z" fill="#20C86D"/>
<path d="M58.3718 26.4129V17.5926C58.3718 12.3197 55.2088 9.34762 51.279 9.34762C49.1704 9.34762 47.493 10.2105 45.7677 11.8403L45.4802 9.53936H41.79V26.317H45.9115V17.8323C45.9115 15.2917 47.6368 13.1346 50.1768 13.1346C52.8126 13.1346 54.2024 15.052 54.2024 17.6406V26.4129H58.3718ZM78.5479 19.5101C79.1709 12.6073 75.6724 9.15588 70.0653 9.15588C64.6499 9.15588 61.1514 12.847 61.1514 17.9282C61.1514 23.297 64.6019 26.8922 70.3528 26.8922C72.8928 26.8922 75.7683 26.0294 77.5415 24.1599L74.9056 21.5234C73.9471 22.53 71.9343 23.1053 70.4007 23.1053C67.4774 23.1053 65.6563 21.6193 65.4166 19.558H78.5479V19.5101ZM65.5125 16.0587C66.1355 13.9015 67.9566 12.799 70.2091 12.799C72.6053 12.799 74.2826 13.9015 74.5702 16.0587H65.5125ZM87.7972 15.3396L84.4905 9.68317H79.5543V9.82698L85.0655 17.9282L79.2188 26.317V26.4129H84.2029L87.8451 20.8043L91.4874 26.4129H96.4715V26.317L90.5768 17.9282L96.0881 9.82698V9.68317H91.104L87.7972 15.3396ZM101.168 5.36892V9.68317H98.053V13.2304H101.168V20.4688C101.168 24.6392 103.564 26.7005 107.206 26.6046C108.453 26.5567 109.459 26.3649 110.657 25.8856L109.507 22.3383C108.884 22.6259 108.165 22.8656 107.494 22.8656C106.2 22.8656 105.337 22.0986 105.337 20.4688V13.2304H109.986V9.68317H105.385V4.9375L101.168 5.36892Z" fill="#5C6E8B"/>
<path d="M126.52 11.3611C124.603 9.68332 122.59 9.15603 120.002 9.15603C116.935 9.15603 112.909 10.4982 112.909 14.3811C112.909 18.168 116.695 19.3664 119.858 19.6061C122.254 19.7499 123.213 20.2293 123.213 21.3797C123.213 22.6261 121.775 23.441 120.194 23.393C118.325 23.3451 115.593 22.3864 114.395 21.0442L112.334 24.0162C114.778 26.5568 117.414 26.9883 120.098 26.9883C124.89 26.9883 127.286 24.4476 127.286 21.4756C127.286 17.0175 123.261 16.2985 120.098 16.1068C117.941 15.963 116.983 15.3398 116.983 14.2852C116.983 13.2306 118.085 12.6074 120.05 12.6074C121.631 12.6074 123.021 12.9909 124.219 14.0934L126.52 11.3611ZM146.6 19.5102C147.223 12.6074 143.724 9.15603 138.117 9.15603C132.702 9.15603 129.203 12.8471 129.203 17.9283C129.203 23.2972 132.654 26.8924 138.405 26.8924C140.945 26.8924 143.82 26.0295 145.593 24.16L142.957 21.5235C141.999 22.5302 139.986 23.1054 138.453 23.1054C135.529 23.1054 133.708 21.6194 133.469 19.5582H146.6V19.5102ZM133.564 16.0588C134.187 13.9017 136.009 12.7992 138.261 12.7992C140.657 12.7992 142.334 13.9017 142.622 16.0588H133.564ZM166.392 19.5102C167.015 12.6074 163.517 9.15603 157.91 9.15603C152.494 9.15603 148.996 12.8471 148.996 17.9283C148.996 23.2972 152.446 26.8924 158.197 26.8924C160.737 26.8924 163.613 26.0295 165.386 24.16L162.75 21.5235C161.792 22.5302 159.779 23.1054 158.245 23.1054C155.322 23.1054 153.501 21.6194 153.261 19.5582H166.392V19.5102ZM153.405 16.0588C154.028 13.9017 155.849 12.7992 158.102 12.7992C160.498 12.7992 162.175 13.9017 162.463 16.0588H153.405ZM177.702 13.1347C180.338 13.1347 182.543 15.1001 182.543 18.0242C182.543 21.0442 180.29 22.9616 177.702 22.9616C175.067 22.9616 172.958 20.9483 172.958 18.0242C172.958 15.0042 175.067 13.1347 177.702 13.1347ZM182.83 2.63672V11.9363C181.824 10.2106 179.092 9.2519 177.319 9.2519C172.431 9.2519 168.789 12.2239 168.789 18.0242C168.789 23.5369 172.479 26.7965 177.415 26.7965C179.476 26.7965 181.536 26.1254 182.83 24.1121L183.118 26.413H187V2.63672H182.83Z" fill="#5C6E8B"/>
</svg>
