<svg width="187" height="36" viewBox="0 0 187 36" fill="none" xmlns="http://www.w3.org/2000/svg">
<path fill-rule="evenodd" clip-rule="evenodd" d="M28.6365 15.2291C27.1255 15.2909 25.5345 15.6654 24.2036 16.3285C21.3757 17.7362 19.8906 20.2529 19.2793 23.226C20.7898 23.1081 22.3664 22.6876 23.6891 22.0048C26.4529 20.5794 27.9878 18.1643 28.6365 15.2291ZM7.43262 15.2291C8.08128 18.1643 9.61621 20.5794 12.3795 22.0048C13.7027 22.6876 15.2793 23.1081 16.7898 23.226C16.1785 20.2529 14.6939 17.7362 11.8654 16.3285C10.5346 15.6654 8.9436 15.2909 7.43262 15.2291ZM18 0C27.9411 0 36 8.06553 36 18.0149C36 27.5965 28.5261 35.429 19.0947 35.9957L19.0947 25.4293C20.7211 25.3435 22.4845 24.933 23.892 24.3337C28.1845 22.506 30.4026 18.8266 31.0153 14.3101L31.1676 13.1843L30.0385 13.0769C28.1351 12.8952 25.7906 13.2854 24.0214 14.0013C21.09 15.1875 19.1627 17.2813 18.0345 19.8939C16.9063 17.2813 14.979 15.1875 12.0481 14.0013C10.2784 13.2854 7.93431 12.8952 6.0305 13.0769L4.90182 13.1843L5.05368 14.3101C5.66641 18.8266 7.88497 22.506 12.1774 24.3337C13.5844 24.933 15.3484 25.3435 16.9748 25.4293L16.9748 36C7.51082 35.4673 0 27.6199 0 18.0149C0 8.06553 8.05887 0 18 0Z" fill="#20C86D"/>
<path fill-rule="evenodd" clip-rule="evenodd" d="M101.27 6.16616V10.3838H98.1422V13.8709H101.27V20.9453C101.27 25.0299 103.651 27.0559 107.289 26.9233C108.547 26.8896 109.533 26.6901 110.724 26.2255L109.568 22.7717C108.955 23.071 108.208 23.27 107.561 23.27C106.269 23.27 105.385 22.5066 105.385 20.9453V13.8709L110.044 13.8709V10.3838L105.419 10.3838V5.73438L101.27 6.16616ZM88.8583 15.8969L85.5598 10.3506L80.595 10.3506V10.4836L86.104 18.4206L80.255 26.6246V26.7239H85.2198L88.8583 21.2441L92.4968 26.7239L97.4617 26.7239V26.6246L91.6126 18.4206L97.1217 10.4836V10.3506L92.1569 10.3506L88.8583 15.8969ZM65.5988 16.6274C66.2106 14.5022 68.0466 13.4391 70.2917 13.4391C72.6715 13.4391 74.3718 14.5022 74.6442 16.6274H65.5988ZM78.6226 19.9819C79.2685 13.2396 75.7662 9.85274 70.1554 9.85274C64.7145 9.85274 61.2457 13.4391 61.2457 18.4206C61.2457 23.6681 64.6804 27.1556 70.4614 27.1556C73.0119 27.1556 75.9023 26.2925 77.6703 24.4989L75.0176 21.9414C74.0658 22.9042 72.0596 23.4686 70.5295 23.4686C67.6049 23.4686 65.8025 22.0079 65.5306 19.9819H78.6226ZM58.4239 26.7238V18.1223C58.4239 12.9745 55.2611 10.085 51.3166 10.085C49.2083 10.085 47.5079 10.9153 45.8076 12.5427L45.5357 10.3173H41.8291L41.8291 26.7238H45.9438L45.9438 18.3545C45.9438 15.8636 47.6781 13.7711 50.2286 13.7711C52.8808 13.7711 54.2752 15.6645 54.2752 18.1555L54.2752 26.7238H58.4239Z" fill="#5C6E8B"/>
<path fill-rule="evenodd" clip-rule="evenodd" d="M182.865 3.35449V12.2027C181.882 10.55 179.137 9.64236 177.375 9.64236C172.494 9.64236 168.867 12.4947 168.867 18.0043C168.867 23.2556 172.561 26.3666 177.476 26.3666C179.51 26.3666 181.578 25.7185 182.865 23.8063L183.136 26.0101H187V3.35449L182.865 3.35449ZM177.747 13.3375C180.357 13.3375 182.594 15.2173 182.594 18.0042C182.594 20.889 180.357 22.7039 177.747 22.7039C175.103 22.7039 173.002 20.7917 173.002 18.0042C173.002 15.1195 175.103 13.3375 177.747 13.3375ZM153.479 16.1569C154.089 14.0829 155.919 13.0455 158.157 13.0455C160.529 13.0455 162.224 14.0829 162.495 16.1569L153.479 16.1569ZM166.461 19.4306C167.104 12.8507 163.614 9.54499 158.021 9.54499C152.598 9.54499 149.14 13.0454 149.14 17.9069C149.14 23.0279 152.564 26.4315 158.326 26.4315C160.868 26.4315 163.749 25.5887 165.511 23.8383L162.868 21.3424C161.919 22.2825 159.919 22.8333 158.394 22.8333C155.479 22.8333 153.682 21.4078 153.411 19.4306L166.461 19.4306ZM133.719 16.1569C134.329 14.0829 136.159 13.0455 138.396 13.0455C140.769 13.0455 142.463 14.0829 142.734 16.1569H133.719ZM146.701 19.4306C147.345 12.8507 143.853 9.54499 138.261 9.54499C132.838 9.54499 129.381 13.0454 129.381 17.9069C129.381 23.0279 132.804 26.4315 138.566 26.4315C141.108 26.4315 143.989 25.5887 145.752 23.8383L143.107 21.3424C142.159 22.2825 140.159 22.8333 138.634 22.8333C135.718 22.8333 133.923 21.4078 133.651 19.4306L146.701 19.4306ZM126.703 11.6844C124.771 10.0637 122.805 9.57745 120.195 9.57745C117.145 9.57745 113.145 10.8741 113.145 14.5687C113.145 18.1985 116.908 19.3013 120.06 19.528C122.433 19.6573 123.381 20.1107 123.381 21.2131C123.381 22.3799 121.924 23.1582 120.365 23.1253C118.501 23.0929 115.789 22.1532 114.603 20.889L112.569 23.7089C115.009 26.1394 117.654 26.5608 120.297 26.5608C125.076 26.5608 127.482 24.1303 127.482 21.3104C127.482 17.0641 123.483 16.3841 120.331 16.1894C118.196 16.06 117.213 15.4759 117.213 14.4394C117.213 13.4348 118.297 12.8507 120.263 12.8507C121.856 12.8507 123.212 13.2077 124.398 14.2767L126.703 11.6844Z" fill="#5C6E8B"/>
</svg>
