<svg width="170" height="33" viewBox="0 0 170 33" fill="none" xmlns="http://www.w3.org/2000/svg">
<path fill-rule="evenodd" clip-rule="evenodd" d="M26.0334 13.8447C24.6598 13.901 23.2134 14.2414 22.0036 14.8442C19.4327 16.1239 18.0826 18.4118 17.5269 21.1147C18.9001 21.0075 20.3334 20.6252 21.5358 20.0045C24.0483 18.7087 25.4437 16.5132 26.0334 13.8447ZM6.7566 13.8447C7.34629 16.5132 8.74168 18.7087 11.2537 20.0045C12.4566 20.6252 13.8899 21.0075 15.2631 21.1147C14.7074 18.4118 13.3577 16.1239 10.7864 14.8442C9.57656 14.2414 8.13021 13.901 6.7566 13.8447ZM16.3636 0C25.401 0 32.7272 7.33229 32.7272 16.3771C32.7272 25.0876 25.9328 32.2081 17.3588 32.7233V23.1175C18.8373 23.0395 20.4405 22.6664 21.72 22.1215C25.6222 20.46 27.6387 17.1151 28.1957 13.0091L28.3342 11.9857L27.3077 11.8881C25.5774 11.7229 23.446 12.0777 21.8376 12.7284C19.1727 13.8068 17.4206 15.7102 16.395 18.0853C15.3693 15.7102 13.6173 13.8068 10.9528 12.7284C9.34398 12.0777 7.213 11.7229 5.48227 11.8881L4.45619 11.9857L4.59425 13.0091C5.15127 17.1151 7.16815 20.46 11.0704 22.1215C12.3495 22.6664 13.953 23.0395 15.4316 23.1175V32.7272C6.82801 32.243 0 25.109 0 16.3771C0 7.33229 7.32624 0 16.3636 0Z" fill="#31333D"/>
<path fill-rule="evenodd" clip-rule="evenodd" d="M92.0639 5.43851V9.40223L89.22 9.40223V12.6794L92.0639 12.6794V19.3278C92.0639 23.1666 94.2278 25.0705 97.5355 24.946C98.6794 24.9143 99.5756 24.7268 100.658 24.2902L99.607 21.0443C99.0499 21.3255 98.3703 21.5126 97.7827 21.5126C96.6083 21.5126 95.8041 20.7952 95.8041 19.3278V12.6794L100.039 12.6794V9.40223L95.835 9.40223V5.03271L92.0639 5.43851ZM80.7802 14.5833L77.7815 9.37097L73.268 9.37097V9.49597L78.2763 16.9551L72.959 24.6652V24.7585L77.4724 24.7585L80.7802 19.6086L84.0879 24.7585L88.6014 24.7585V24.6652L83.2841 16.9551L88.2923 9.49597V9.37097L83.7788 9.37097L80.7802 14.5833ZM59.6351 15.2699C60.1914 13.2727 61.8605 12.2736 63.9014 12.2736C66.0649 12.2736 67.6106 13.2727 67.8582 15.2699L59.6351 15.2699ZM71.4749 18.4225C72.0621 12.0861 68.8782 8.90314 63.7775 8.90314C58.8312 8.90314 55.6778 12.2736 55.6778 16.9551C55.6778 21.8867 58.8003 25.1643 64.0557 25.1643C66.3743 25.1643 69.002 24.3531 70.6092 22.6675L68.1977 20.264C67.3324 21.1689 65.5086 21.6992 64.1175 21.6992C61.4589 21.6992 59.8203 20.3265 59.5731 18.4225L71.4749 18.4225ZM53.1125 24.7584V16.6747C53.1125 11.8369 50.2372 9.12134 46.6514 9.12134C44.7347 9.12134 43.1889 9.90167 41.6432 11.4311L41.396 9.33964L38.0264 9.33964L38.0264 24.7584L41.767 24.7584V16.893C41.767 14.552 43.3437 12.5855 45.6623 12.5855C48.0734 12.5855 49.341 14.3649 49.341 16.7059V24.7584L53.1125 24.7584Z" fill="#31333D"/>
<path fill-rule="evenodd" clip-rule="evenodd" d="M166.241 2.7959V11.1114C165.347 9.55822 162.852 8.7052 161.25 8.7052C156.813 8.7052 153.515 11.3858 153.515 16.5637C153.515 21.4988 156.874 24.4225 161.342 24.4225C163.191 24.4225 165.071 23.8135 166.241 22.0164L166.487 24.0875L170 24.0875V2.7959L166.241 2.7959ZM161.588 12.1778C163.961 12.1778 165.995 13.9444 165.995 16.5636C165.995 19.2747 163.961 20.9804 161.588 20.9804C159.185 20.9804 157.274 19.1833 157.274 16.5636C157.274 13.8525 159.185 12.1778 161.588 12.1778ZM139.527 14.8274C140.081 12.8783 141.745 11.9033 143.779 11.9033C145.936 11.9033 147.476 12.8783 147.723 14.8274L139.527 14.8274ZM151.328 17.9042C151.913 11.7204 148.74 8.61371 143.656 8.61371C138.725 8.61371 135.582 11.9034 135.582 16.4722C135.582 21.2849 138.695 24.4835 143.933 24.4835C146.244 24.4835 148.863 23.6915 150.465 22.0464L148.062 19.7008C147.199 20.5844 145.381 21.1019 143.994 21.1019C141.344 21.1019 139.711 19.7623 139.465 17.9042L151.328 17.9042ZM121.563 14.8275C122.117 12.8784 123.781 11.9034 125.815 11.9034C127.972 11.9034 129.512 12.8784 129.759 14.8275L121.563 14.8275ZM133.364 17.9042C133.95 11.7204 130.776 8.61371 125.692 8.61371C120.762 8.61371 117.619 11.9034 117.619 16.4722C117.619 21.2849 120.731 24.4835 125.969 24.4835C128.28 24.4835 130.899 23.6915 132.502 22.0464L130.098 19.7008C129.235 20.5844 127.418 21.1019 126.031 21.1019C123.381 21.1019 121.748 19.7623 121.501 17.9042L133.364 17.9042ZM115.185 10.6241C113.428 9.10099 111.641 8.64398 109.269 8.64398C106.495 8.64398 102.859 9.86252 102.859 13.3347C102.859 16.746 106.28 17.7824 109.145 17.9954C111.302 18.117 112.165 18.5431 112.165 19.5791C112.165 20.6756 110.84 21.4071 109.422 21.3762C107.728 21.3457 105.263 20.4626 104.185 19.2745L102.336 21.9247C104.554 24.2088 106.958 24.6049 109.361 24.6049C113.706 24.6049 115.893 22.3207 115.893 19.6706C115.893 15.6799 112.258 15.0408 109.392 14.8578C107.451 14.7363 106.557 14.1873 106.557 13.2132C106.557 12.2691 107.543 11.7202 109.33 11.7202C110.779 11.7202 112.011 12.0556 113.09 13.0603L115.185 10.6241Z" fill="#31333D"/>
</svg>
