<svg width="512" height="499" viewBox="0 0 512 499" fill="none" xmlns="http://www.w3.org/2000/svg">
<path fill-rule="evenodd" clip-rule="evenodd" d="M28.8688 15.0928C27.3455 15.1541 25.7416 15.5252 24.3999 16.1823C21.549 17.5774 20.0518 20.0716 19.4355 23.0181C20.9583 22.9012 22.5478 22.4845 23.8812 21.8079C26.6674 20.3952 28.2149 18.0018 28.8688 15.0928ZM7.49219 15.0928C8.14612 18.0018 9.69353 20.3952 12.4793 21.8079C13.8132 22.4845 15.4026 22.9012 16.9254 23.0181C16.3092 20.0716 14.8125 17.5774 11.961 16.1823C10.6194 15.5252 9.01545 15.1541 7.49219 15.0928ZM18.1464 0C28.1684 0 36.2928 7.9933 36.2928 17.8535C36.2928 27.3493 28.7581 35.1117 19.25 35.6734V25.2016C20.8896 25.1165 22.6674 24.7098 24.0863 24.1158C28.4137 22.3045 30.6498 18.658 31.2675 14.1819L31.4211 13.0662L30.2828 12.9598C28.364 12.7797 26.0003 13.1665 24.2167 13.8759C21.2615 15.0515 19.3185 17.1265 18.1812 19.7157C17.0438 17.1265 15.1008 15.0515 12.146 13.8759C10.362 13.1665 7.99884 12.7797 6.07954 12.9598L4.94168 13.0662L5.09478 14.1819C5.71249 18.658 7.94909 22.3045 12.2764 24.1158C13.6949 24.7098 15.4732 25.1165 17.1128 25.2016V35.6776C7.5719 35.1497 0 27.3726 0 17.8535C0 7.9933 8.12441 0 18.1464 0Z" transform="scale(13.8378)" fill="#20C86D"/>
</svg>
