<svg width="512" height="99" viewBox="0 0 512 99" fill="none" xmlns="http://www.w3.org/2000/svg">
<path fill-rule="evenodd" clip-rule="evenodd" d="M28.8696 15.0928C27.3464 15.1541 25.7425 15.5252 24.4008 16.1823C21.5498 17.5774 20.0527 20.0716 19.4364 23.0181C20.9592 22.9012 22.5486 22.4845 23.8821 21.8079C26.6683 20.3952 28.2157 18.0018 28.8696 15.0928ZM7.49274 15.0928C8.14667 18.0018 9.69408 20.3952 12.4798 21.8079C13.8138 22.4845 15.4032 22.9012 16.926 23.0181C16.3097 20.0716 14.813 17.5774 11.9616 16.1823C10.6199 15.5252 9.016 15.1541 7.49274 15.0928ZM18.1464 0C28.1684 0 36.2928 7.9933 36.2928 17.8535C36.2928 27.3493 28.7581 35.1117 19.25 35.6734V25.2016C20.8896 25.1165 22.6674 24.7098 24.0863 24.1158C28.4137 22.3045 30.6498 18.658 31.2675 14.1819L31.4211 13.0662L30.2828 12.9598C28.364 12.7797 26.0003 13.1665 24.2167 13.8759C21.2615 15.0515 19.3185 17.1265 18.1812 19.7157C17.0438 17.1265 15.1008 15.0515 12.146 13.8759C10.362 13.1665 7.99884 12.7797 6.07954 12.9598L4.94168 13.0662L5.09478 14.1819C5.71249 18.658 7.94909 22.3045 12.2764 24.1158C13.6949 24.7098 15.4732 25.1165 17.1128 25.2016V35.6776C7.5719 35.1497 0 27.3726 0 17.8535C0 7.9933 8.12441 0 18.1464 0Z" transform="translate(0.00531915) scale(2.7234)" fill="white"/>
<path fill-rule="evenodd" clip-rule="evenodd" d="M59.4413 0.446371V4.80647H56.313V8.41133H59.4413V15.7246C59.4413 19.9473 61.8216 22.0416 65.4601 21.9046C66.7183 21.8697 67.7042 21.6635 68.8948 21.1832L67.7387 17.6128C67.1259 17.9221 66.3783 18.1279 65.732 18.1279C64.4402 18.1279 63.5555 17.3387 63.5555 15.7246V8.41133H68.2144V4.80647H63.5895V0L59.4413 0.446371ZM47.0291 10.5056L43.7306 4.77197H38.7658V4.90947L44.2748 13.1146L38.4258 21.5956V21.6982H43.3906L47.0291 16.0334L50.6676 21.6982H55.6324V21.5956L49.7834 13.1146L55.2925 4.90947V4.77197H50.3276L47.0291 10.5056ZM23.7695 11.2608C24.3814 9.06383 26.2174 7.96484 28.4625 7.96484C30.8423 7.96484 32.5426 9.06383 32.815 11.2608H23.7695ZM36.7934 14.7286C37.4393 7.75858 33.937 4.25732 28.3262 4.25732C22.8853 4.25732 19.4165 7.96482 19.4165 13.1145C19.4165 18.5393 22.8512 22.1446 28.6322 22.1446C31.1827 22.1446 34.0731 21.2523 35.8411 19.3981L33.1884 16.7543C32.2366 17.7496 30.2304 18.333 28.7003 18.333C25.7757 18.333 23.9733 16.823 23.7014 14.7286H36.7934ZM16.5948 21.6983V12.8063C16.5948 7.48466 13.432 4.49756 9.48754 4.49756C7.37915 4.49756 5.67881 5.35593 3.97848 7.03829L3.7066 4.73769H0V21.6983H4.11466V13.0464C4.11466 10.4713 5.84904 8.30817 8.39954 8.30817C11.0517 8.30817 12.4461 10.2655 12.4461 12.8406V21.6983H16.5948Z" transform="translate(113.922 15.0771) scale(2.7234)" fill="white"/>
<path fill-rule="evenodd" clip-rule="evenodd" d="M70.2959 0V9.14702C69.3127 7.43857 66.5674 6.50024 64.8053 6.50024C59.9246 6.50024 56.2975 9.44893 56.2975 15.1446C56.2975 20.5732 59.992 23.7893 64.9071 23.7893C66.9402 23.7893 69.0083 23.1194 70.2959 21.1426L70.5668 23.4208H74.431V0H70.2959ZM65.1775 10.3203C67.7875 10.3203 70.0247 12.2636 70.0247 15.1447C70.0247 18.1269 67.7875 20.0031 65.1775 20.0031C62.534 20.0031 60.4325 18.0263 60.4325 15.1447C60.4325 12.1625 62.534 10.3203 65.1775 10.3203ZM40.9102 13.2346C41.52 11.0906 43.35 10.0181 45.5873 10.0181C47.9598 10.0181 49.6545 11.0906 49.9255 13.2346H40.9102ZM53.8914 16.6189C54.5347 9.81679 51.0444 6.39941 45.452 6.39941C40.0283 6.39941 36.5709 10.0181 36.5709 15.0437C36.5709 20.3377 39.9949 23.8562 45.7564 23.8562C48.2986 23.8562 51.1796 22.985 52.9418 21.1754L50.2983 18.5953C49.3496 19.5672 47.3494 20.1365 45.8243 20.1365C42.9094 20.1365 41.1128 18.6628 40.8418 16.6189H53.8914ZM21.1497 13.2346C21.7595 11.0906 23.5895 10.0181 25.8268 10.0181C28.1997 10.0181 29.894 11.0906 30.165 13.2346H21.1497ZM34.1311 16.6189C34.7753 9.81679 31.284 6.39941 25.6916 6.39941C20.2685 6.39941 16.8115 10.0181 16.8115 15.0437C16.8115 20.3377 20.2345 23.8562 25.9966 23.8562C28.5387 23.8562 31.4193 22.985 33.1824 21.1754L30.5379 18.5953C29.5892 19.5672 27.59 20.1365 26.0644 20.1365C23.149 20.1365 21.3534 18.6628 21.0819 16.6189H34.1311ZM14.1336 8.61119C12.2018 6.93581 10.236 6.43311 7.626 6.43311C4.57531 6.43311 0.575917 7.7735 0.575917 11.5929C0.575917 15.3453 4.33825 16.4854 7.49026 16.7197C9.86323 16.8534 10.8119 17.3221 10.8119 18.4617C10.8119 19.6679 9.35423 20.4725 7.79519 20.4385C5.93123 20.405 3.2194 19.4336 2.03363 18.1267L0 21.0419C2.43988 23.5545 5.08432 23.9901 7.7278 23.9901C12.5067 23.9901 14.9131 21.4775 14.9131 18.5624C14.9131 14.1726 10.9137 13.4696 7.76126 13.2683C5.6263 13.1346 4.64366 12.5308 4.64366 11.4592C4.64366 10.4208 5.72762 9.81693 7.69387 9.81693C9.28684 9.81693 10.6428 10.1859 11.829 11.291L14.1336 8.61119Z" transform="translate(306.577 8.37633) scale(2.7234)" fill="white"/>
</svg>
