<svg width="2724" height="512" viewBox="0 0 2724 512" version="1.1" xmlns="http://www.w3.org/2000/svg" xmlns:xlink="http://www.w3.org/1999/xlink">
<g id="Canvas" fill="none">
<g id="Group">
<g id="Vector">
<path d="M 13.5473 24.956C 13.5473 22.5104 13.5473 20.0967 13.5473 17.667C 13.8726 17.6191 14.1979 17.5871 14.5069 17.5391C 15.7755 17.3633 16.9465 16.9637 18.0362 16.3243C 19.1746 15.6529 20.0692 14.7418 20.7197 13.6069C 21.4353 12.3601 21.8419 11.0174 21.972 9.59472C 21.972 9.53078 21.9883 9.46684 22.0046 9.4029C 22.0208 9.33897 22.0208 9.27503 22.0371 9.1951C 21.7118 9.16313 21.4191 9.0992 21.1101 9.08321C 19.5162 9.01927 17.9874 9.27503 16.5399 9.94639C 15.0924 10.6337 13.9539 11.6408 13.2058 13.0314C 13.0757 13.2712 12.9455 13.495 12.7992 13.7508C 12.6528 13.6548 12.6203 13.495 12.5552 13.3671C 12.1649 12.5998 11.6769 11.8965 11.0427 11.3051C 10.0831 10.4259 8.99339 9.80252 7.7248 9.45086C 6.7327 9.17912 5.72433 9.03526 4.68344 9.06723C 4.32563 9.08321 3.95156 9.13116 3.61002 9.16313C 3.44738 9.80252 4.03288 12.0724 4.71597 13.3511C 5.41532 14.6779 6.45621 15.7169 7.78986 16.4522C 9.10724 17.1875 10.5385 17.5231 12.0673 17.651C 12.0673 20.0967 12.0673 22.5104 12.0673 24.956C 11.7908 25.02 11.5143 25.004 11.2541 24.972C 9.62769 24.7482 8.08261 24.2847 6.65138 23.5014C 5.70807 22.9899 4.82981 22.3505 4.03288 21.6152C 1.98362 19.729 0.747557 17.4272 0.210845 14.7578C -0.00058624 13.7188 -0.0493782 12.6638 0.0482057 11.6088C 0.210845 9.57874 0.812613 7.69254 1.91856 5.9502C 2.60165 4.86324 3.43111 3.90416 4.40695 3.07295C 5.80565 1.85812 7.39952 1.01092 9.20482 0.483429C 10.7824 0.019872 12.3926 -0.0760363 14.019 0.0518415C 15.3363 0.14775 16.5887 0.499414 17.8085 1.01092C 18.5729 1.33062 19.3048 1.71425 19.9716 2.19379C 21.6793 3.37666 23.0455 4.86324 24.0376 6.6855C 24.7207 7.96428 25.1598 9.307 25.3875 10.7137C 25.5501 11.7846 25.5501 12.8556 25.4363 13.9266C 25.2736 15.3972 24.8508 16.7878 24.1839 18.1146C 23.696 19.0896 23.0617 19.9688 22.3461 20.784C 21.4841 21.7591 20.492 22.5583 19.3698 23.2297C 18.0362 24.0289 16.6049 24.5884 15.0761 24.8282C 14.6533 24.8921 14.2141 24.9401 13.7913 24.988C 13.7099 24.988 13.6449 24.956 13.5473 24.956Z" transform="scale(20.48)" fill="#98CE23"/>
</g>
<g id="Vector_2">
<path d="M 9.92299 3.04884e-08C 10.9314 3.04884e-08 11.8584 3.04884e-08 12.7855 3.04884e-08C 12.818 0.0319695 12.818 0.0319695 12.8342 0.0479542C 12.8342 0.063939 12.8505 0.0639389 12.8505 0.0799236C 12.8505 5.43481 12.8668 10.7897 12.8668 16.1446C 12.8668 16.2405 12.8668 16.3364 12.8505 16.4163C 12.8505 16.4323 12.818 16.4643 12.8017 16.5122C 11.9235 16.5122 11.0452 16.5122 10.1344 16.5122C 10.0694 16.0007 9.98805 15.5052 9.92299 15.0416C 9.63024 15.3134 9.35375 15.6011 9.061 15.8728C 8.54056 16.3524 7.89 16.5762 7.20692 16.704C 6.05217 16.9118 4.91369 16.8159 3.80774 16.4163C 2.14882 15.8249 1.01033 14.7219 0.408567 13.1075C 0.148343 12.3882 0.0182315 11.6529 0.00196753 10.8856C -0.0142964 10.0064 0.0670254 9.12728 0.359777 8.29607C 0.977808 6.53775 2.19761 5.38685 4.01917 4.85936C 4.65347 4.68352 5.32029 4.55565 5.97085 4.58762C 7.49966 4.65155 8.86583 5.11511 9.92299 6.39389C 9.92299 4.20398 9.92299 2.12597 9.92299 3.04884e-08ZM 9.71156 10.438C 9.72783 9.89454 9.53266 9.33508 9.22364 8.83955C 8.45924 7.62471 6.91416 7.00131 5.4504 7.36896C 4.47456 7.60873 3.72643 8.13622 3.30356 9.04735C 2.91323 9.89454 2.8319 10.7737 3.09212 11.6848C 3.71015 13.9067 6.13349 14.5621 7.87373 13.7149C 9.1098 13.1075 9.6953 12.0685 9.71156 10.438Z" transform="translate(2445.12 48.53) scale(20.48)" fill="#98CE23"/>
</g>
<g id="Vector_3">
<path d="M 3.10402 7.24309C 3.12029 7.78657 3.34798 8.18619 3.64073 8.53785C 4.25876 9.25716 5.07196 9.57686 5.99901 9.6408C 6.77968 9.68875 7.56035 9.67277 8.32475 9.40103C 8.82894 9.20921 9.31686 8.98542 9.75599 8.63376C 10.3903 9.22519 11.0083 9.81663 11.6426 10.4081C 11.236 10.9036 10.7318 11.2073 10.2114 11.479C 9.26806 11.9586 8.24343 12.2143 7.18628 12.3102C 6.11285 12.4062 5.07196 12.2943 4.06359 11.9746C 2.0306 11.3352 0.745744 9.97648 0.24156 7.94642C -0.132511 6.49181 -0.0837201 5.05318 0.469255 3.64652C 1.20113 1.82427 2.58357 0.737305 4.48646 0.225793C 5.10449 0.0659462 5.73878 -0.013977 6.37308 0.00200768C 7.34891 0.0179924 8.32475 0.14587 9.21927 0.545488C 10.7806 1.24882 11.7239 2.44767 12.1305 4.06213C 12.342 4.89333 12.407 5.74052 12.3745 6.58771C 12.3582 6.77953 12.3257 6.98733 12.2769 7.2271C 12.1143 7.2271 11.9679 7.24309 11.8052 7.24309C 9.08916 7.24309 6.35681 7.24309 3.64073 7.24309C 3.47809 7.24309 3.31545 7.24309 3.10402 7.24309ZM 9.44697 4.81341C 9.3006 3.85433 8.82894 3.21494 7.98321 2.86327C 7.41397 2.6235 6.81221 2.59153 6.19418 2.60752C 5.57615 2.6235 4.99064 2.76736 4.45393 3.07107C 3.77084 3.45471 3.34798 4.04614 3.12028 4.81341C 5.2346 4.81341 7.31639 4.81341 9.44697 4.81341Z" transform="translate(886.38 140.48) scale(20.48)" fill="white"/>
</g>
<g id="Vector_4">
<path d="M 12.2647 7.24346C 9.19081 7.24346 6.14945 7.24346 3.07556 7.24346C 3.20567 8.09065 3.61226 8.68209 4.31161 9.11368C 4.91338 9.48132 5.56395 9.64117 6.27956 9.65716C 7.2554 9.68913 8.1987 9.54526 9.0607 9.08171C 9.30466 8.95383 9.51609 8.79398 9.77631 8.63413C 10.3781 9.20958 10.9798 9.80102 11.6304 10.4244C 11.4678 10.5843 11.3377 10.7441 11.175 10.872C 10.1992 11.6073 9.09323 12.0389 7.87343 12.2147C 7.51562 12.2627 7.15781 12.3426 6.78374 12.3426C 6.29582 12.3426 5.80791 12.3266 5.33625 12.2627C 4.68569 12.1827 4.06766 12.0069 3.46589 11.7512C 2.06719 11.1597 1.09135 10.1687 0.505849 8.79398C 0.0341937 7.69103 -0.0633941 6.52415 0.0341898 5.35726C 0.164302 4.03053 0.652227 2.83168 1.59554 1.84063C 2.37621 1.00942 3.3683 0.513893 4.47425 0.210183C 5.07602 0.0503362 5.67779 -0.0136025 6.27956 0.0023822C 7.49936 0.0183669 8.70289 0.194199 9.77631 0.849572C 10.7847 1.45699 11.484 2.30418 11.8906 3.39114C 12.1346 3.99856 12.2322 4.63795 12.3135 5.29333C 12.3948 5.91673 12.3948 6.55612 12.2647 7.24346ZM 3.12435 4.78181C 3.20567 4.7978 3.2382 4.82977 3.27073 4.82977C 5.25493 4.82977 7.22287 4.82977 9.20708 4.82977C 9.25587 4.82977 9.32092 4.81378 9.36972 4.81378C 9.38598 4.81378 9.38598 4.7978 9.40225 4.7978C 9.41851 4.78181 9.41851 4.78181 9.45104 4.74984C 9.32092 3.88667 8.86553 3.2313 8.01981 2.87963C 7.0765 2.496 6.08439 2.48001 5.12481 2.76774C 4.10018 3.07145 3.43336 3.74281 3.12435 4.78181Z" transform="translate(2158.7 140.472) scale(20.48)" fill="#98CE23"/>
</g>
<g id="Vector_5">
<path d="M 11.5485 10.4788C 11.0444 10.9584 10.4751 11.342 9.82456 11.6297C 8.97883 11.9814 8.08431 12.2052 7.15726 12.2851C 5.62845 12.429 4.1647 12.1892 2.81479 11.4379C 1.64378 10.7985 0.846839 9.82347 0.407712 8.59265C 0.147488 7.87333 -0.0151513 7.13804 0.00111269 6.37077C 0.0173767 5.73138 0.00111269 5.09199 0.163752 4.46859C 0.537824 2.93405 1.36729 1.71921 2.74973 0.903993C 3.66051 0.360512 4.63635 0.104757 5.70977 0.0248332C 6.75067 -0.0550904 7.75904 0.0568028 8.75114 0.376497C 9.71071 0.696192 10.5239 1.22369 11.1257 2.02292C 11.76 2.85413 12.1015 3.78124 12.2479 4.80427C 12.3455 5.55555 12.2967 6.32281 12.2967 7.0741C 12.2967 7.10607 12.2642 7.15402 12.2316 7.23394C 9.19026 7.23394 6.13263 7.23394 3.04248 7.23394C 3.14006 7.93727 3.44908 8.46477 3.95327 8.88037C 4.58756 9.39188 5.3357 9.63165 6.16516 9.64764C 6.9621 9.66362 7.74277 9.63165 8.47465 9.31196C 8.91378 9.13613 9.30411 8.89636 9.71071 8.68855C 10.2962 9.24802 10.898 9.85544 11.5485 10.4788ZM 9.4017 4.80427C 9.41796 4.72434 9.41796 4.70836 9.41796 4.67639C 9.38543 4.56449 9.35291 4.4526 9.32038 4.32472C 9.10895 3.63738 8.65355 3.15784 7.98673 2.87011C 7.38496 2.59837 6.76693 2.58239 6.11637 2.59837C 5.12427 2.61436 4.29481 2.95004 3.64425 3.70132C 3.36776 4.02101 3.17259 4.37268 3.10754 4.80427C 5.23812 4.80427 7.30365 4.80427 9.4017 4.80427Z" transform="translate(1872.24 140.667) scale(20.48)" fill="#98CE23"/>
</g>
<g id="Vector_6">
<path d="M 2.8462 1.64871C 3.35038 1.29705 3.80577 0.945383 4.29369 0.641673C 4.87919 0.274024 5.51349 0.114177 6.19658 0.0342529C 6.96098 -0.0616555 7.6766 0.050238 8.39221 0.290009C 9.49816 0.657657 10.3276 1.345 10.8969 2.32007C 11.3848 3.16726 11.6613 4.07839 11.7101 5.05346C 11.8402 7.21139 11.7263 9.36933 11.7751 11.5273C 11.7751 11.847 11.7426 11.8789 11.4824 11.8949C 10.6366 11.8949 9.77465 11.8949 8.92892 11.8949C 8.8964 11.8949 8.88013 11.8789 8.79881 11.847C 8.79881 11.7191 8.78255 11.5592 8.78255 11.3994C 8.78255 9.52918 8.78255 7.64298 8.78255 5.77277C 8.78255 5.35717 8.73375 4.95755 8.61991 4.55793C 8.29463 3.47097 7.28626 2.71969 6.19658 2.7037C 5.44843 2.68772 4.78161 2.8156 4.17984 3.27915C 3.52928 3.79066 3.17148 4.44604 3.0251 5.22929C 2.96004 5.59694 2.94378 5.96459 2.94378 6.33223C 2.94378 8.02662 2.94378 9.72099 2.94378 11.3994C 2.94378 11.5433 2.94378 11.6871 2.94378 11.8789C 1.95168 11.8949 1.02463 11.8949 0.032527 11.8789C 0.016263 11.7351 -4.96337e-07 11.6232 -4.96337e-07 11.5113C -4.96337e-07 7.86677 -4.96337e-07 4.20627 -4.96337e-07 0.561749C -4.96337e-07 0.162131 0.0162635 0.146146 0.406599 0.146146C 1.04089 0.146146 1.67519 0.146146 2.30948 0.146146C 2.63476 0.146146 2.63476 0.162131 2.68356 0.481826C 2.73235 0.865459 2.7974 1.26508 2.8462 1.64871Z" transform="translate(605.2 143.748) scale(20.48)" fill="white"/>
</g>
<g id="Vector_7">
<path d="M 1.98535e-06 10.2791C 0.471657 9.60775 0.943311 8.93639 1.43123 8.26503C 1.52881 8.32897 1.59387 8.36094 1.65892 8.40889C 2.56971 9.19214 3.64313 9.57578 4.79787 9.78358C 5.33459 9.87949 5.87129 9.89547 6.408 9.76759C 6.74955 9.68767 7.05857 9.51184 7.31879 9.27207C 7.90429 8.68063 7.72539 7.83344 6.94472 7.5617C 6.58691 7.43382 6.18031 7.36988 5.80624 7.32193C 5.2858 7.24201 4.76534 7.22602 4.2449 7.1461C 3.36664 7.01822 2.52092 6.76246 1.78904 6.25095C 0.959577 5.6755 0.471657 4.89225 0.406601 3.88521C 0.309018 2.2228 1.25233 1.10387 2.65103 0.512437C 3.48049 0.176758 4.34248 -0.0150591 5.25326 0.000925622C 5.93635 0.0169103 6.6357 0.0169104 7.30252 0.160773C 8.27836 0.368574 9.12409 0.816147 9.8885 1.42357C 9.92103 1.43955 9.93729 1.48751 9.98608 1.56743C 9.46563 2.17485 8.92892 2.78227 8.39221 3.42166C 8.18078 3.27779 8.00187 3.1659 7.82297 3.05401C 7.20494 2.65439 6.53812 2.44659 5.80624 2.44659C 5.33459 2.44659 4.86293 2.39863 4.39128 2.5425C 4.19611 2.60644 4.00094 2.67037 3.82204 2.76628C 3.09016 3.13393 3.13894 4.07703 3.80577 4.44468C 3.98467 4.55657 4.1961 4.6365 4.40754 4.66847C 4.8304 4.74839 5.25327 4.79634 5.69239 4.8443C 6.78208 4.95619 7.87177 5.08407 8.86387 5.61156C 9.95356 6.18701 10.4903 7.09814 10.5553 8.28101C 10.6204 9.25608 10.3764 10.1512 9.69333 10.9025C 9.05903 11.5899 8.2621 11.9895 7.36758 12.2133C 6.39174 12.453 5.39964 12.501 4.39128 12.3891C 3.41544 12.2932 2.50465 12.0694 1.64266 11.6218C 1.04089 11.2542 0.504185 10.8386 1.98535e-06 10.2791Z" transform="translate(1627.78 141.158) scale(20.48)" fill="#98CE23"/>
</g>
<g id="Vector_8">
<path d="M 0 11.6529C 1.3987 9.67076 2.78114 7.73661 4.16358 5.77049C 2.86246 3.88429 1.5776 2.01408 0.227695 0.0639391C 0.406598 0.0479544 0.520446 0.0159845 0.634294 0.0159845C 1.56134 0.0159845 2.50465 0.0319695 3.4317 0C 3.72445 0 3.87083 0.0959081 4.00094 0.335679C 4.61897 1.39067 5.237 2.42968 5.85503 3.48467C 5.92009 3.61255 6.01767 3.72444 6.11526 3.88429C 6.21284 3.74043 6.29416 3.64452 6.35922 3.53262C 6.97725 2.47763 7.61154 1.42264 8.22957 0.351664C 8.37595 0.0959085 8.53859 -2.44146e-07 8.8476 0.0159845C 9.75838 0.0319692 10.6692 0.0159845 11.5637 0.0159845C 11.6938 0.0159845 11.8239 0.0319696 12.0353 0.0319696C 10.6854 1.98211 9.40058 3.85232 8.09946 5.7545C 9.4819 7.70464 10.8643 9.65477 12.263 11.6369C 12.1004 11.6529 12.0028 11.6848 11.9052 11.6848C 10.9457 11.6848 9.98608 11.6848 9.02651 11.6848C 8.79881 11.6848 8.65244 11.6049 8.53859 11.4291C 7.82297 10.3261 7.09109 9.2072 6.35922 8.10425C 6.31042 8.02433 6.24536 7.94441 6.14778 7.80055C 5.96888 8.0563 5.8225 8.2641 5.67613 8.48789C 5.02557 9.47894 4.39127 10.454 3.74071 11.4451C 3.64313 11.6049 3.52928 11.6848 3.31785 11.6848C 2.30948 11.6688 1.31738 11.6848 0.309015 11.6848C 0.211431 11.7008 0.130112 11.6688 0 11.6529Z" transform="translate(1160.8 147.395) scale(20.48)" fill="white"/>
</g>
<g id="Vector_9">
<path d="M 2.25706 5.80245C 1.47639 5.80245 0.777041 5.80245 0.07769 5.80245C -0.0361578 5.38685 -0.0198978 3.64452 0.09395 3.30884C 0.777037 3.30884 1.47639 3.30884 2.22453 3.30884C 2.27332 2.95717 2.2408 2.62149 2.25706 2.3018C 2.25706 1.98211 2.25706 1.66241 2.25706 1.34272C 2.25706 1.00704 2.25706 0.687343 2.25706 0.30371C 3.2329 0.207801 4.17621 0.0959083 5.16831 0C 5.23337 0.383633 5.20084 0.735297 5.20084 1.10295C 5.20084 1.45461 5.20084 1.82226 5.20084 2.17392C 5.20084 2.52559 5.20084 2.89323 5.20084 3.29285C 6.29053 3.29285 7.33142 3.29285 8.43737 3.29285C 8.48616 4.14004 8.45364 4.93928 8.45364 5.78647C 7.36395 5.78647 6.32305 5.78647 5.23337 5.78647C 5.2171 5.93033 5.18458 6.02624 5.18458 6.12215C 5.18458 7.73661 5.18458 9.35106 5.18458 10.9495C 5.18458 12.0205 6.0303 12.6439 7.05493 12.4201C 7.39648 12.3402 7.73802 12.2443 8.11209 12.1484C 8.40484 12.8997 8.6488 13.7149 8.92529 14.5301C 8.53496 14.7699 8.11209 14.8658 7.68923 14.9457C 7.23384 15.0256 6.77845 15.1056 6.32306 15.0896C 5.13579 15.0736 4.0461 14.8019 3.21664 13.8747C 2.72872 13.3313 2.46849 12.7079 2.33838 12.0205C 2.25706 11.6209 2.2408 11.2053 2.2408 10.7897C 2.22453 9.28712 2.2408 7.78456 2.2408 6.282C 2.25706 6.1701 2.25706 6.02624 2.25706 5.80245Z" transform="translate(1419.68 80.285) scale(20.48)" fill="white"/>
</g>
<g id="Vector_10">
<path d="M -1.24084e-07 2.43908e-07C 3.15521 2.43908e-07 5.93635 1.96612 6.55438 5.46678C 3.36664 5.40284 0.504183 3.19695 -1.24084e-07 2.43908e-07Z" transform="translate(109.24 217.453) scale(20.48)" fill="#98CE23"/>
</g>
<g id="Vector_11">
<path d="M 0 5.56268C 0.309016 3.96421 0.992103 2.60551 2.24443 1.5665C 3.49676 0.527496 4.96051 0.0959081 6.58691 -2.43908e-07C 6.13152 2.8293 3.8383 5.27496 0 5.56268Z" transform="translate(279.78 216.47) scale(20.48)" fill="#98CE23"/>
</g>
</g>
</g>
</svg>

