<?xml version="1.0" encoding="utf-8"?>
<!-- Generator: Adobe Illustrator 23.0.2, SVG Export Plug-In . SVG Version: 6.00 Build 0)  -->
<svg version="1.1" id="Layer_1" xmlns="http://www.w3.org/2000/svg" xmlns:xlink="http://www.w3.org/1999/xlink" x="0px" y="0px"
	 viewBox="0 0 221 25" style="enable-background:new 0 0 221 25;" xml:space="preserve">
<style type="text/css">
	.st0{fill:#20C86D;}
	.st1{fill:#5C6E8B;}
	.st2{fill:none;stroke:#111820;stroke-width:2;stroke-linecap:round;}
	.st3{fill:#00C0EE;}
	.st4{fill:#111820;}
</style>
<title>nextseed_and_lendio</title>
<path class="st0" d="M13.6,25v-7.3l1-0.1c1.2-0.2,2.4-0.6,3.4-1.2c1.1-0.7,2-1.6,2.7-2.7c0.7-1.2,1.1-2.6,1.3-4c0-0.1,0-0.1,0-0.2
	c0-0.1,0-0.1,0-0.2c-0.3,0-0.6-0.1-0.9-0.1C19.4,9,17.9,9.3,16.4,10c-1.4,0.6-2.5,1.7-3.2,3c-0.1,0.2-0.3,0.5-0.4,0.7
	c-0.1-0.1-0.2-0.2-0.2-0.4c-0.4-0.8-0.9-1.4-1.6-2c-0.9-0.9-2.1-1.5-3.3-1.9c-1-0.3-2-0.4-3-0.4C4.4,9.1,4,9.1,3.6,9.2
	c0,1.5,0.4,2.9,1.1,4.2c0.7,1.3,1.8,2.4,3.1,3.1c1.3,0.7,2.8,1.1,4.3,1.2V25c-0.3,0-0.5,0-0.8,0c-1.6-0.2-3.2-0.7-4.6-1.5
	c-1-0.5-1.9-1.2-2.7-1.9c-2-1.8-3.3-4.2-3.8-6.9c-0.2-1-0.3-2.1-0.2-3.1c0.2-2,0.8-3.9,1.9-5.6c0.7-1.1,1.5-2.1,2.5-2.9
	c1.4-1.2,3-2.1,4.8-2.6C10.8,0,12.4-0.1,14,0.1c1.3,0.1,2.6,0.5,3.8,1c0.8,0.3,1.5,0.7,2.2,1.1c2.9,2,4.9,5,5.4,8.5
	c0.2,1.1,0.2,2.1,0,3.2c-0.3,2.5-1.4,4.9-3.1,6.8c-0.9,1-1.9,1.8-3,2.5c-1.3,0.8-2.8,1.3-4.3,1.6L13.8,25C13.7,25,13.6,25,13.6,25z"
	/>
<path class="st1" d="M129.3,2.4h2.9l0,0l0,0c0,5.3,0,10.7,0,16.1c0,0.1,0,0.2,0,0.3c0,0,0,0-0.1,0.1h-2.7c-0.1-0.5-0.1-1-0.2-1.5
	l-0.9,0.8c-0.5,0.5-1.2,0.7-1.8,0.8c-1.1,0.2-2.3,0.1-3.4-0.3c-1.6-0.5-2.8-1.7-3.4-3.3c-0.3-0.7-0.4-1.5-0.4-2.2
	c0-0.9,0.1-1.8,0.4-2.6c0.6-1.7,1.9-3,3.7-3.4c0.6-0.2,1.3-0.3,2-0.3c1.5,0,3,0.6,4,1.8L129.3,2.4z M129.1,12.8
	c0-0.6-0.2-1.1-0.5-1.6c-0.8-1.3-2.3-1.8-3.8-1.5c-0.9,0.2-1.7,0.8-2.2,1.7c-0.4,0.8-0.5,1.8-0.2,2.6c0.5,1.8,2.4,2.8,4.2,2.2
	c0.2-0.1,0.4-0.1,0.6-0.2C128.5,15.5,129.2,14.2,129.1,12.8L129.1,12.8z"/>
<path class="st1" d="M46.4,14.1c0,0.5,0.2,0.9,0.5,1.3c0.6,0.7,1.5,1.1,2.4,1.1c0.8,0.1,1.6,0,2.3-0.2c0.5-0.2,1-0.4,1.4-0.8
	l1.9,1.8c-0.4,0.5-0.9,0.8-1.4,1.1c-0.9,0.5-2,0.7-3,0.8c-1.1,0.1-2.1,0-3.1-0.3c-1.9-0.5-3.4-2.1-3.8-4c-0.4-1.4-0.3-2.9,0.2-4.3
	c0.7-1.7,2.2-3,4-3.4c0.6-0.2,1.2-0.2,1.9-0.2c1,0,1.9,0.2,2.8,0.5c1.5,0.6,2.6,1.9,2.9,3.5c0.2,0.8,0.3,1.7,0.2,2.5
	c0,0.2,0,0.4-0.1,0.6L46.4,14.1L46.4,14.1z M52.7,11.7c-0.1-0.9-0.6-1.6-1.5-1.9c-0.6-0.2-1.2-0.3-1.8-0.3c-0.6,0-1.2,0.2-1.7,0.5
	c-0.7,0.4-1.1,1-1.3,1.7H52.7z"/>
<path class="st1" d="M117.7,14.1h-9.2c0.1,0.8,0.5,1.5,1.2,1.9c0.6,0.4,1.3,0.6,2,0.5c1,0.1,1.9-0.1,2.8-0.6
	c0.2-0.1,0.4-0.3,0.7-0.4c0.6,0.6,1.2,1.2,1.9,1.8c-0.2,0.2-0.3,0.3-0.5,0.5c-1,0.7-2.1,1.2-3.3,1.3c-0.4,0.1-0.7,0.1-1.1,0.1
	c-0.5,0-1,0-1.4-0.1c-0.6-0.1-1.3-0.3-1.9-0.5c-1.4-0.5-2.5-1.6-3-3c-0.4-1.1-0.6-2.3-0.5-3.4c0.1-1.3,0.7-2.6,1.6-3.5
	c0.8-0.8,1.8-1.4,2.9-1.6c0.6-0.2,1.2-0.2,1.8-0.2c1.2,0,2.4,0.3,3.5,0.8c1,0.6,1.7,1.5,2.1,2.5c0.2,0.6,0.4,1.3,0.4,1.9
	C117.8,12.8,117.8,13.5,117.7,14.1z M108.5,11.6c0.1,0,0.1,0,0.2,0h5.9h0.2l0,0v-0.1c-0.1-0.8-0.6-1.6-1.4-1.9
	c-0.9-0.4-1.9-0.4-2.9-0.1C109.5,9.9,108.8,10.7,108.5,11.6z"/>
<path class="st1" d="M103,17.4c-0.5,0.5-1.1,0.9-1.7,1.1c-0.9,0.4-1.8,0.6-2.7,0.6c-1.5,0.2-3-0.1-4.3-0.8c-1.1-0.6-2-1.6-2.4-2.9
	c-0.3-0.7-0.4-1.5-0.4-2.2c0-0.6,0-1.3,0.2-1.9c0.3-1.5,1.3-2.8,2.6-3.6c0.9-0.5,1.9-0.8,3-0.9c1-0.1,2,0,3,0.3
	c0.9,0.3,1.8,0.9,2.4,1.7c0.6,0.8,1,1.8,1.1,2.8c0,0.8,0,1.5,0,2.3c0,0.1,0,0.1-0.1,0.2h-9.2c0.1,0.6,0.4,1.2,0.9,1.6
	c0.6,0.5,1.4,0.8,2.2,0.8c0.8,0.1,1.6-0.1,2.3-0.3c0.4-0.2,0.8-0.4,1.2-0.6L103,17.4z M100.8,11.7c0,0,0-0.1,0-0.1
	c0-0.1-0.1-0.2-0.1-0.4c-0.2-0.7-0.7-1.2-1.3-1.4c-0.6-0.2-1.2-0.3-1.9-0.3c-0.9,0-1.9,0.4-2.5,1.1c-0.3,0.3-0.5,0.7-0.5,1.1H100.8z
	"/>
<path class="st1" d="M32.4,8.7c0.5-0.4,1-0.7,1.4-1c0.6-0.3,1.2-0.6,1.9-0.6c0.7-0.1,1.5,0,2.2,0.3c1.1,0.3,2,1,2.5,2
	c0.5,0.8,0.8,1.8,0.8,2.7c0.1,2.2,0,4.3,0.1,6.5c0,0.3,0,0.4-0.3,0.4h-2.5h-0.1c0-0.1,0-0.3,0-0.5v-5.6c0-0.4,0-0.8-0.2-1.2
	c-0.3-1.1-1.3-1.8-2.4-1.9c-1.6-0.1-3,1-3.2,2.5c-0.1,0.4-0.1,0.7-0.1,1.1v5.5c-1,0-1.9,0-2.9,0c0-0.1,0-0.3,0-0.4v-11
	c0-0.4,0-0.4,0.4-0.4h1.9c0.3,0,0.3,0,0.4,0.3S32.3,8.3,32.4,8.7z"/>
<path class="st1" d="M79.5,17.2c0.5-0.7,0.9-1.3,1.4-2l0.2,0.1c0.9,0.7,2,1.2,3.1,1.4c0.5,0.1,1.1,0.1,1.6,0
	c0.3-0.1,0.7-0.3,0.9-0.5c0.4-0.4,0.5-1,0.1-1.4c-0.1-0.1-0.3-0.2-0.5-0.3c-0.4-0.1-0.8-0.2-1.1-0.2c-0.5-0.1-1-0.1-1.6-0.2
	c-0.9-0.1-1.7-0.4-2.5-0.9c-0.8-0.5-1.3-1.4-1.4-2.4c-0.1-1.5,0.8-2.9,2.2-3.4c0.8-0.3,1.7-0.5,2.6-0.5c0.7,0,1.3,0,2,0.2
	c1,0.2,1.8,0.6,2.6,1.3c0,0,0,0.1,0.1,0.1c-0.5,0.6-1.1,1.2-1.6,1.9L87.3,10c-0.6-0.4-1.3-0.6-2-0.6c-0.5,0-1,0-1.4,0.1
	c-0.2,0.1-0.4,0.1-0.6,0.2c-0.5,0.2-0.7,0.8-0.4,1.2c0.1,0.2,0.2,0.3,0.4,0.4c0.2,0.1,0.4,0.2,0.6,0.2c0.4,0.1,0.8,0.1,1.3,0.2
	c1.1,0,2.2,0.3,3.2,0.8c1,0.5,1.6,1.5,1.6,2.6c0.1,1-0.2,1.9-0.9,2.6c-0.6,0.7-1.4,1.1-2.3,1.3c-1,0.2-2,0.3-3,0.2
	c-1-0.1-1.9-0.3-2.8-0.8C80.5,18.1,79.9,17.7,79.5,17.2z"/>
<path class="st1" d="M56.7,18.9l4.2-5.9c-1.3-1.9-2.6-3.8-3.9-5.7c0.2,0,0.3,0,0.4,0c0.9,0,1.9,0,2.8,0c0.2,0,0.5,0.1,0.6,0.3
	c0.6,1.1,1.2,2.1,1.8,3.2c0.1,0.1,0.2,0.2,0.3,0.4c0.1-0.1,0.2-0.2,0.3-0.4c0.6-1.1,1.2-2.1,1.9-3.2c0.1-0.2,0.4-0.4,0.6-0.3
	c0.9,0,1.8,0,2.7,0h0.5c-1.3,1.9-2.6,3.8-3.9,5.7l4.2,5.9c-0.2,0-0.3,0-0.4,0h-2.9c-0.2,0-0.4-0.1-0.5-0.3c-0.7-1.2-1.5-2.3-2.2-3.4
	c0-0.1-0.1-0.2-0.2-0.3c-0.2,0.3-0.3,0.5-0.5,0.7c-0.7,1-1.3,2-1.9,3c-0.1,0.2-0.2,0.3-0.4,0.2h-3C56.9,18.9,56.8,18.9,56.7,18.9z"
	/>
<path class="st1" d="M71.6,9.7h-2.2c-0.1-0.8-0.1-1.7,0-2.5h2.1c0-0.3,0-0.7,0-1v-2l2.9-0.3c0,0.4,0,0.7,0,1.1v2.2h3.2
	c0,0.9,0,1.6,0,2.5h-3.1c0,0.1,0,0.2,0,0.3v4.8c0,0.8,0.6,1.5,1.4,1.5c0.2,0,0.3,0,0.5-0.1l1.1-0.3c0.3,0.8,0.5,1.6,0.8,2.4
	c-0.4,0.2-0.8,0.4-1.2,0.4C76.6,19,76.2,19,75.7,19c-1.2,0.1-2.3-0.4-3.1-1.2c-0.5-0.5-0.8-1.2-0.9-1.9c-0.1-0.4-0.1-0.8-0.1-1.2
	c0-1.5,0-3,0-4.5C71.6,10,71.6,9.9,71.6,9.7z"/>
<path class="st0" d="M5.3,10.6c3.3-0.1,6.1,2.2,6.6,5.5C8.7,16.1,5.9,13.8,5.3,10.6z"/>
<path class="st0" d="M13.7,16.1c0.2-1.6,1-3,2.3-4c1.2-1,2.8-1.5,4.3-1.6C19.8,13.4,17.5,15.9,13.7,16.1z"/>
<line class="st2" x1="145" y1="16" x2="145" y2="8"/>
<line class="st2" x1="141" y1="12" x2="149" y2="12"/>
<path class="st3" d="M214.9,6.7c-3.4,0-6.1,2.7-6.1,6.1s2.7,6.1,6.1,6.1c3.4,0,6.1-2.7,6.1-6.1c0,0,0,0,0,0
	C221,9.5,218.3,6.7,214.9,6.7z M214.9,17.1c-2.4,0-4.3-1.9-4.3-4.3c0-2.4,1.9-4.3,4.3-4.3c2.4,0,4.3,1.9,4.3,4.3c0,0,0,0,0,0
	C219.2,15.2,217.3,17.1,214.9,17.1z"/>
<path class="st4" d="M157,2.3c-0.6,0-1,0.4-1,1v14.6c0,0.6,0.5,1,1,1c0.6,0,1-0.5,1-1V3.3C158.1,2.7,157.6,2.3,157,2.3
	C157,2.3,157,2.3,157,2.3z"/>
<path class="st4" d="M205.1,6.7c-0.6,0-1,0.4-1,1v10.2c0,0.6,0.5,1,1,1c0.6,0,1-0.5,1-1V7.8C206.2,7.2,205.7,6.8,205.1,6.7
	C205.1,6.7,205.1,6.7,205.1,6.7z"/>
<path class="st4" d="M166.4,6.7c-3.4,0.1-6,2.8-6,6.2c0.1,3.4,2.8,6,6.2,6c1.9,0,3.7-0.9,4.8-2.4c0,0,0.2-0.3,0.3-0.3s0,0,0,0
	c0.2-0.4,0-0.8-0.3-1.1c-0.4-0.3-0.9-0.2-1.2,0.1c-1.3,2-4,2.5-5.9,1.1c-0.9-0.6-1.5-1.6-1.8-2.6h9.4c0.5,0,0.9-0.4,0.9-0.9
	c0,0,0,0,0,0c0-3.4-2.8-6.1-6.1-6.1C166.5,6.7,166.4,6.7,166.4,6.7z M162.4,11.9c0.5-2.3,2.8-3.8,5.1-3.3c1.6,0.4,2.9,1.6,3.3,3.3
	H162.4z"/>
<path class="st4" d="M199.6,2.3c-0.5,0-0.9,0.4-0.9,0.9c0,0,0,0,0,0v5.3c-2.4-2.4-6.2-2.3-8.6,0c-2.4,2.4-2.3,6.2,0,8.6
	c2.4,2.3,6.2,2.3,8.6,0V18c0.1,0.5,0.5,0.9,1,0.8c0.4,0,0.8-0.4,0.8-0.8V3.2C200.5,2.7,200.1,2.3,199.6,2.3z M194.4,17.1
	c-2.4,0-4.3-1.9-4.3-4.3c0-2.4,1.9-4.3,4.3-4.3c2.4,0,4.3,1.9,4.3,4.3c0,0,0,0,0,0C198.7,15.2,196.8,17.1,194.4,17.1L194.4,17.1z"/>
<path class="st4" d="M180.5,6.7c-1.4,0-2.8,0.5-3.7,1.5V7.7c0-0.5-0.4-0.9-0.9-0.9S175,7.1,175,7.7V18c0,0.5,0.4,0.9,0.9,0.9
	s0.9-0.4,0.9-0.9v-5.7c0-2,1.6-3.7,3.7-3.8c0,0,0,0,0.1,0c2.1,0,3.8,1.7,3.8,3.8c0,0,0,0.1,0,0.1V18c0,0.5,0.4,0.9,0.9,0.9l0,0
	c0.5,0,0.9-0.4,0.9-0.9c0,0,0,0,0,0v-5.6C186.1,10.5,184.6,6.7,180.5,6.7z"/>
<path class="st4" d="M205.1,4.6c0.7,0,1.2-0.5,1.2-1.2s-0.5-1.2-1.2-1.2s-1.2,0.5-1.2,1.2c0,0,0,0,0,0
	C203.9,4.1,204.4,4.6,205.1,4.6z"/>
</svg>
