<svg id="Layer_1" data-name="Layer 1" xmlns="http://www.w3.org/2000/svg" viewBox="0 0 221 25"><defs><style>.cls-1{fill:#98ce23;}.cls-2{fill:#fff;}.cls-3{fill:none;stroke:#fff;stroke-linecap:round;stroke-width:2px;}.cls-4{fill:#00c0ee;}</style></defs><title>nextseed_and_lendio</title><path class="cls-1" d="M13.55,25V17.67l1-.13A9.51,9.51,0,0,0,18,16.32a7.41,7.41,0,0,0,2.68-2.71,9.69,9.69,0,0,0,1.25-4,1.48,1.48,0,0,1,0-.19c0-.06,0-.12,0-.2-.33,0-.62-.1-.93-.12a9.84,9.84,0,0,0-4.57.87A7,7,0,0,0,13.21,13c-.13.24-.26.46-.41.72a.79.79,0,0,1-.24-.38A7.34,7.34,0,0,0,11,11.31,8,8,0,0,0,7.72,9.45a10.35,10.35,0,0,0-3-.38c-.35,0-.73.06-1.07.09a9.45,9.45,0,0,0,1.11,4.19,7.46,7.46,0,0,0,3.07,3.1,10.35,10.35,0,0,0,4.28,1.2V25a2.51,2.51,0,0,1-.82,0,13.26,13.26,0,0,1-4.6-1.47A13.36,13.36,0,0,1,4,21.62,12.42,12.42,0,0,1,.21,14.76a10.75,10.75,0,0,1-.16-3.15A12.11,12.11,0,0,1,1.92,6,12.24,12.24,0,0,1,4.41,3.07,12.68,12.68,0,0,1,9.2.48,13.29,13.29,0,0,1,14,.05a12.15,12.15,0,0,1,3.79,1A11,11,0,0,1,20,2.19a12.63,12.63,0,0,1,5.42,8.52,12.86,12.86,0,0,1,.05,3.22,12.39,12.39,0,0,1-3.09,6.85,12.53,12.53,0,0,1-3,2.45,11.93,11.93,0,0,1-4.29,1.6L13.79,25C13.71,25,13.64,25,13.55,25Z" transform="translate(0 0)"/><path class="cls-1" d="M129.31,2.37h2.87l0,0s0,0,0,0c0,5.35,0,10.71,0,16.06a1.23,1.23,0,0,1,0,.28s0,0-.05.09h-2.66c-.07-.51-.15-1-.22-1.47l-.86.83a3.55,3.55,0,0,1-1.85.83,6.44,6.44,0,0,1-3.4-.28,5.38,5.38,0,0,1-3.4-3.31,7,7,0,0,1-.41-2.22,7.55,7.55,0,0,1,.36-2.59,5.22,5.22,0,0,1,3.66-3.44,6.17,6.17,0,0,1,2-.27,5.07,5.07,0,0,1,4,1.8Zm-.21,10.44a2.89,2.89,0,0,0-.49-1.6,3.46,3.46,0,0,0-3.77-1.47,3,3,0,0,0-2.15,1.68,3.67,3.67,0,0,0-.21,2.63,3.37,3.37,0,0,0,4.78,2A3.29,3.29,0,0,0,129.1,12.81Z" transform="translate(0 0)"/><path class="cls-2" d="M46.38,14.1a2.08,2.08,0,0,0,.54,1.3,3.24,3.24,0,0,0,2.36,1.1,5.72,5.72,0,0,0,2.32-.24A5.14,5.14,0,0,0,53,15.49l1.88,1.78a4.33,4.33,0,0,1-1.43,1.07,8.34,8.34,0,0,1-3,.83,7.85,7.85,0,0,1-3.13-.34,5.36,5.36,0,0,1-3.82-4,6.88,6.88,0,0,1,.23-4.3,5.58,5.58,0,0,1,4-3.42,7,7,0,0,1,1.88-.23,7.48,7.48,0,0,1,2.85.54,5,5,0,0,1,2.91,3.52,8.63,8.63,0,0,1,.24,2.53,4.25,4.25,0,0,1-.09.64H46.38Zm6.35-2.43a2.32,2.32,0,0,0-1.47-1.95,4.17,4.17,0,0,0-1.79-.25,3.68,3.68,0,0,0-1.74.46,2.83,2.83,0,0,0-1.33,1.74Z" transform="translate(0 0)"/><path class="cls-1" d="M117.67,14.1h-9.19A2.51,2.51,0,0,0,109.72,16a3.84,3.84,0,0,0,2,.55,5.48,5.48,0,0,0,2.79-.58c.24-.13.45-.29.71-.45.6.58,1.2,1.17,1.86,1.79-.17.16-.3.32-.46.45a7,7,0,0,1-3.3,1.34,7.91,7.91,0,0,1-1.09.13,9.91,9.91,0,0,1-1.45-.08,6.74,6.74,0,0,1-1.87-.51,5.37,5.37,0,0,1-3-3,7.08,7.08,0,0,1-.47-3.43A5.79,5.79,0,0,1,107,8.7a6,6,0,0,1,2.88-1.63,6.51,6.51,0,0,1,1.8-.21,6.7,6.7,0,0,1,3.5.85,4.89,4.89,0,0,1,2.12,2.54,7.69,7.69,0,0,1,.42,1.9A6.12,6.12,0,0,1,117.67,14.1Zm-9.14-2.46c.08,0,.11,0,.15,0h5.93l.16,0h0l0-.05a2.27,2.27,0,0,0-1.44-1.87,4.29,4.29,0,0,0-2.89-.11A2.81,2.81,0,0,0,108.53,11.64Z" transform="translate(0 0)"/><path class="cls-1" d="M103,17.35a6.15,6.15,0,0,1-1.73,1.15,8.93,8.93,0,0,1-2.67.65,7.28,7.28,0,0,1-4.34-.84,5.07,5.07,0,0,1-2.4-2.85,5.83,5.83,0,0,1-.41-2.22,8,8,0,0,1,.16-1.9,5.46,5.46,0,0,1,2.59-3.57,6.59,6.59,0,0,1,3-.88,7.82,7.82,0,0,1,3,.35,4.75,4.75,0,0,1,2.37,1.65,5.81,5.81,0,0,1,1.13,2.78,19.11,19.11,0,0,1,0,2.27.87.87,0,0,1-.06.16H94.46a2.5,2.5,0,0,0,.91,1.65,3.57,3.57,0,0,0,2.21.77,5.46,5.46,0,0,0,2.31-.34c.44-.18.83-.42,1.24-.62Zm-2.15-5.68a.4.4,0,0,0,0-.13,2.92,2.92,0,0,1-.1-.35A2.27,2.27,0,0,0,99.4,9.74a4.1,4.1,0,0,0-1.87-.27,3.15,3.15,0,0,0-2.47,1.1,2.14,2.14,0,0,0-.53,1.1Z" transform="translate(0 0)"/><path class="cls-2" d="M32.4,8.67c.5-.35,1-.71,1.44-1a4.43,4.43,0,0,1,1.91-.61,4.92,4.92,0,0,1,2.19.26,4.42,4.42,0,0,1,2.51,2,6,6,0,0,1,.81,2.73c.13,2.16,0,4.32.07,6.48,0,.32,0,.35-.3.36H38.48l-.13,0c0-.13,0-.29,0-.45V12.79a4.15,4.15,0,0,0-.16-1.21,2.6,2.6,0,0,0-2.42-1.86,2.95,2.95,0,0,0-3.17,2.53,5.82,5.82,0,0,0-.08,1.1V18.9c-1,0-1.92,0-2.92,0,0-.15,0-.26,0-.37v-11c0-.4,0-.42.41-.42h1.9c.33,0,.33,0,.37.34S32.35,8.28,32.4,8.67Z" transform="translate(0 0)"/><path class="cls-1" d="M79.48,17.17c.47-.67.94-1.34,1.43-2l.23.14a6.42,6.42,0,0,0,3.14,1.38,4,4,0,0,0,1.61,0,2,2,0,0,0,.91-.5,1,1,0,0,0-.37-1.71,6.42,6.42,0,0,0-1.14-.24c-.52-.08-1-.09-1.56-.17a5.55,5.55,0,0,1-2.46-.9,3,3,0,0,1-1.38-2.36,3.31,3.31,0,0,1,2.24-3.37,6.6,6.6,0,0,1,2.6-.52,11.58,11.58,0,0,1,2,.16,6.17,6.17,0,0,1,2.59,1.27s0,.06.1.14c-.52.61-1.06,1.21-1.6,1.85L87.3,10a3.6,3.6,0,0,0-2-.61,4.54,4.54,0,0,0-1.42.1,3,3,0,0,0-.57.22.93.93,0,0,0,0,1.68,1.61,1.61,0,0,0,.6.22c.42.08.84.13,1.28.18a8.47,8.47,0,0,1,3.17.76A3,3,0,0,1,90,15.17a3.42,3.42,0,0,1-.87,2.63,4.65,4.65,0,0,1-2.32,1.31,8.52,8.52,0,0,1-3,.17,7.35,7.35,0,0,1-2.75-.77A7.1,7.1,0,0,1,79.48,17.17Z" transform="translate(0 0)"/><path class="cls-2" d="M56.68,18.85,60.84,13c-1.3-1.89-2.58-3.76-3.93-5.71.18,0,.29,0,.4,0,.93,0,1.87,0,2.8,0a.56.56,0,0,1,.57.33c.62,1.06,1.24,2.1,1.85,3.15.07.13.17.24.26.4.1-.14.18-.24.25-.35.62-1.06,1.25-2.11,1.87-3.18a.59.59,0,0,1,.62-.34c.91,0,1.82,0,2.71,0l.47,0c-1.35,1.95-2.63,3.82-3.93,5.72l4.16,5.88c-.16,0-.26.05-.36.05H65.71a.53.53,0,0,1-.49-.25C64.5,17.52,63.77,16.4,63,15.3c0-.08-.12-.16-.21-.3-.18.25-.33.46-.47.69-.66,1-1.29,2-1.94,3a.44.44,0,0,1-.42.24H57A.88.88,0,0,1,56.68,18.85Z" transform="translate(0 0)"/><path class="cls-2" d="M71.58,9.72H69.4a9,9,0,0,1,0-2.49h2.13c0-.35,0-.69,0-1v-2l2.91-.3a6.8,6.8,0,0,1,0,1.1V7.21h3.24c0,.85,0,1.65,0,2.5H74.55c0,.14,0,.24,0,.33v4.83a1.46,1.46,0,0,0,1.87,1.47l1.06-.27c.29.75.54,1.56.81,2.38a3.52,3.52,0,0,1-1.23.42,6.37,6.37,0,0,1-1.37.14,4,4,0,0,1-3.1-1.22,3.66,3.66,0,0,1-.88-1.85,6.25,6.25,0,0,1-.1-1.23c0-1.5,0-3,0-4.51A3,3,0,0,0,71.58,9.72Z" transform="translate(0 0)"/><path class="cls-1" d="M5.33,10.62a6.43,6.43,0,0,1,6.56,5.46A6.66,6.66,0,0,1,5.33,10.62Z" transform="translate(0 0)"/><path class="cls-1" d="M13.66,16.13a6.55,6.55,0,0,1,2.25-4,7.2,7.2,0,0,1,4.34-1.57C19.79,13.4,17.5,15.85,13.66,16.13Z" transform="translate(0 0)"/><line class="cls-3" x1="145" y1="16" x2="145" y2="8"/><line class="cls-3" x1="141" y1="12" x2="149" y2="12"/><path class="cls-4" d="M214.92,6.74A6.09,6.09,0,1,0,221,12.83,6.09,6.09,0,0,0,214.92,6.74Zm0,10.37a4.28,4.28,0,1,1,4.27-4.28A4.28,4.28,0,0,1,214.92,17.11Z" transform="translate(0 0)"/><path class="cls-2" d="M157,2.26a1,1,0,0,0-1,1V17.9a1,1,0,0,0,2.05,0V3.28A1,1,0,0,0,157,2.26Z" transform="translate(0 0)"/><path class="cls-2" d="M205.09,6.74a1,1,0,0,0-1,1V17.9a1,1,0,0,0,2.05,0V7.77A1,1,0,0,0,205.09,6.74Z" transform="translate(0 0)"/><path class="cls-2" d="M166.35,6.74a6.09,6.09,0,0,0,.24,12.18,6,6,0,0,0,4.79-2.36s.23-.29.25-.33,0,0,0-.05a.91.91,0,0,0-.3-1.1.89.89,0,0,0-1.21.15,4.28,4.28,0,0,1-7.72-1.49h9.35a.91.91,0,0,0,.91-.91A6.11,6.11,0,0,0,166.35,6.74Zm-3.93,5.18a4.27,4.27,0,0,1,8.34,0Z" transform="translate(0 0)"/><path class="cls-2" d="M199.61,2.26a.9.9,0,0,0-.91.9V8.5a6.09,6.09,0,1,0,0,8.66V18a.91.91,0,0,0,1.81,0V3.16A.9.9,0,0,0,199.61,2.26Zm-5.18,14.85a4.28,4.28,0,1,1,4.27-4.28A4.28,4.28,0,0,1,194.43,17.11Z" transform="translate(0 0)"/><path class="cls-2" d="M180.53,6.74a5,5,0,0,0-3.73,1.5V7.65a.91.91,0,0,0-1.82,0V18a.91.91,0,0,0,1.82,0V12.29a3.71,3.71,0,0,1,3.73-3.76,3.77,3.77,0,0,1,3.77,3.87V18a.9.9,0,0,0,.9.9h0a.9.9,0,0,0,.91-.9V12.4C186.11,10.54,184.64,6.74,180.53,6.74Z" transform="translate(0 0)"/><path class="cls-2" d="M205.09,4.61a1.18,1.18,0,1,0-1.18-1.18A1.18,1.18,0,0,0,205.09,4.61Z" transform="translate(0 0)"/></svg>