<svg id="Layer_1" data-name="Layer 1" xmlns="http://www.w3.org/2000/svg" viewBox="0 0 389.3 75.07"><defs><style>.cls-1{fill:#fff;}</style></defs><title>nextseed_logo_white</title><path class="cls-1" d="M37.57,0a37.57,37.57,0,0,1,2.28,75.07V53a31,31,0,0,0,10-2.29c9-3.81,13.59-11.49,14.87-20.91L65,27.45l-2.36-.22a28.78,28.78,0,0,0-12.56,1.93,22.4,22.4,0,0,0-12.5,12.29,22.39,22.39,0,0,0-12.5-12.29,28.78,28.78,0,0,0-12.56-1.93l-2.36.22.32,2.35c1.28,9.42,5.91,17.09,14.87,20.91a31,31,0,0,0,10,2.29V75A37.57,37.57,0,0,1,37.57,0ZM15.51,31.76c1.35,6.12,4.56,11.16,10.33,14.13a24.75,24.75,0,0,0,9.21,2.55C33.77,42.24,30.68,37,24.77,34a23.41,23.41,0,0,0-9.25-2.29Zm44.26,0a23.41,23.41,0,0,0-9.25,2.29c-5.9,2.94-9,8.19-10.28,14.39a24.75,24.75,0,0,0,9.21-2.55c5.77-3,9-8,10.33-14.13Z" transform="translate(-0.92)"/><path class="cls-1" d="M121.79,56.65V38.28c0-11-6.6-17.16-14.82-17.16-4.4,0-7.94,1.77-11.49,5.25l-.57-4.75H87.18v35h8.58V38.78c0-5.32,3.62-9.79,8.94-9.79,5.53,0,8.44,4,8.44,9.36v18.3Zm42.12-14.4c1.35-14.4-6-21.63-17.66-21.63-11.35,0-18.58,7.66-18.58,18.3,0,11.21,7.16,18.65,19.22,18.65,5.32,0,11.35-1.84,15-5.67l-5.53-5.46c-2,2.06-6.17,3.26-9.36,3.26-6.1,0-9.86-3.12-10.43-7.45Zm-27.16-7.16c1.28-4.54,5.11-6.81,9.79-6.81,5,0,8.51,2.27,9.08,6.81Zm48.51-1.56-6.88-11.84H168V22l11.49,17-12.2,17.52v.21h10.35L185.23,45l7.59,11.7h10.35v-.21L191,38.92,202.5,22v-.28H192.14l-6.88,11.84Zm25.88-20.78v9h-6.52V29.2h6.52V44.31c0,8.72,5,13,12.55,12.76a19.33,19.33,0,0,0,7.16-1.49l-2.41-7.38a9.88,9.88,0,0,1-4.18,1.06c-2.69,0-4.54-1.63-4.54-5V29.21h9.72V21.76H219.8V11.83l-8.65.92Z" transform="translate(-0.92)"/><path class="cls-1" d="M264.06,25.3c-4-3.55-8.16-4.61-13.62-4.61-6.38,0-14.75,2.84-14.75,10.92S243.56,42,250.16,42.46c5,.28,7,1.28,7,3.69s-3,4.26-6.31,4.18c-3.9-.07-9.57-2.13-12.06-4.89l-4.25,6.17c5.11,5.32,10.64,6.24,16.17,6.24,10,0,15-5.32,15-11.49,0-9.29-8.37-10.78-15-11.2-4.47-.28-6.52-1.56-6.52-3.83s2.27-3.48,6.38-3.48A11.79,11.79,0,0,1,259.17,31L264,25.3Zm41.84,17c1.35-14.4-6-21.63-17.66-21.63-11.35,0-18.58,7.66-18.58,18.3,0,11.21,7.16,18.65,19.22,18.65,5.32,0,11.35-1.84,15-5.67l-5.53-5.46c-2,2.06-6.17,3.26-9.36,3.26-6.1,0-9.86-3.12-10.42-7.45Zm-27.16-7.16c1.28-4.54,5.11-6.81,9.79-6.81,5,0,8.51,2.27,9.08,6.81Zm68.51,7.16c1.35-14.4-6-21.63-17.66-21.63-11.35,0-18.58,7.66-18.58,18.3,0,11.21,7.16,18.65,19.22,18.65,5.32,0,11.35-1.84,15-5.67l-5.53-5.46c-2,2.06-6.17,3.26-9.36,3.26-6.1,0-9.86-3.12-10.43-7.45Zm-27.16-7.16c1.28-4.54,5.11-6.81,9.79-6.81,5,0,8.51,2.27,9.08,6.81Zm50.78-6.17a10.25,10.25,0,0,1,0,20.49c-5.53,0-9.93-4.18-9.93-10.28C360.94,32.82,365.34,28.92,370.87,28.92ZM381.58,7.08V26.44c-2.06-3.62-7.8-5.6-11.49-5.6-10.21,0-17.8,6.24-17.8,18.3,0,11.49,7.73,18.3,18,18.3,4.26,0,8.58-1.42,11.28-5.6l.57,4.82h8.08V7.08Z" transform="translate(-0.92)"/></svg>