<svg xmlns="http://www.w3.org/2000/svg" viewBox="0 0 221 25"><defs><style>.ae9308b3-94b3-4458-b6e4-ca5cd390bf3b{fill:#fff;}.\33 f6f337f-af54-4f5c-8b40-b890a2e27ef9{fill:none;stroke:#fff;stroke-linecap:round;stroke-width:2px;}.f17f2dce-7af9-45b5-800d-f6542ca0c4e8{fill:#00c0ee;}.d0151747-3b98-44e5-99b2-daee7d2e763b{fill:#20c86d;}</style></defs><title>nextseed_and_lendio</title><g id="33e12501-ac17-4ace-b76e-928f4950d83d" data-name="Layer 1"><path class="ae9308b3-94b3-4458-b6e4-ca5cd390bf3b" d="M46.38,14.1a2,2,0,0,0,.54,1.3,3.24,3.24,0,0,0,2.36,1.1,5.7,5.7,0,0,0,2.32-.24,5,5,0,0,0,1.4-.77l1.88,1.78a4.3,4.3,0,0,1-1.43,1.07,8.5,8.5,0,0,1-3,.83,7.89,7.89,0,0,1-3.13-.34,5.34,5.34,0,0,1-3.82-4,6.88,6.88,0,0,1,.23-4.3,5.58,5.58,0,0,1,4-3.42,7,7,0,0,1,1.88-.23,7.52,7.52,0,0,1,2.85.54,5,5,0,0,1,2.91,3.52,8.63,8.63,0,0,1,.24,2.53,3.4,3.4,0,0,1-.09.64H46.38Zm6.35-2.43a2.32,2.32,0,0,0-1.47-1.95,4.19,4.19,0,0,0-1.79-.25,3.76,3.76,0,0,0-1.74.46,2.84,2.84,0,0,0-1.33,1.74Z" transform="translate(0 0)"/><path class="ae9308b3-94b3-4458-b6e4-ca5cd390bf3b" d="M32.4,8.67c.5-.35,1-.71,1.44-1a4.34,4.34,0,0,1,1.91-.61,4.94,4.94,0,0,1,2.19.26,4.42,4.42,0,0,1,2.51,2,6,6,0,0,1,.81,2.73c.13,2.16,0,4.32.07,6.48,0,.32,0,.35-.3.36H38.35v-6.1a4.11,4.11,0,0,0-.16-1.21,2.6,2.6,0,0,0-2.42-1.86,3,3,0,0,0-3.17,2.53,5.76,5.76,0,0,0-.08,1.1V18.9H29.6V7.53c0-.4,0-.42.41-.42h1.9c.33,0,.33,0,.37.34S32.35,8.28,32.4,8.67Z" transform="translate(0 0)"/><path class="ae9308b3-94b3-4458-b6e4-ca5cd390bf3b" d="M56.68,18.85,60.84,13c-1.3-1.89-2.58-3.76-3.93-5.71h3.2a.56.56,0,0,1,.57.33c.62,1.06,1.24,2.1,1.85,3.15.07.13.17.24.26.4.1-.14.18-.24.25-.35.62-1.06,1.25-2.11,1.87-3.18a.58.58,0,0,1,.62-.34h3.18c-1.35,2-2.63,3.82-3.93,5.72l4.16,5.88c-.16,0-.26.05-.36.05H65.71a.53.53,0,0,1-.49-.25c-.72-1.18-1.45-2.3-2.22-3.4,0-.08-.12-.16-.21-.3-.18.25-.33.46-.47.69-.66,1-1.29,2-1.94,3a.43.43,0,0,1-.42.24H57A.89.89,0,0,1,56.68,18.85Z" transform="translate(0 0)"/><path class="ae9308b3-94b3-4458-b6e4-ca5cd390bf3b" d="M71.58,9.72H69.4a8.66,8.66,0,0,1,0-2.49h2.13v-3l2.91-.3a6.73,6.73,0,0,1,0,1.1V7.21h3.24v2.5H74.55v5.16a1.46,1.46,0,0,0,1.39,1.53,1.32,1.32,0,0,0,.48-.06l1.06-.27c.29.75.54,1.56.81,2.38a3.39,3.39,0,0,1-1.23.42,6.31,6.31,0,0,1-1.37.14,4,4,0,0,1-3.1-1.22,3.67,3.67,0,0,1-.88-1.85,6.38,6.38,0,0,1-.1-1.23V10.2A3.87,3.87,0,0,0,71.58,9.72Z" transform="translate(0 0)"/><line class="3f6f337f-af54-4f5c-8b40-b890a2e27ef9" x1="145" y1="16" x2="145" y2="8"/><line class="3f6f337f-af54-4f5c-8b40-b890a2e27ef9" x1="141" y1="12" x2="149" y2="12"/><path class="f17f2dce-7af9-45b5-800d-f6542ca0c4e8" d="M214.92,6.74a6.09,6.09,0,1,0,6.08,6.1h0A6.09,6.09,0,0,0,214.92,6.74Zm0,10.37a4.28,4.28,0,1,1,4.27-4.29h0A4.28,4.28,0,0,1,214.92,17.11Z" transform="translate(0 0)"/><path class="ae9308b3-94b3-4458-b6e4-ca5cd390bf3b" d="M157,2.26a1,1,0,0,0-1,1V17.9a1,1,0,1,0,2.05,0V3.28a1,1,0,0,0-1-1Z" transform="translate(0 0)"/><path class="ae9308b3-94b3-4458-b6e4-ca5cd390bf3b" d="M205.09,6.74a1,1,0,0,0-1,1V17.9a1,1,0,1,0,2,0V7.77a1,1,0,0,0-1-1Z" transform="translate(0 0)"/><path class="ae9308b3-94b3-4458-b6e4-ca5cd390bf3b" d="M166.35,6.74a6.09,6.09,0,0,0,.24,12.18,6,6,0,0,0,4.79-2.36s.23-.29.25-.33,0,0,0-.05a.91.91,0,0,0-.3-1.1.89.89,0,0,0-1.21.15,4.28,4.28,0,0,1-7.72-1.49h9.35a.91.91,0,0,0,.91-.91h0a6.11,6.11,0,0,0-6.13-6.09Zm-3.93,5.18a4.27,4.27,0,0,1,8.34,0Z" transform="translate(0 0)"/><path class="ae9308b3-94b3-4458-b6e4-ca5cd390bf3b" d="M199.61,2.26a.9.9,0,0,0-.91.89h0V8.5a6.09,6.09,0,1,0,0,8.66V18a.91.91,0,0,0,1.81,0V3.16A.9.9,0,0,0,199.61,2.26Zm-5.18,14.85a4.28,4.28,0,1,1,4.27-4.29h0a4.28,4.28,0,0,1-4.27,4.28Z" transform="translate(0 0)"/><path class="ae9308b3-94b3-4458-b6e4-ca5cd390bf3b" d="M180.53,6.74a5,5,0,0,0-3.73,1.5V7.65a.91.91,0,0,0-1.82,0V18a.91.91,0,0,0,1.82,0V12.29a3.71,3.71,0,0,1,3.66-3.76h.07a3.77,3.77,0,0,1,3.77,3.77V18a.9.9,0,0,0,.9.9h0a.9.9,0,0,0,.91-.89h0V12.4C186.11,10.54,184.64,6.74,180.53,6.74Z" transform="translate(0 0)"/><path class="ae9308b3-94b3-4458-b6e4-ca5cd390bf3b" d="M205.09,4.61a1.18,1.18,0,1,0-1.18-1.18h0A1.18,1.18,0,0,0,205.09,4.61Z" transform="translate(0 0)"/></g><g id="2b76ece0-e247-4f13-a9c6-f97fb995dcb8" data-name="Layer 3"><path class="d0151747-3b98-44e5-99b2-daee7d2e763b" d="M20.41,10.58a8.11,8.11,0,0,0-3.16.76,6.46,6.46,0,0,0-3.51,4.79,8.42,8.42,0,0,0,3.14-.85A6.66,6.66,0,0,0,20.41,10.58Zm-15.11,0a6.62,6.62,0,0,0,3.52,4.7,8.48,8.48,0,0,0,3.14.85,6.47,6.47,0,0,0-3.5-4.79A8.15,8.15,0,0,0,5.3,10.58ZM12.83,0A12.68,12.68,0,0,1,25.66,12.51,12.66,12.66,0,0,1,13.61,25V17.66A11,11,0,0,0,17,16.9a8.28,8.28,0,0,0,5.07-7l.11-.78-.8-.08a10.1,10.1,0,0,0-4.29.64,7.59,7.59,0,0,0-4.27,4.1,7.57,7.57,0,0,0-4.26-4.1A10.15,10.15,0,0,0,4.3,9.08l-.81.08.11.78a8.31,8.31,0,0,0,5.08,7,10.94,10.94,0,0,0,3.42.76V25A12.65,12.65,0,0,1,0,12.51,12.67,12.67,0,0,1,12.83,0Z" transform="translate(0 0)"/><path class="d0151747-3b98-44e5-99b2-daee7d2e763b" d="M129.26,2.16v6.4c-.69-1.19-2.63-1.85-3.88-1.85-3.45,0-6,2.07-6,6.06a5.74,5.74,0,0,0,6.09,6.05,4.31,4.31,0,0,0,3.8-1.85l.2,1.6h2.73V2.16Zm-3.61,7.23a3.33,3.33,0,0,1,3.42,3.38,3.39,3.39,0,1,1-6.78,0A3.23,3.23,0,0,1,125.65,9.39Zm-17.16,2a3.18,3.18,0,0,1,3.31-2.25c1.68,0,2.87.75,3.07,2.25Zm9.18,2.37c.45-4.77-2-7.16-6-7.16s-6.28,2.54-6.28,6.06c0,3.71,2.43,6.17,6.5,6.17A7.34,7.34,0,0,0,117,17l-1.87-1.8A5,5,0,0,1,112,16.27c-2.06,0-3.33-1-3.53-2.47ZM94.52,11.43a3.19,3.19,0,0,1,3.31-2.25c1.68,0,2.88.75,3.07,2.25Zm9.18,2.37c.46-4.77-2-7.16-6-7.16s-6.28,2.54-6.28,6.06c0,3.71,2.42,6.17,6.49,6.17A7.34,7.34,0,0,0,103,17l-1.87-1.8A4.93,4.93,0,0,1,98,16.27c-2.06,0-3.33-1-3.52-2.47ZM89.56,8.19A6.43,6.43,0,0,0,85,6.66c-2.15,0-5,.94-5,3.62s2.66,3.43,4.89,3.59c1.68.09,2.35.42,2.35,1.22s-1,1.41-2.14,1.39A6.64,6.64,0,0,1,81,14.86l-1.44,2A7,7,0,0,0,85,19c3.37,0,5.08-1.77,5.08-3.81,0-3.07-2.83-3.57-5.06-3.71-1.51-.09-2.2-.51-2.2-1.27S83.62,9,85,9a4,4,0,0,1,2.93,1Z" transform="translate(0 0)"/></g></svg>