<svg width="644" height="327" viewBox="0 0 644 327" fill="none" xmlns="http://www.w3.org/2000/svg">
<path d="M644 327L0 327L6.20701e-06 256C6.68984e-06 250.477 4.47718 246 10 246L634 246C639.523 246 644 250.477 644 256L644 327Z" fill="url(#paint0_linear)"/>
<rect x="247" y="23" width="205" height="249" rx="5" fill="#87F0BE" stroke="#20C86D" stroke-width="2"/>
<rect x="265" y="40" width="168" height="150" rx="5" fill="#58D692" stroke="#20C86D" stroke-width="2"/>
<rect x="276" y="51" width="145" height="129" rx="5" fill="white" stroke="#20C86D" stroke-width="2"/>
<path d="M277 178L266 189" stroke="#20C86D" stroke-width="2"/>
<path d="M432 41L419 53" stroke="#20C86D" stroke-width="2"/>
<path d="M431 189L419 178" stroke="#20C86D" stroke-width="2"/>
<path d="M278 53L266 42" stroke="#20C86D" stroke-width="2"/>
<rect x="259" y="239" width="16" height="20" rx="4" fill="#00AD5A"/>
<mask id="path-10-inside-1" fill="white">
<path fill-rule="evenodd" clip-rule="evenodd" d="M388 215C386.895 215 386 215.895 386 217V221H342C340.895 221 340 221.895 340 223V231C340 232.105 340.895 233 342 233H386V237C386 238.105 386.895 239 388 239H430C431.105 239 432 238.105 432 237V217C432 215.895 431.105 215 430 215H388Z"/>
</mask>
<path fill-rule="evenodd" clip-rule="evenodd" d="M388 215C386.895 215 386 215.895 386 217V221H342C340.895 221 340 221.895 340 223V231C340 232.105 340.895 233 342 233H386V237C386 238.105 386.895 239 388 239H430C431.105 239 432 238.105 432 237V217C432 215.895 431.105 215 430 215H388Z" fill="#58D692"/>
<path d="M386 221V223H388V221H386ZM386 233H388V231H386V233ZM388 217V217V213C385.791 213 384 214.791 384 217H388ZM388 221V217H384V221H388ZM342 223H386V219H342V223ZM342 223V219C339.791 219 338 220.791 338 223H342ZM342 231V223H338V231H342ZM342 231H342H338C338 233.209 339.791 235 342 235V231ZM386 231H342V235H386V231ZM388 237V233H384V237H388ZM388 237H384C384 239.209 385.791 241 388 241V237ZM430 237H388V241H430V237ZM430 237V241C432.209 241 434 239.209 434 237H430ZM430 217V237H434V217H430ZM430 217H434C434 214.791 432.209 213 430 213V217ZM388 217H430V213H388V217Z" fill="#20C86D" mask="url(#path-10-inside-1)"/>
<rect x="345" y="226" width="50" height="2" rx="1" fill="#00AD5A"/>
<rect x="391" y="222" width="35" height="9" rx="1" fill="#00AD5A"/>
<rect x="216" y="285" width="267" height="25" rx="3" fill="#87F0BE" stroke="#20C86D" stroke-width="2"/>
<path d="M239 285C239 283.895 239.895 283 241 283H251C252.105 283 253 283.895 253 285V289H239V285Z" fill="#87F0BE" stroke="#20C86D" stroke-width="2"/>
<path d="M253 285C253 283.895 253.895 283 255 283H265C266.105 283 267 283.895 267 285V289H253V285Z" fill="#87F0BE" stroke="#20C86D" stroke-width="2"/>
<path d="M267 285C267 283.895 267.895 283 269 283H279C280.105 283 281 283.895 281 285V289H267V285Z" fill="#87F0BE" stroke="#20C86D" stroke-width="2"/>
<path d="M418 285C418 283.895 418.895 283 420 283H430C431.105 283 432 283.895 432 285V289H418V285Z" fill="#87F0BE" stroke="#20C86D" stroke-width="2"/>
<path d="M432 285C432 283.895 432.895 283 434 283H444C445.105 283 446 283.895 446 285V289H432V285Z" fill="#87F0BE" stroke="#20C86D" stroke-width="2"/>
<path d="M446 285C446 283.895 446.895 283 448 283H458C459.105 283 460 283.895 460 285V289H446V285Z" fill="#87F0BE" stroke="#20C86D" stroke-width="2"/>
<path d="M281 285C281 283.895 281.895 283 283 283H416C417.105 283 418 283.895 418 285V289H281V285Z" fill="#87F0BE" stroke="#20C86D" stroke-width="2"/>
<path d="M452 256C469.41 256 514.385 257.604 555.007 264.022C581.605 269.072 614.781 282.739 534.696 297" stroke="#20C86D" stroke-width="2"/>
<rect x="497" y="285" width="47" height="25" rx="3" fill="#87F0BE" stroke="#20C86D" stroke-width="2"/>
<path d="M504 285C504 283.895 504.895 283 506 283H534C535.105 283 536 283.895 536 285V289H504V285Z" fill="#87F0BE" stroke="#20C86D" stroke-width="2"/>
<path d="M329.357 90.2393H324.978V93.5205H330.097V95H323.125V84.3359H330.046V85.8301H324.978V88.7744H329.357V90.2393ZM337.524 90.8911H335.459V95H333.606V84.3359H337.356C338.586 84.3359 339.536 84.6118 340.205 85.1636C340.874 85.7153 341.208 86.5137 341.208 87.5586C341.208 88.2715 341.035 88.8696 340.688 89.353C340.347 89.8315 339.868 90.2002 339.253 90.459L341.648 94.9048V95H339.663L337.524 90.8911ZM335.459 89.4043H337.363C337.988 89.4043 338.477 89.248 338.828 88.9355C339.18 88.6182 339.355 88.186 339.355 87.6392C339.355 87.0679 339.192 86.626 338.865 86.3135C338.542 86.001 338.059 85.8398 337.415 85.8301H335.459V89.4043ZM348.885 90.8911H346.819V95H344.966V84.3359H348.716C349.947 84.3359 350.896 84.6118 351.565 85.1636C352.234 85.7153 352.569 86.5137 352.569 87.5586C352.569 88.2715 352.396 88.8696 352.049 89.353C351.707 89.8315 351.229 90.2002 350.613 90.459L353.008 94.9048V95H351.023L348.885 90.8911ZM346.819 89.4043H348.724C349.349 89.4043 349.837 89.248 350.188 88.9355C350.54 88.6182 350.716 88.186 350.716 87.6392C350.716 87.0679 350.552 86.626 350.225 86.3135C349.903 86.001 349.419 85.8398 348.775 85.8301H346.819V89.4043ZM364.837 89.9463C364.837 90.9912 364.657 91.9092 364.295 92.7002C363.934 93.4863 363.417 94.0918 362.743 94.5166C362.074 94.9365 361.302 95.1465 360.428 95.1465C359.564 95.1465 358.792 94.9365 358.114 94.5166C357.44 94.0918 356.917 93.4888 356.546 92.7075C356.18 91.9263 355.995 91.0254 355.99 90.0049V89.4043C355.99 88.3643 356.173 87.4463 356.539 86.6504C356.91 85.8545 357.43 85.2466 358.099 84.8267C358.773 84.4019 359.544 84.1895 360.414 84.1895C361.283 84.1895 362.052 84.3994 362.721 84.8193C363.395 85.2344 363.915 85.835 364.281 86.6211C364.647 87.4023 364.833 88.313 364.837 89.353V89.9463ZM362.984 89.3896C362.984 88.208 362.76 87.3022 362.311 86.6724C361.866 86.0425 361.234 85.7275 360.414 85.7275C359.613 85.7275 358.985 86.0425 358.531 86.6724C358.082 87.2974 357.853 88.1836 357.843 89.3311V89.9463C357.843 91.1182 358.07 92.0239 358.524 92.6636C358.983 93.3032 359.618 93.623 360.428 93.623C361.249 93.623 361.878 93.3105 362.318 92.6855C362.762 92.0605 362.984 91.1475 362.984 89.9463V89.3896ZM372.602 90.8911H370.536V95H368.683V84.3359H372.433C373.664 84.3359 374.613 84.6118 375.282 85.1636C375.951 85.7153 376.286 86.5137 376.286 87.5586C376.286 88.2715 376.112 88.8696 375.766 89.353C375.424 89.8315 374.945 90.2002 374.33 90.459L376.725 94.9048V95H374.74L372.602 90.8911ZM370.536 89.4043H372.44C373.065 89.4043 373.554 89.248 373.905 88.9355C374.257 88.6182 374.433 88.186 374.433 87.6392C374.433 87.0679 374.269 86.626 373.942 86.3135C373.62 86.001 373.136 85.8398 372.492 85.8301H370.536V89.4043Z" fill="#31333D"/>
<path d="M329.082 134.863H332.617V138.672H329.082V145H324.336V138.672H312.051L311.914 135.781L324.18 116.563H329.082V134.863ZM316.895 134.863H324.336V122.988L323.984 123.613L316.895 134.863ZM357.297 133.027C357.297 137.116 356.529 140.202 354.992 142.285C353.469 144.355 351.145 145.391 348.02 145.391C344.947 145.391 342.629 144.382 341.066 142.363C339.517 140.332 338.723 137.331 338.684 133.359V128.438C338.684 124.349 339.445 121.283 340.969 119.238C342.505 117.194 344.842 116.172 347.98 116.172C351.092 116.172 353.41 117.168 354.934 119.16C356.47 121.152 357.258 124.134 357.297 128.105V133.027ZM352.551 127.715C352.551 125.046 352.186 123.092 351.457 121.855C350.728 120.605 349.569 119.98 347.98 119.98C346.431 119.98 345.292 120.573 344.562 121.758C343.833 122.93 343.449 124.766 343.41 127.266V133.711C343.41 136.367 343.781 138.346 344.523 139.648C345.266 140.951 346.431 141.602 348.02 141.602C349.543 141.602 350.669 141.003 351.398 139.805C352.128 138.594 352.512 136.706 352.551 134.141V127.715ZM380.551 134.863H384.086V138.672H380.551V145H375.805V138.672H363.52L363.383 135.781L375.648 116.563H380.551V134.863ZM368.363 134.863H375.805V122.988L375.453 123.613L368.363 134.863Z" fill="#31333D"/>
<circle cx="116" cy="77" r="77" fill="#E6E6E8"/>
<line x1="128.341" y1="35.2646" x2="116.964" y2="76.7321" stroke="#676A73" stroke-width="2"/>
<line x1="138.218" y1="87.2614" x2="116.568" y2="76.9033" stroke="#676A73" stroke-width="2"/>
<circle cx="116" cy="77" r="4" fill="#676A73"/>
<path d="M111.505 208.05C118.926 178.198 147.225 118.496 201.058 118.496" stroke="#20C86D" stroke-width="2"/>
<path d="M105.939 207.545C100.405 186.295 79.8066 145.312 39.6597 145.312" stroke="#20C86D" stroke-width="2"/>
<mask id="path-33-inside-2" fill="white">
<path fill-rule="evenodd" clip-rule="evenodd" d="M154.997 191.942C148.989 195.247 141.437 195.374 135.116 191.616C128.796 187.858 125.3 181.162 125.335 174.305C131.343 170.999 138.895 170.872 145.216 174.631C151.536 178.389 155.032 185.084 154.997 191.942Z"/>
</mask>
<path fill-rule="evenodd" clip-rule="evenodd" d="M154.997 191.942C148.989 195.247 141.437 195.374 135.116 191.616C128.796 187.858 125.3 181.162 125.335 174.305C131.343 170.999 138.895 170.872 145.216 174.631C151.536 178.389 155.032 185.084 154.997 191.942Z" fill="#87F0BE"/>
<path d="M154.997 191.942L155.961 193.694L156.991 193.127L156.997 191.952L154.997 191.942ZM125.335 174.305L124.371 172.553L123.341 173.119L123.335 174.295L125.335 174.305ZM154.033 190.189C148.62 193.168 141.825 193.278 136.138 189.897L134.094 193.335C141.049 197.47 149.358 197.327 155.961 193.694L154.033 190.189ZM136.138 189.897C130.452 186.516 127.304 180.493 127.335 174.315L123.335 174.295C123.297 181.832 127.139 189.2 134.094 193.335L136.138 189.897ZM126.299 176.057C131.712 173.079 138.508 172.968 144.194 176.35L146.238 172.912C139.283 168.776 130.975 168.919 124.371 172.553L126.299 176.057ZM144.194 176.35C149.88 179.731 153.029 185.754 152.997 191.931L156.997 191.952C157.035 184.415 153.193 177.047 146.238 172.912L144.194 176.35Z" fill="#20C86D" mask="url(#path-33-inside-2)"/>
<mask id="path-35-inside-3" fill="white">
<path fill-rule="evenodd" clip-rule="evenodd" d="M85.6503 169.385C92.3139 171.006 99.6367 169.153 104.755 163.874C109.873 158.594 111.497 151.218 109.671 144.608C103.007 142.988 95.6845 144.84 90.5661 150.12C85.448 155.399 83.8243 162.775 85.6503 169.385Z"/>
</mask>
<path fill-rule="evenodd" clip-rule="evenodd" d="M85.6503 169.385C92.3139 171.006 99.6367 169.153 104.755 163.874C109.873 158.594 111.497 151.218 109.671 144.608C103.007 142.988 95.6845 144.84 90.5661 150.12C85.448 155.399 83.8243 162.775 85.6503 169.385Z" fill="#87F0BE"/>
<path d="M85.6503 169.385L83.7225 169.918L84.0355 171.051L85.1777 171.329L85.6503 169.385ZM109.671 144.608L111.599 144.075L111.286 142.942L110.143 142.665L109.671 144.608ZM103.319 162.481C98.7142 167.232 92.126 168.902 86.1228 167.442L85.1777 171.329C92.5018 173.109 100.559 171.075 106.191 165.266L103.319 162.481ZM107.743 145.141C109.388 151.095 107.924 157.732 103.319 162.481L106.191 165.266C111.823 159.456 113.606 151.34 111.599 144.075L107.743 145.141ZM92.0021 151.512C96.6069 146.762 103.195 145.092 109.198 146.551L110.143 142.665C102.819 140.884 94.762 142.918 89.1301 148.728L92.0021 151.512ZM87.5781 168.853C85.933 162.898 87.3976 156.262 92.0021 151.512L89.1301 148.728C83.4985 154.537 81.7155 162.653 83.7225 169.918L87.5781 168.853Z" fill="#20C86D" mask="url(#path-35-inside-3)"/>
<mask id="path-37-inside-4" fill="white">
<path fill-rule="evenodd" clip-rule="evenodd" d="M61.6441 194.023C68.3221 195.585 75.6283 193.667 80.6995 188.342C85.7703 183.017 87.3282 175.626 85.4432 169.033C78.7652 167.472 71.459 169.389 66.3878 174.715C61.3171 180.04 59.7592 187.43 61.6441 194.023Z"/>
</mask>
<path fill-rule="evenodd" clip-rule="evenodd" d="M61.6441 194.023C68.3221 195.585 75.6283 193.667 80.6995 188.342C85.7703 183.017 87.3282 175.626 85.4432 169.033C78.7652 167.472 71.459 169.389 66.3878 174.715C61.3171 180.04 59.7592 187.43 61.6441 194.023Z" fill="#87F0BE"/>
<path d="M61.6441 194.023L59.7212 194.573L60.0443 195.703L61.1889 195.971L61.6441 194.023ZM85.4432 169.033L87.3662 168.483L87.0431 167.353L85.8985 167.086L85.4432 169.033ZM79.2511 186.963C74.6888 191.754 68.1155 193.482 62.0994 192.076L61.1889 195.971C68.5287 197.687 76.5679 195.581 82.1479 189.721L79.2511 186.963ZM83.5203 169.583C85.2184 175.523 83.8131 182.172 79.2511 186.963L82.1479 189.721C87.7274 183.862 89.438 175.73 87.3662 168.483L83.5203 169.583ZM67.8362 176.094C72.3986 171.303 78.9719 169.574 84.988 170.981L85.8985 167.086C78.5586 165.37 70.5195 167.476 64.9394 173.336L67.8362 176.094ZM63.5671 193.474C61.869 187.534 63.2742 180.885 67.8362 176.094L64.9394 173.336C59.3599 179.195 57.6494 187.327 59.7212 194.573L63.5671 193.474Z" fill="#20C86D" mask="url(#path-37-inside-4)"/>
<mask id="path-39-inside-5" fill="white">
<path fill-rule="evenodd" clip-rule="evenodd" d="M69.3809 153.157C76.2256 153.589 83.1132 150.487 87.2313 144.394C91.3484 138.303 91.6598 130.758 88.7091 124.569C81.8644 124.137 74.9768 127.239 70.8586 133.332C66.7416 139.423 66.4302 146.968 69.3809 153.157Z"/>
</mask>
<path fill-rule="evenodd" clip-rule="evenodd" d="M69.3809 153.157C76.2256 153.589 83.1132 150.487 87.2313 144.394C91.3484 138.303 91.6598 130.758 88.7091 124.569C81.8644 124.137 74.9768 127.239 70.8586 133.332C66.7416 139.423 66.4302 146.968 69.3809 153.157Z" fill="#87F0BE"/>
<path d="M69.3809 153.157L67.5756 154.018L68.0815 155.079L69.2548 155.153L69.3809 153.157ZM88.7091 124.569L90.5144 123.708L90.0084 122.647L88.8352 122.573L88.7091 124.569ZM85.5743 143.274C81.8693 148.756 75.6733 151.551 69.507 151.161L69.2548 155.153C76.7779 155.628 84.357 152.219 88.8883 145.514L85.5743 143.274ZM86.9037 125.43C89.562 131.005 89.2783 137.794 85.5743 143.274L88.8883 145.514C93.4185 138.812 93.7576 130.511 90.5144 123.708L86.9037 125.43ZM72.5156 134.452C76.2206 128.97 82.4167 126.175 88.5829 126.565L88.8352 122.573C81.3121 122.098 73.733 125.507 69.2016 132.212L72.5156 134.452ZM71.1862 152.296C68.528 146.721 68.8117 139.932 72.5156 134.452L69.2016 132.212C64.6715 138.914 64.3324 147.215 67.5756 154.018L71.1862 152.296Z" fill="#20C86D" mask="url(#path-39-inside-5)"/>
<mask id="path-41-inside-6" fill="white">
<path fill-rule="evenodd" clip-rule="evenodd" d="M44.7445 178.631C51.3161 180.591 58.7243 179.118 64.1071 174.108C69.4899 169.098 71.4905 161.815 70.0062 155.12C63.4347 153.159 56.0265 154.632 50.6436 159.642C45.2608 164.652 43.2602 171.936 44.7445 178.631Z"/>
</mask>
<path fill-rule="evenodd" clip-rule="evenodd" d="M44.7445 178.631C51.3161 180.591 58.7243 179.118 64.1071 174.108C69.4899 169.098 71.4905 161.815 70.0062 155.12C63.4347 153.159 56.0265 154.632 50.6436 159.642C45.2608 164.652 43.2602 171.936 44.7445 178.631Z" fill="#87F0BE"/>
<path d="M44.7445 178.631L42.792 179.064L43.0464 180.211L44.1728 180.547L44.7445 178.631ZM70.0062 155.12L71.9588 154.687L71.7044 153.539L70.578 153.203L70.0062 155.12ZM62.7446 172.644C57.9018 177.151 51.2365 178.48 45.3163 176.714L44.1728 180.547C51.3956 182.702 59.5467 181.085 65.4697 175.572L62.7446 172.644ZM68.0536 155.553C69.3908 161.584 67.5873 168.137 62.7446 172.644L65.4697 175.572C71.3926 170.059 73.5902 162.045 71.9588 154.687L68.0536 155.553ZM52.0062 161.106C56.849 156.599 63.5143 155.27 69.4344 157.036L70.578 153.203C63.3551 151.048 55.204 152.666 49.281 158.178L52.0062 161.106ZM46.6971 178.198C45.3599 172.166 47.1635 165.614 52.0062 161.106L49.281 158.178C43.3582 163.691 41.1605 171.705 42.792 179.064L46.6971 178.198Z" fill="#20C86D" mask="url(#path-41-inside-6)"/>
<mask id="path-43-inside-7" fill="white">
<path fill-rule="evenodd" clip-rule="evenodd" d="M140.325 150.745C138.712 157.411 140.573 164.732 145.86 169.845C151.146 174.956 158.524 176.571 165.132 174.737C166.745 168.071 164.884 160.749 159.598 155.637C154.312 150.525 146.933 148.91 140.325 150.745Z"/>
</mask>
<path fill-rule="evenodd" clip-rule="evenodd" d="M140.325 150.745C138.712 157.411 140.573 164.732 145.86 169.845C151.146 174.956 158.524 176.571 165.132 174.737C166.745 168.071 164.884 160.749 159.598 155.637C154.312 150.525 146.933 148.91 140.325 150.745Z" fill="#87F0BE"/>
<path d="M140.325 150.745L139.79 148.817L138.658 149.132L138.382 150.274L140.325 150.745ZM165.132 174.737L165.667 176.664L166.799 176.35L167.076 175.207L165.132 174.737ZM147.25 168.407C142.494 163.807 140.816 157.22 142.269 151.215L138.382 150.274C136.608 157.601 138.652 165.657 144.469 171.282L147.25 168.407ZM164.597 172.81C158.644 174.462 152.006 173.006 147.25 168.407L144.469 171.282C150.286 176.907 158.404 178.68 165.667 176.664L164.597 172.81ZM158.207 157.075C162.963 161.674 164.641 168.261 163.188 174.267L167.076 175.207C168.849 167.881 166.805 159.825 160.988 154.199L158.207 157.075ZM140.86 152.672C146.813 151.019 153.452 152.476 158.207 157.075L160.988 154.199C155.172 148.574 147.053 146.801 139.79 148.817L140.86 152.672Z" fill="#20C86D" mask="url(#path-43-inside-7)"/>
<mask id="path-45-inside-8" fill="white">
<path fill-rule="evenodd" clip-rule="evenodd" d="M117.151 123.572C123.928 122.518 131.069 124.98 135.725 130.672C140.381 136.363 141.378 143.85 139.002 150.283C132.226 151.337 125.085 148.875 120.429 143.183C115.773 137.492 114.776 130.005 117.151 123.572Z"/>
</mask>
<path fill-rule="evenodd" clip-rule="evenodd" d="M117.151 123.572C123.928 122.518 131.069 124.98 135.725 130.672C140.381 136.363 141.378 143.85 139.002 150.283C132.226 151.337 125.085 148.875 120.429 143.183C115.773 137.492 114.776 130.005 117.151 123.572Z" fill="#87F0BE"/>
<path d="M117.151 123.572L116.844 121.596L115.682 121.777L115.275 122.88L117.151 123.572ZM139.002 150.283L139.31 152.259L140.471 152.078L140.878 150.976L139.002 150.283ZM117.459 125.549C123.563 124.599 129.988 126.817 134.177 131.938L137.273 129.405C132.15 123.142 124.292 120.438 116.844 121.596L117.459 125.549ZM134.177 131.938C138.365 137.059 139.266 143.795 137.126 149.59L140.878 150.976C143.49 143.905 142.396 135.668 137.273 129.405L134.177 131.938ZM138.695 148.307C132.59 149.256 126.166 147.038 121.977 141.917L118.881 144.45C124.004 150.713 131.862 153.418 139.31 152.259L138.695 148.307ZM121.977 141.917C117.788 136.797 116.887 130.06 119.027 124.265L115.275 122.88C112.664 129.95 113.758 138.187 118.881 144.45L121.977 141.917Z" fill="#20C86D" mask="url(#path-45-inside-8)"/>
<mask id="path-47-inside-9" fill="white">
<path fill-rule="evenodd" clip-rule="evenodd" d="M158.131 133.528C156.447 140.177 158.23 147.517 163.461 152.686C168.692 157.854 176.053 159.547 182.68 157.784C184.364 151.135 182.581 143.795 177.35 138.627C172.119 133.459 164.758 131.765 158.131 133.528Z"/>
</mask>
<path fill-rule="evenodd" clip-rule="evenodd" d="M158.131 133.528C156.447 140.177 158.23 147.517 163.461 152.686C168.692 157.854 176.053 159.547 182.68 157.784C184.364 151.135 182.581 143.795 177.35 138.627C172.119 133.459 164.758 131.765 158.131 133.528Z" fill="#87F0BE"/>
<path d="M158.131 133.528L157.617 131.596L156.481 131.898L156.193 133.037L158.131 133.528ZM182.68 157.784L183.194 159.716L184.33 159.414L184.619 158.275L182.68 157.784ZM164.867 151.263C160.16 146.613 158.553 140.009 160.07 134.019L156.193 133.037C154.342 140.345 156.299 148.421 162.056 154.108L164.867 151.263ZM182.166 155.851C176.195 157.44 169.573 155.912 164.867 151.263L162.056 154.108C167.812 159.795 175.91 161.655 183.194 159.716L182.166 155.851ZM175.944 140.049C180.651 144.699 182.258 151.303 180.741 157.293L184.619 158.275C186.469 150.968 184.512 142.891 178.755 137.204L175.944 140.049ZM158.646 135.461C164.616 133.872 171.238 135.4 175.944 140.049L178.755 137.204C173 131.517 164.901 129.657 157.617 131.596L158.646 135.461Z" fill="#20C86D" mask="url(#path-47-inside-9)"/>
<mask id="path-49-inside-10" fill="white">
<path fill-rule="evenodd" clip-rule="evenodd" d="M141.608 102.419C148.451 102.883 154.875 106.857 158.163 113.434C161.451 120.011 160.775 127.533 157.042 133.284C150.2 132.82 143.776 128.846 140.487 122.269C137.2 115.692 137.875 108.17 141.608 102.419Z"/>
</mask>
<path fill-rule="evenodd" clip-rule="evenodd" d="M141.608 102.419C148.451 102.883 154.875 106.857 158.163 113.434C161.451 120.011 160.775 127.533 157.042 133.284C150.2 132.82 143.776 128.846 140.487 122.269C137.2 115.692 137.875 108.17 141.608 102.419Z" fill="#87F0BE"/>
<path d="M141.608 102.419L141.744 100.423L140.571 100.344L139.931 101.33L141.608 102.419ZM157.042 133.284L156.907 135.28L158.08 135.359L158.72 134.373L157.042 133.284ZM141.473 104.414C147.637 104.832 153.416 108.411 156.374 114.329L159.952 112.54C156.334 105.302 149.264 100.933 141.744 100.423L141.473 104.414ZM156.374 114.329C159.332 120.245 158.728 127.014 155.364 132.195L158.72 134.373C162.823 128.052 163.57 119.776 159.952 112.54L156.374 114.329ZM157.177 131.289C151.013 130.871 145.235 127.292 142.276 121.374L138.698 123.163C142.317 130.401 149.386 134.77 156.907 135.28L157.177 131.289ZM142.276 121.374C139.318 115.457 139.923 108.689 143.286 103.508L139.931 101.33C135.828 107.651 135.081 115.926 138.698 123.163L142.276 121.374Z" fill="#20C86D" mask="url(#path-49-inside-10)"/>
<mask id="path-51-inside-11" fill="white">
<path fill-rule="evenodd" clip-rule="evenodd" d="M173.181 124.12C175.053 117.522 180.272 112.061 187.389 110.208C194.506 108.355 201.726 110.576 206.578 115.422C204.706 122.02 199.486 127.482 192.369 129.335C185.253 131.188 178.033 128.967 173.181 124.12Z"/>
</mask>
<path fill-rule="evenodd" clip-rule="evenodd" d="M173.181 124.12C175.053 117.522 180.272 112.061 187.389 110.208C194.506 108.355 201.726 110.576 206.578 115.422C204.706 122.02 199.486 127.482 192.369 129.335C185.253 131.188 178.033 128.967 173.181 124.12Z" fill="#87F0BE"/>
<path d="M173.181 124.12L171.257 123.575L170.936 124.705L171.767 125.536L173.181 124.12ZM206.578 115.422L208.502 115.968L208.823 114.838L207.991 114.007L206.578 115.422ZM175.105 124.666C176.791 118.722 181.49 113.811 187.893 112.143L186.885 108.272C179.054 110.312 173.314 116.322 171.257 123.575L175.105 124.666ZM187.893 112.143C194.296 110.476 200.793 112.471 205.165 116.837L207.991 114.007C202.658 108.68 194.716 106.233 186.885 108.272L187.893 112.143ZM204.654 114.876C202.968 120.82 198.268 125.732 191.865 127.399L192.873 131.27C200.705 129.231 206.445 123.22 208.502 115.968L204.654 114.876ZM191.865 127.399C185.463 129.067 178.965 127.071 174.594 122.705L171.767 125.536C177.101 130.862 185.043 133.309 192.873 131.27L191.865 127.399Z" fill="#20C86D" mask="url(#path-51-inside-11)"/>
<mask id="path-53-inside-12" fill="white">
<path fill-rule="evenodd" clip-rule="evenodd" d="M22.888 144.071C26.8801 138.495 33.6371 135.121 40.9606 135.782C48.2836 136.442 54.327 140.971 57.2568 147.171C53.2647 152.747 46.5077 156.121 39.1842 155.461C31.8612 154.8 25.8177 150.271 22.888 144.071Z"/>
</mask>
<path fill-rule="evenodd" clip-rule="evenodd" d="M22.888 144.071C26.8801 138.495 33.6371 135.121 40.9606 135.782C48.2836 136.442 54.327 140.971 57.2568 147.171C53.2647 152.747 46.5077 156.121 39.1842 155.461C31.8612 154.8 25.8177 150.271 22.888 144.071Z" fill="#87F0BE"/>
<path d="M22.888 144.071L21.2619 142.907L20.5775 143.863L21.0798 144.926L22.888 144.071ZM57.2568 147.171L58.8829 148.335L59.5673 147.379L59.065 146.317L57.2568 147.171ZM24.5142 145.235C28.1106 140.212 34.1921 137.179 40.7808 137.773L41.1403 133.79C33.082 133.063 25.6496 136.779 21.2619 142.907L24.5142 145.235ZM40.7808 137.773C47.3691 138.368 52.8092 142.44 55.4485 148.026L59.065 146.317C55.8449 139.502 49.198 134.517 41.1403 133.79L40.7808 137.773ZM55.6306 146.007C52.0342 151.03 45.9526 154.063 39.364 153.469L39.0045 157.453C47.0628 158.18 54.4952 154.464 58.8829 148.335L55.6306 146.007ZM39.364 153.469C32.7757 152.874 27.3356 148.802 24.6963 143.217L21.0798 144.926C24.2999 151.74 30.9467 156.726 39.0045 157.453L39.364 153.469Z" fill="#20C86D" mask="url(#path-53-inside-12)"/>
<mask id="path-55-inside-13" fill="white">
<path fill-rule="evenodd" clip-rule="evenodd" d="M124.213 174.644C124.763 167.808 121.78 160.869 115.76 156.647C109.739 152.424 102.199 151.983 95.9595 154.828C95.4097 161.664 98.3926 168.603 104.413 172.826C110.433 177.048 117.973 177.489 124.213 174.644Z"/>
</mask>
<path fill-rule="evenodd" clip-rule="evenodd" d="M124.213 174.644C124.763 167.808 121.78 160.869 115.76 156.647C109.739 152.424 102.199 151.983 95.9595 154.828C95.4097 161.664 98.3926 168.603 104.413 172.826C110.433 177.048 117.973 177.489 124.213 174.644Z" fill="#87F0BE"/>
<path d="M124.213 174.644L125.043 176.463L126.112 175.976L126.207 174.804L124.213 174.644ZM95.9595 154.828L95.1297 153.009L94.0602 153.496L93.966 154.668L95.9595 154.828ZM114.611 158.284C120.028 162.083 122.715 168.325 122.219 174.483L126.207 174.804C126.811 167.291 123.532 159.655 116.908 155.009L114.611 158.284ZM96.7893 156.648C102.41 154.085 109.195 154.485 114.611 158.284L116.908 155.009C110.284 150.363 101.988 149.882 95.1297 153.009L96.7893 156.648ZM105.561 171.188C100.145 167.389 97.4577 161.147 97.9531 154.989L93.966 154.668C93.3616 162.181 96.6401 169.817 103.265 174.463L105.561 171.188ZM123.383 172.824C117.762 175.387 110.978 174.987 105.561 171.188L103.265 174.463C109.889 179.109 118.185 179.59 125.043 176.463L123.383 172.824Z" fill="#20C86D" mask="url(#path-55-inside-13)"/>
<path d="M76.9612 211.783C76.4981 208.195 79.2933 205.016 82.9118 205.016H135.94C139.597 205.016 142.403 208.259 141.878 211.878L133.766 267.754H84.1831L76.9612 211.783Z" fill="#676A73"/>
<defs>
<linearGradient id="paint0_linear" x1="322" y1="327" x2="322" y2="151.358" gradientUnits="userSpaceOnUse">
<stop stop-color="#C4C4C4" stop-opacity="0"/>
<stop offset="1" stop-color="#F9FCFD"/>
</linearGradient>
</defs>
</svg>
