<svg width="212" height="212" viewBox="0 0 212 212" version="1.1" xmlns="http://www.w3.org/2000/svg" xmlns:xlink="http://www.w3.org/1999/xlink">
<title>Group</title>
<desc>Created using Figma</desc>
<g id="Canvas" transform="matrix(4 0 0 4 7060 -9796)">
<g id="Group">
<g id="Vector">
<use xlink:href="#path0_fill" transform="translate(-1765 2449)" fill="#98CE23"/>
</g>
<g id="Vector">
<use xlink:href="#path1_fill" transform="translate(-1753.77 2471.88)" fill="#98CE23"/>
</g>
<g id="Vector">
<use xlink:href="#path2_fill" transform="translate(-1735.94 2471.88)" fill="#98CE23"/>
</g>
</g>
</g>
<defs>
<path id="path0_fill" d="M 28.4163 52.9968C 28.4163 47.981 28.4163 42.9651 28.4163 37.9492C 34.5072 36.8588 39.9455 34.8961 43.2084 29.4441C 44.7312 26.8271 46.2539 21.8112 45.8188 19.1942C 37.5526 18.3219 31.0267 20.9389 26.676 28.5717C 22.1079 20.9389 15.5819 18.3219 7.09819 19.1942C 7.53325 24.2101 9.05597 28.3537 12.3189 32.061C 15.5819 35.7684 20.1501 36.8588 24.7182 37.7312C 24.7182 42.747 24.7182 47.7629 24.7182 52.5607C 15.3644 53.8692 1.44237 44.4917 0.137177 29.6621C -1.38554 13.7422 9.9261 0.221173 26.241 0.00309213C 40.8156 -0.214989 52.9974 11.1252 52.9974 26.8271C 53.2149 42.0928 39.9455 53.2149 28.4163 52.9968Z"/>
<path id="path1_fill" d="M 13.0519 10.9269C 6.96101 11.3631 1.52272 6.78337 -4.14909e-07 0.0228453C 6.52595 -0.413317 12.6168 5.47488 13.0519 10.9269Z"/>
<path id="path2_fill" d="M 13.0575 0.0200946C 11.5348 6.78061 5.87901 11.5784 0.00565204 10.9242C -0.21188 6.34445 5.87901 -0.416068 13.0575 0.0200946Z"/>
</defs>
</svg>
