<svg width="200" height="49" viewBox="0 0 200 49" fill="none" xmlns="http://www.w3.org/2000/svg">
<path fill-rule="evenodd" clip-rule="evenodd" d="M24.2607 0C37.6698 0 48.5214 10.8694 48.5214 24.2785C48.5214 37.1903 38.4513 47.7577 25.7348 48.5214V34.2776C27.9194 34.1533 30.2993 33.6027 32.1996 32.8035C37.9895 30.3348 40.9733 25.3796 41.808 19.2878L42.0211 17.7782L40.4937 17.6361C37.9362 17.3874 34.7749 17.9203 32.3772 18.8793C28.4344 20.4778 25.8236 23.3017 24.314 26.8182C22.7866 23.3017 20.1936 20.4778 16.2508 18.8793C13.8709 17.9203 10.7095 17.3874 8.13427 17.6361L6.60687 17.7782L6.82 19.2878C7.63698 25.3796 10.6385 30.3348 16.4284 32.8035C18.3287 33.6027 20.7086 34.171 22.8932 34.2776V48.5214C10.1234 47.811 0 37.2258 0 24.2785C0 10.8694 10.8694 0 24.2607 0ZM9.99911 20.531C10.8694 24.4916 12.9473 27.7418 16.677 29.6599C18.4708 30.5834 20.5843 31.1518 22.6268 31.3116C21.8098 27.2977 19.8029 23.9055 15.9844 22.0051C14.1906 21.1171 12.0416 20.6198 9.99911 20.531ZM38.6111 20.531C36.5687 20.6198 34.4197 21.1171 32.6259 22.0051C28.8074 23.9055 26.8005 27.2977 25.9835 31.3116C28.0259 31.1518 30.1572 30.5834 31.9332 29.6599C35.6629 27.7418 37.7409 24.4916 38.6111 20.531Z" fill="#1781FB"/>
<path d="M72.4801 25.0213V16.3009C72.4801 11.0794 69.3543 8.1489 65.447 8.1489C63.3513 8.1489 61.6818 8.98364 59.9946 10.6354L59.7282 8.37979H56.0518V25.0213H60.1367V16.5318C60.1367 14.0098 61.8594 11.8786 64.3814 11.8786C67.0099 11.8786 68.3952 13.7967 68.3952 16.3187V25.0035H72.4801V25.0213ZM92.4961 18.1835C93.1355 11.3458 89.6722 7.91802 84.1132 7.91802C78.7318 7.91802 75.2863 11.5589 75.2863 16.6029C75.2863 21.931 78.6963 25.4653 84.4151 25.4653C86.9371 25.4653 89.7965 24.595 91.5548 22.7657L88.9263 20.1727C87.985 21.1495 85.9958 21.7179 84.4862 21.7179C81.5912 21.7179 79.7974 20.2437 79.531 18.1835H92.4961ZM79.6021 14.7735C80.2059 12.6245 82.0352 11.5411 84.2553 11.5411C86.6174 11.5411 88.3047 12.6245 88.5711 14.7735H79.6021ZM101.678 14.0454L98.4103 8.41531H93.4907V8.55739L98.9431 16.6029L93.1532 24.9325V25.0391H98.0729L101.678 19.48L105.284 25.0391H110.203V24.9325L104.413 16.6029L109.866 8.55739V8.41531H104.946L101.678 14.0454ZM114.927 4.17057V8.45083H111.819V11.9852H114.927V19.1604C114.927 23.2985 117.29 25.3587 120.895 25.2167C122.138 25.1811 123.115 24.9858 124.305 24.5062L123.168 21.0074C122.564 21.3094 121.819 21.5047 121.179 21.5047C119.9 21.5047 119.03 20.7233 119.03 19.1426V11.9852H123.648V8.45083H119.066V3.72656L114.927 4.17057Z" fill="#5E6E8B"/>
<path d="M140.077 10.1397C138.159 8.4525 136.205 7.95521 133.612 7.95521C130.575 7.95521 126.597 9.305 126.597 13.1412C126.597 16.9065 130.344 18.0609 133.47 18.2918C135.832 18.4338 136.773 18.8956 136.773 20.05C136.773 21.2578 135.317 22.0747 133.772 22.0392C131.925 22.0037 129.225 21.0269 128.053 19.7126L126.028 22.6431C128.461 25.165 131.09 25.6091 133.701 25.6091C138.443 25.6091 140.841 23.0871 140.841 20.1566C140.841 15.752 136.862 15.0416 133.736 14.8285C131.623 14.6864 130.646 14.0825 130.646 13.0169C130.646 11.9691 131.729 11.3652 133.683 11.3652C135.264 11.3652 136.614 11.7382 137.786 12.8393L140.077 10.1397ZM159.951 18.1852C160.59 11.3474 157.127 7.91968 151.568 7.91968C146.186 7.91968 142.741 11.5606 142.741 16.6045C142.741 21.9326 146.151 25.467 151.87 25.467C154.392 25.467 157.251 24.5967 159.009 22.7674L156.381 20.1744C155.44 21.1512 153.45 21.7195 151.941 21.7195C149.046 21.7195 147.252 20.2454 146.986 18.1852H159.951ZM147.039 14.7752C147.643 12.6262 149.472 11.5428 151.692 11.5428C154.054 11.5428 155.741 12.6262 156.008 14.7752H147.039ZM179.576 18.1852C180.215 11.3474 176.752 7.91968 171.193 7.91968C165.794 7.91968 162.366 11.5606 162.366 16.6045C162.366 21.9326 165.776 25.467 171.495 25.467C174.017 25.467 176.876 24.5967 178.635 22.7674L176.006 20.1744C175.065 21.1512 173.076 21.7195 171.566 21.7195C168.671 21.7195 166.877 20.2454 166.611 18.1852H179.576ZM166.682 14.7752C167.286 12.6262 169.115 11.5428 171.335 11.5428C173.697 11.5428 175.384 12.6262 175.651 14.7752H166.682ZM190.801 11.8447C193.394 11.8447 195.614 13.7984 195.614 16.6933C195.614 19.6948 193.394 21.5774 190.801 21.5774C188.172 21.5774 186.076 19.5883 186.076 16.6933C186.076 13.7096 188.172 11.8447 190.801 11.8447ZM195.88 1.47266V10.6725C194.903 8.94979 192.168 8.00849 190.428 8.00849C185.579 8.00849 181.974 10.9745 181.974 16.6933C181.974 22.1458 185.65 25.3782 190.534 25.3782C192.559 25.3782 194.619 24.7033 195.898 22.7141L196.164 25.0052H200V1.47266H195.88Z" fill="#5E6E8B"/>
<path d="M58.1828 37.1369V37.9361C58.1828 38.6288 59.0531 39.0373 60.0654 39.0373C61.1488 39.0373 61.9303 38.5755 61.9303 37.7053C61.9303 36.6219 60.7048 36.2667 59.4616 35.7871C58.023 35.2366 56.6199 34.5972 56.6199 32.6791C56.6199 30.5123 58.3782 29.6953 60.2075 29.6953C61.8948 29.6953 63.5998 30.3524 63.5998 31.5779V32.981H61.806V32.2528C61.806 31.7022 61.0067 31.4181 60.2075 31.4181C59.3373 31.4181 58.6091 31.7733 58.6091 32.5903C58.6091 33.5671 59.6037 33.9223 60.7226 34.3485C62.321 34.9169 63.9194 35.5562 63.9194 37.5632C63.9194 39.7477 62.0724 40.76 60.0477 40.76C58.2716 40.76 56.3535 39.9608 56.3535 38.3446V37.1192H58.1828V37.1369Z" fill="#1781FB"/>
<path d="M65.7844 39.1104H67.0631V31.3669H65.7844V29.875H70.9171C71.5565 29.875 72.1959 29.9283 72.7287 30.1414C73.9009 30.6209 74.6468 31.8109 74.6468 33.3205C74.6468 34.8479 73.8476 36.1444 72.6044 36.5884C72.1071 36.7483 71.5565 36.8016 70.9526 36.8016H69.0345V39.1282H70.331V40.6023H65.7666V39.1104H65.7844ZM70.7218 35.2031C71.1658 35.2031 71.5032 35.1498 71.8051 34.99C72.3735 34.7058 72.6754 34.102 72.6754 33.3205C72.6754 32.5746 72.3912 32.0063 71.8939 31.7221C71.592 31.5445 71.2191 31.4734 70.7218 31.4734H69.0523V35.2209H70.7218V35.2031Z" fill="#1781FB"/>
<path d="M75.002 39.1086H75.9788L79.1934 29.8555H81.449L84.6636 39.1086H85.6404V40.5828H81.6088V39.1086H82.6745L82.0173 37.1017H78.6251L77.9679 39.1086H79.0336V40.5828H75.0197V39.1086H75.002ZM81.5555 35.5566L80.5432 32.5195C80.3834 31.9867 80.3478 31.5782 80.3478 31.5782H80.2946C80.2946 31.5782 80.2413 31.9867 80.0992 32.5195L79.0691 35.5566H81.5555Z" fill="#1781FB"/>
<path d="M98.4102 39.1104H99.6889V31.3669H98.4102V29.875H106.385V32.6456H104.697V31.4734H101.696V34.4217H105.23V36.0023H101.696V39.0216H104.928V37.8139H106.615V40.6023H98.4279V39.1104H98.4102Z" fill="#1781FB"/>
<path d="M92.2294 29.6797C93.7923 29.6797 96.3676 30.2658 96.3676 32.0951V33.3916H94.5738V32.6634C94.5738 31.8465 93.2417 31.4557 92.3004 31.4557C90.1692 31.4557 88.6951 32.9654 88.6951 35.2209C88.6951 37.6363 90.3823 39.0217 92.4248 39.0217C94.2186 39.0217 95.444 37.956 95.817 37.6541L96.5985 39.146C96.1189 39.59 94.5915 40.7799 92.3537 40.7799C89.2989 40.7799 86.6349 38.6665 86.6349 35.2565C86.6171 32.0063 89.068 29.6797 92.2294 29.6797Z" fill="#1781FB"/>
</svg>
