<svg version="1" xmlns="http://www.w3.org/2000/svg" width="421.333" height="421.333" viewBox="0 0 316.000000 316.000000"><path d="M143.5 2.1C100.9 6.2 63.1 26.5 36.6 59.5 13.3 88.4 1.5 122 1.6 159c.1 8.3 1.1 21.9 1.9 24.3.2.7.7 3 1 5.2 2.4 16.8 14 43.5 26.2 60.6 11.2 15.6 27.6 31.2 43.8 41.5 14.9 9.4 37.1 18.3 52.5 21 1.4.3 3.2.7 4 .9.8.2 4.2.7 7.5 1 3.3.4 7 .8 8.3 1 2 .3 2.2 0 2.3-4.8.2-14.5-.1-87-.3-87.2-.2-.2-3.4-.6-7.3-1-13.9-1.3-31.3-6.6-43.5-13.3-29.1-15.9-48.1-46.4-52.6-84.3-.3-3-.7-5.8-.8-6.3-.2-1.7 6.9-2.5 20.4-2.1 15.3.4 18.1.8 30 4.1 26.9 7.7 47.8 24.5 59.7 47.8l3.5 6.9 3.2-5.9c11.7-21.9 27.6-36.4 49.6-45.2 12.6-5.1 24.8-7.4 40-7.7 8-.2 16-.1 17.8.2l3.4.6-.7 5.6c-5.4 47.8-30.8 81-72 94.4-8.8 2.9-22.8 5.7-28.1 5.7-2 0-3.5.5-3.5 1.2-.1.7-.2 21.4-.3 46-.1 39.2.1 44.8 1.4 44.9 6 .5 22.5-2.5 35.8-6.5 22.5-6.8 44.6-20.1 62.1-37.5 11.8-11.6 15.6-16.1 22.3-26.6 11.7-18 20.7-41.2 23.2-59.6.4-2.5.9-5.9 1.2-7.5.9-5.1 1.1-25.9.2-34-5.6-53.8-38-100.6-86.3-124.7-11.4-5.7-28-11.4-38.4-13.2-1.9-.3-3.7-.7-4-.9-2.5-1.6-30.8-2.6-41.6-1.5z"/><path d="M66 134.3c0 2.6 5.9 18.6 9.1 24.5 8 15.1 17.6 25 31.9 32.9 9.3 5.2 23.6 9.8 34 10.9 2.5.3 5 .7 5.6.9 2.1.6-2.3-14.9-6.8-24.5-5.1-10.7-15.9-23.5-25.2-29.9-6.8-4.7-18-9.7-26.8-12C80 135 66 133.2 66 134.3zM237.5 135.1c-1.6.5-4.4 1.1-6.1 1.4-20.2 3.2-42.3 19.7-52.5 39.2-6.1 11.6-11.4 28.7-8.7 27.8.7-.2 3.3-.6 5.8-.9 9.4-1 24.4-5.7 32-9.9 21.8-12.4 33.9-27.8 41.1-52.5l1.8-6.3-5.2.2c-2.9.1-6.5.6-8.2 1z"/></svg>