<svg width="44" height="47" viewBox="0 0 44 47" fill="none" xmlns="http://www.w3.org/2000/svg">
<path d="M11 22C17.0751 22 22 17.0751 22 11C22 4.92487 17.0751 6.10352e-06 11 6.10352e-06C4.92487 6.10352e-06 0 4.92487 0 11C0 17.0751 4.92487 22 11 22Z" transform="translate(11 12)" stroke="#00CA69" stroke-width="2" stroke-miterlimit="10"/>
<path d="M3 6.00001C4.65686 6.00001 6 4.65686 6 3.00001C6 1.34315 4.65686 6.10352e-06 3 6.10352e-06C1.34315 6.10352e-06 0 1.34315 0 3.00001C0 4.65686 1.34315 6.00001 3 6.00001Z" transform="translate(19 1)" stroke="#00CA69" stroke-width="2" stroke-miterlimit="10"/>
<path d="M3 6.00001C4.65686 6.00001 6 4.65686 6 3.00001C6 1.34315 4.65686 6.10352e-06 3 6.10352e-06C1.34315 6.10352e-06 0 1.34315 0 3.00001C0 4.65686 1.34315 6.00001 3 6.00001Z" transform="translate(19 40)" stroke="#00CA69" stroke-width="2" stroke-miterlimit="10"/>
<path d="M3 6.00001C4.65686 6.00001 6 4.65686 6 3.00001C6 1.34315 4.65686 6.10352e-06 3 6.10352e-06C1.34315 6.10352e-06 0 1.34315 0 3.00001C0 4.65686 1.34315 6.00001 3 6.00001Z" transform="translate(34 6)" stroke="#00CA69" stroke-width="2" stroke-miterlimit="10"/>
<path d="M3 6.00001C4.65686 6.00001 6 4.65686 6 3.00001C6 1.34315 4.65686 6.10352e-06 3 6.10352e-06C1.34315 6.10352e-06 0 1.34315 0 3.00001C0 4.65686 1.34315 6.00001 3 6.00001Z" transform="translate(37 20)" stroke="#00CA69" stroke-width="2" stroke-miterlimit="10"/>
<path d="M3 6.00001C4.65686 6.00001 6 4.65686 6 3.00001C6 1.34315 4.65686 6.10352e-06 3 6.10352e-06C1.34315 6.10352e-06 0 1.34315 0 3.00001C0 4.65686 1.34315 6.00001 3 6.00001Z" transform="translate(34 34)" stroke="#00CA69" stroke-width="2" stroke-miterlimit="10"/>
<path d="M7.62939e-07 6.10352e-06V5.00001" transform="translate(22 7)" stroke="#00CA69" stroke-width="2" stroke-miterlimit="10"/>
<path d="M7.62939e-07 6.10352e-06V6.00001" transform="translate(22 34)" stroke="#00CA69" stroke-width="2" stroke-miterlimit="10"/>
<path d="M5 6.10352e-06L7.62939e-07 5.00001" transform="translate(30 11)" stroke="#00CA69" stroke-width="2" stroke-miterlimit="10"/>
<path d="M5 5.00001L7.62939e-07 6.10352e-06" transform="translate(30 30)" stroke="#00CA69" stroke-width="2" stroke-miterlimit="10"/>
<path d="M7.62939e-07 6.10352e-06H4" transform="translate(33 23)" stroke="#00CA69" stroke-width="2" stroke-miterlimit="10"/>
<path d="M3 6.00001C4.65685 6.00001 6 4.65686 6 3.00001C6 1.34315 4.65685 6.10352e-06 3 6.10352e-06C1.34315 6.10352e-06 0 1.34315 0 3.00001C0 4.65686 1.34315 6.00001 3 6.00001Z" transform="translate(4 6)" stroke="#00CA69" stroke-width="2" stroke-miterlimit="10"/>
<path d="M3 6.00001C4.65685 6.00001 6 4.65686 6 3.00001C6 1.34315 4.65685 6.10352e-06 3 6.10352e-06C1.34315 6.10352e-06 0 1.34315 0 3.00001C0 4.65686 1.34315 6.00001 3 6.00001Z" transform="translate(1 20)" stroke="#00CA69" stroke-width="2" stroke-miterlimit="10"/>
<path d="M3 6.00001C4.65685 6.00001 6 4.65686 6 3.00001C6 1.34315 4.65685 6.10352e-06 3 6.10352e-06C1.34315 6.10352e-06 0 1.34315 0 3.00001C0 4.65686 1.34315 6.00001 3 6.00001Z" transform="translate(4 34)" stroke="#00CA69" stroke-width="2" stroke-miterlimit="10"/>
<path opacity="0.5" d="M6 3.00001C6 4.70001 4.7 6.00001 3 6.00001C1.3 6.00001 7.62939e-07 4.70001 7.62939e-07 3.00001C7.62939e-07 1.30001 1.3 6.10352e-06 3 6.10352e-06C4.6 6.10352e-06 6 1.30001 6 3.00001Z" transform="translate(19 1)" fill="#00CA69"/>
<path opacity="0.5" d="M6 3.00001C6 4.70001 4.7 6.00001 3 6.00001C1.3 6.00001 7.62939e-07 4.70001 7.62939e-07 3.00001C7.62939e-07 1.30001 1.3 6.10352e-06 3 6.10352e-06C4.6 6.10352e-06 6 1.30001 6 3.00001Z" transform="translate(19 40)" fill="#00CA69"/>
<path opacity="0.5" d="M6 3.00001C6 4.70001 4.7 6.00001 3 6.00001C1.3 6.00001 7.62939e-07 4.70001 7.62939e-07 3.00001C7.62939e-07 1.30001 1.3 6.10352e-06 3 6.10352e-06C4.6 6.10352e-06 6 1.30001 6 3.00001Z" transform="translate(34 6)" fill="#00CA69"/>
<path opacity="0.5" d="M6 3.00001C6 4.70001 4.7 6.00001 3 6.00001C1.3 6.00001 7.62939e-07 4.70001 7.62939e-07 3.00001C7.62939e-07 1.30001 1.3 6.10352e-06 3 6.10352e-06C4.6 6.10352e-06 6 1.30001 6 3.00001Z" transform="translate(37 20)" fill="#00CA69"/>
<path opacity="0.5" d="M6 3.00001C6 4.70001 4.7 6.00001 3 6.00001C1.3 6.00001 7.62939e-07 4.70001 7.62939e-07 3.00001C7.62939e-07 1.30001 1.3 6.10352e-06 3 6.10352e-06C4.6 6.10352e-06 6 1.30001 6 3.00001Z" transform="translate(34 34)" fill="#00CA69"/>
<path opacity="0.5" d="M-1.90735e-07 3.00001C-1.90735e-07 4.70001 1.3 6.00001 3 6.00001C4.7 6.00001 6 4.70001 6 3.00001C6 1.30001 4.7 6.10352e-06 3 6.10352e-06C1.3 6.10352e-06 -1.90735e-07 1.30001 -1.90735e-07 3.00001Z" transform="translate(4 6)" fill="#00CA69"/>
<path opacity="0.5" d="M-1.90735e-07 3.00001C-1.90735e-07 4.70001 1.3 6.00001 3 6.00001C4.7 6.00001 6 4.70001 6 3.00001C6 1.30001 4.7 6.10352e-06 3 6.10352e-06C1.3 6.10352e-06 -1.90735e-07 1.30001 -1.90735e-07 3.00001Z" transform="translate(1 20)" fill="#00CA69"/>
<path opacity="0.5" d="M-1.90735e-07 3.00001C-1.90735e-07 4.70001 1.3 6.00001 3 6.00001C4.7 6.00001 6 4.70001 6 3.00001C6 1.30001 4.7 6.10352e-06 3 6.10352e-06C1.3 6.10352e-06 -1.90735e-07 1.30001 -1.90735e-07 3.00001Z" transform="translate(4 34)" fill="#00CA69"/>
<path d="M-1.90735e-07 6.10352e-06L5 5.00001" transform="translate(9 11)" stroke="#00CA69" stroke-width="2" stroke-miterlimit="10"/>
<path d="M-1.90735e-07 5.00001L5 6.10352e-06" transform="translate(9 30)" stroke="#00CA69" stroke-width="2" stroke-miterlimit="10"/>
<path d="M4 6.10352e-06H-1.90735e-07" transform="translate(7 23)" stroke="#00CA69" stroke-width="2" stroke-miterlimit="10"/>
<path d="M10 5.00001V3.00001C10 1.80001 7.2 6.10352e-06 5 6.10352e-06C2.8 6.10352e-06 7.62939e-07 1.80001 7.62939e-07 3.00001V5.00001" transform="translate(17 24)" stroke="#505050" stroke-width="2" stroke-miterlimit="10"/>
<path d="M3 6.10352e-06C1.4 6.10352e-06 7.62939e-07 1.29999 7.62939e-07 2.79999V4.2C7.62939e-07 5.7 1.4 7.00001 3 7.00001C4.6 7.00001 6 5.7 6 4.2V2.79999C6 1.19999 4.5 6.10352e-06 3 6.10352e-06Z" transform="translate(19 17)" stroke="#505050" stroke-width="2" stroke-miterlimit="10"/>
<path d="M11 22C17.0751 22 22 17.0751 22 11C22 4.92487 17.0751 6.10352e-06 11 6.10352e-06C4.92487 6.10352e-06 0 4.92487 0 11C0 17.0751 4.92487 22 11 22Z" transform="translate(11 12)" stroke="#00CA69" stroke-width="2" stroke-miterlimit="10"/>
</svg>
