<svg width="512" height="451" viewBox="0 0 512 451" fill="none" xmlns="http://www.w3.org/2000/svg">
<path opacity="0.5" d="M21.9501 36.1C10.3764 36.1 0.99772 26.7 0.99772 15.1C0.99772 12.1 1.69615 9.2 2.79366 6.7L-1.21793e-05 4.5L13.1701 0L11.9728 14.1L9.3787 11.9C8.48074 13.7 7.98185 15.7 7.98185 17.9C7.98185 22.1 9.97732 25.9 13.0703 28.3L10.0771 32.3" transform="translate(30.72 70.655) scale(10.24)" fill="#00CA69"/>
<path opacity="0.5" d="M-6.08968e-06 -9.53674e-08C11.5737 -9.53674e-08 20.9524 9.4 20.9524 21C20.9524 24 20.254 26.9 19.1565 29.4L21.9501 31.6L8.78006 36.1L9.97732 22L12.5714 24.2C13.4694 22.4 13.9682 20.4 13.9682 18.2C13.9682 14 11.9728 10.2 8.87981 7.8L11.873 3.7" transform="translate(256.511 10.24) scale(10.24)" fill="#00CA69"/>
<path d="M0.099761 11.1V12.1C0.099761 13.2 0.99772 14.1 2.09523 14.1H6.08615C7.18366 14.1 8.08162 13.2 8.08162 12.1V9.5C8.08162 8.6 7.48299 7.9 6.6848 7.6L1.39683 6.5C0.598645 6.2 1.21793e-05 5.5 1.21793e-05 4.6V2C1.21793e-05 0.9 0.897971 0 1.99548 0H5.98641C7.08391 0 7.98187 0.9 7.98187 2V4" transform="translate(213.601 152.575) scale(10.24)" stroke="#505050" stroke-width="2" stroke-miterlimit="10"/>
<path d="M-1.2207e-05 4V3.8147e-07" transform="translate(255.489 112.64) scale(10.24)" stroke="#505050" stroke-width="2" stroke-miterlimit="10"/>
<path d="M-1.2207e-05 -1.52588e-06V4" transform="translate(255.489 296.96) scale(10.24)" stroke="#505050" stroke-width="2" stroke-miterlimit="10"/>
<path d="M21.9501 36.1C10.3764 36.1 0.99772 26.7 0.99772 15.1C0.99772 12.1 1.69615 9.2 2.79366 6.7L-1.21793e-05 4.5L13.1701 0L11.9728 14.1L9.37869 11.9C8.48074 13.7 7.98185 15.7 7.98185 17.9C7.98185 22.1 9.97732 25.9 13.0703 28.3L10.0771 32.3" transform="translate(30.72 70.655) scale(10.24)" stroke="#00CA69" stroke-width="2" stroke-miterlimit="10"/>
<path d="M-6.08968e-06 -9.53674e-08C11.5737 -9.53674e-08 20.9524 9.4 20.9524 21C20.9524 24 20.254 26.9 19.1565 29.4L21.9501 31.6L8.78006 36.1L9.97732 22L12.5714 24.2C13.4694 22.4 13.9682 20.4 13.9682 18.2C13.9682 14 11.9728 10.2 8.87981 7.8L11.873 3.7" transform="translate(256.511 10.24) scale(10.24)" stroke="#00CA69" stroke-width="2" stroke-miterlimit="10"/>
</svg>
