<svg width="48" height="37" viewBox="0 0 48 37" fill="none" xmlns="http://www.w3.org/2000/svg">
<path d="M-2.44141e-05 15V22H35V6.10352e-06H-2.44141e-05V12" transform="translate(12 8)" stroke="#00CA69" stroke-width="2" stroke-miterlimit="10"/>
<path opacity="0.5" d="M2.99998 14C2.99998 12.3 1.99998 11 -2.44141e-05 11V3.00001C1.99998 3.00001 2.99998 2.00001 2.99998 6.10352e-06H23C23 2.00001 24.3 3.00001 26 3.00001V11C24.3 11 23 12.3 23 14H2.99998Z" transform="translate(17 12)" fill="#00CA69"/>
<path d="M-2.44141e-05 6.10352e-06H1.99998" transform="translate(21 19)" stroke="#00CA69" stroke-width="2" stroke-miterlimit="10"/>
<path d="M-2.44141e-05 6.10352e-06H1.99998" transform="translate(37 19)" stroke="#00CA69" stroke-width="2" stroke-miterlimit="10"/>
<path d="M3.99998 8.00001C6.20912 8.00001 7.99998 6.20915 7.99998 4.00001C7.99998 1.79087 6.20912 6.10352e-06 3.99998 6.10352e-06C1.79084 6.10352e-06 -2.44141e-05 1.79087 -2.44141e-05 4.00001C-2.44141e-05 6.20915 1.79084 8.00001 3.99998 8.00001Z" transform="translate(26 15)" stroke="#505050" stroke-width="2" stroke-miterlimit="10"/>
<path d="M7.99998 6.10352e-06H-2.44141e-05" transform="translate(6 23)" stroke="#505050" stroke-width="2" stroke-miterlimit="10"/>
<path d="M4.99998 6.10352e-06H-2.44141e-05" transform="translate(7 11)" stroke="#505050" stroke-width="2" stroke-miterlimit="10"/>
<path d="M1.99998 6.10352e-06H-2.44141e-05" transform="translate(3 11)" stroke="#505050" stroke-width="2" stroke-miterlimit="10"/>
<path d="M8.99998 6.10352e-06H-2.44141e-05" transform="translate(0 17)" stroke="#505050" stroke-width="2" stroke-miterlimit="10"/>
<path d="M7.99998 6.10352e-06H-2.44141e-05" transform="translate(28 1)" stroke="#505050" stroke-width="2" stroke-miterlimit="10"/>
<path d="M14 6.10352e-06H-2.44141e-05" transform="translate(19 36)" stroke="#505050" stroke-width="2" stroke-miterlimit="10"/>
<path d="M1.99998 6.10352e-06H-2.44141e-05" transform="translate(24 1)" stroke="#505050" stroke-width="2" stroke-miterlimit="10"/>
<path d="M1.99998 6.10352e-06H-2.44141e-05" transform="translate(20 1)" stroke="#505050" stroke-width="2" stroke-miterlimit="10"/>
<path d="M1.99998 6.10352e-06H-2.44141e-05" transform="translate(16 1)" stroke="#505050" stroke-width="2" stroke-miterlimit="10"/>
</svg>
