<svg width="48" height="34" viewBox="0 0 48 34" fill="none" xmlns="http://www.w3.org/2000/svg">
<path opacity="0.5" d="M-1.2207e-05 1.00001V13C-1.2207e-05 13.6 0.399988 14 0.999988 14H3.99999V18.3C3.99999 19.2 5.20001 19.7 5.80001 18.9L9.99999 14H18C18.6 14 19 13.6 19 13V1.00001C19 0.400006 18.6 6.10352e-06 18 6.10352e-06H0.999988C0.499988 6.10352e-06 -1.2207e-05 0.400006 -1.2207e-05 1.00001Z" transform="translate(18 1)" fill="#00CA69"/>
<path d="M18 13V5.00001C18 1.40001 15.5 6.10352e-06 13 6.10352e-06H4.99999C2.49999 6.10352e-06 -1.2207e-05 1.40001 -1.2207e-05 5.00001V13" transform="translate(1 21)" stroke="#505050" stroke-width="2" stroke-miterlimit="10" stroke-linejoin="round"/>
<path d="M-1.2207e-05 8.00001V6.10352e-06" transform="translate(15 26)" stroke="#505050" stroke-width="2" stroke-miterlimit="10" stroke-linejoin="round"/>
<path d="M-1.2207e-05 6.10352e-06V8.00001" transform="translate(5 26)" stroke="#505050" stroke-width="2" stroke-miterlimit="10" stroke-linejoin="round"/>
<path d="M3.99999 10C6.29999 10 7.99999 8.40001 7.99999 6.00001V4.00001C7.99999 1.60001 6.29999 6.10352e-06 3.99999 6.10352e-06C1.69999 6.10352e-06 -1.2207e-05 1.60001 -1.2207e-05 4.00001V6.00001C-1.2207e-05 8.30001 1.69999 10 3.99999 10Z" transform="translate(6 7)" stroke="#505050" stroke-width="2" stroke-miterlimit="10" stroke-linejoin="round"/>
<path d="M5.99999 6.10352e-06H15C15.6 6.10352e-06 16 0.400006 16 1.00001V13C16 13.6 15.6 14 15 14H13V17.8C13 18.7 12 19.1 11.3 18.6L5.99999 14H0.999988C0.399988 14 -1.2207e-05 13.6 -1.2207e-05 13V7.00001" transform="translate(31 8)" stroke="#00CA69" stroke-width="2" stroke-miterlimit="10" stroke-linejoin="round"/>
<path d="M-1.2207e-05 1.00001V13C-1.2207e-05 13.6 0.399988 14 0.999988 14H3.99999V18.3C3.99999 19.2 5.20001 19.7 5.80001 18.9L9.99999 14H18C18.6 14 19 13.6 19 13V1.00001C19 0.400006 18.6 6.10352e-06 18 6.10352e-06H0.999988C0.499988 6.10352e-06 -1.2207e-05 0.400006 -1.2207e-05 1.00001Z" transform="translate(18 1)" stroke="#00CA69" stroke-width="2" stroke-miterlimit="10" stroke-linejoin="round"/>
<path d="M3.99999 6.10352e-06H0.999988C0.399988 6.10352e-06 -1.2207e-05 0.400006 -1.2207e-05 1.00001V5.00001" transform="translate(31 8)" stroke="#00CA69" stroke-width="2" stroke-miterlimit="10" stroke-linejoin="round"/>
</svg>
