<svg width="512" height="503" viewBox="0 0 512 503" fill="none" xmlns="http://www.w3.org/2000/svg">
<path d="M23.9524 0H0V45.9087H23.9524V0Z" transform="translate(18.963 179.56) scale(9.59678 9.36458) rotate(-45)" stroke="#00CA69" stroke-width="2" stroke-miterlimit="10"/>
<path opacity="0.5" d="M21.4154 32.0359L-3.85346e-07 11.1386C1.21219 9.95577 1.21219 8.0829 -3.85346e-07 6.99861L7.17215 0C8.38435 1.18286 10.0006 1.38001 11.4148 0L32.8303 20.8973C31.416 22.2773 31.6181 23.953 32.8303 25.0373L25.7591 32.0359C24.5469 30.853 22.6276 30.853 21.4154 32.0359Z" transform="translate(100.037 101.074) scale(9.48148)" fill="#00CA69"/>
<path d="M-3.85346e-07 -3.76023e-07L1.41422 1.38001" transform="translate(181.448 179.579) scale(9.48148)" stroke="#00CA69" stroke-width="2" stroke-miterlimit="10"/>
<path d="M0 -1.50409e-06L1.41423 1.38001" transform="translate(316.495 312.296) scale(9.48148)" stroke="#00CA69" stroke-width="2" stroke-miterlimit="10"/>
<path d="M4.04065 7.88576C6.27224 7.88576 8.0813 6.12047 8.0813 3.94288C8.0813 1.76529 6.27224 0 4.04065 0C1.80906 0 0 1.76529 0 3.94288C0 6.12047 1.80906 7.88576 4.04065 7.88576Z" transform="translate(217.844 215.097) scale(9.48148)" stroke="#505050" stroke-width="2" stroke-miterlimit="10"/>
<path d="M2.02033 -1.88011e-07L7.70693e-07 1.97144" transform="translate(294.466 56.213) scale(9.48148)" stroke="#505050" stroke-width="2" stroke-miterlimit="10"/>
<path d="M2.02033 -1.17507e-08L7.70693e-07 1.97144" transform="translate(342.355 9.48148) scale(9.48148)" stroke="#505050" stroke-width="2" stroke-miterlimit="10"/>
<path d="M7.70693e-07 -1.88011e-07L2.02033 1.97144" transform="translate(342.355 56.213) scale(9.48148)" stroke="#505050" stroke-width="2" stroke-miterlimit="10"/>
<path d="M7.70693e-07 -1.17507e-08L2.02033 1.97144" transform="translate(294.466 9.48148) scale(9.48148)" stroke="#505050" stroke-width="2" stroke-miterlimit="10"/>
<path d="M3.03049 7.62939e-07H-1.92673e-07" transform="translate(45.4433 383.324) scale(9.48148)" stroke="#505050" stroke-width="2" stroke-miterlimit="10"/>
<path d="M3.03049 7.62939e-07H-1.92673e-07" transform="translate(112.487 383.324) scale(9.48148)" stroke="#505050" stroke-width="2" stroke-miterlimit="10"/>
<path d="M-1.90735e-07 7.52045e-07V2.95716" transform="translate(93.3322 402.019) scale(9.48148)" stroke="#505050" stroke-width="2" stroke-miterlimit="10"/>
<path d="M-1.90735e-07 7.52044e-07V2.95716" transform="translate(93.3322 336.593) scale(9.48148)" stroke="#505050" stroke-width="2" stroke-miterlimit="10"/>
<path d="M7.62939e-07 -1.88011e-07V1.97144" transform="translate(428.557 102.944) scale(9.48148)" stroke="#505050" stroke-width="2" stroke-miterlimit="10"/>
<path d="M7.62939e-07 -1.88011e-07V1.97144" transform="translate(428.557 140.329) scale(9.48148)" stroke="#505050" stroke-width="2" stroke-miterlimit="10"/>
<path d="M2.02033 -1.90735e-07H7.70693e-07" transform="translate(399.823 130.981) scale(9.48148)" stroke="#505050" stroke-width="2" stroke-miterlimit="10"/>
<path d="M2.02033 -1.90735e-07H7.70693e-07" transform="translate(438.134 130.981) scale(9.48148)" stroke="#505050" stroke-width="2" stroke-miterlimit="10"/>
</svg>
