<svg width="47" height="45" viewBox="0 0 47 45" fill="none" xmlns="http://www.w3.org/2000/svg">
<path opacity="0.5" d="M21 0H0V9H21V0Z" transform="translate(16 11)" fill="#00CA69"/>
<path d="M4 0H2H0" transform="translate(42 38)" stroke="#505050" stroke-width="2" stroke-miterlimit="10"/>
<path d="M21 0H0V27H21V0Z" transform="translate(16 11)" stroke="#00CA69" stroke-width="2" stroke-miterlimit="10"/>
<path d="M0 0H21" transform="translate(16 20)" stroke="#00CA69" stroke-width="2" stroke-miterlimit="10"/>
<path d="M0 0H21" transform="translate(16 26)" stroke="#00CA69" stroke-width="2" stroke-miterlimit="10"/>
<path d="M0 0H14" transform="translate(16 32)" stroke="#00CA69" stroke-width="2" stroke-miterlimit="10"/>
<path d="M0 18V0" transform="translate(23 20)" stroke="#00CA69" stroke-width="2" stroke-miterlimit="10"/>
<path d="M0 18V0" transform="translate(30 20)" stroke="#00CA69" stroke-width="2" stroke-miterlimit="10"/>
<path d="M4 4V38C4 38.6 3.6 39 3 39H1C0.4 39 0 38.6 0 38V4L2 0L4 4Z" transform="translate(42 4)" stroke="#505050" stroke-width="2" stroke-miterlimit="10"/>
<path d="M33 8V2C33 0.9 32.1 0 31 0H8L0 8V41C0 42.1 0.9 43 2 43H31C32.1 43 33 42.1 33 41V39" transform="translate(1 1)" stroke="#505050" stroke-width="2" stroke-miterlimit="10"/>
<path d="M0 6H6V0" transform="translate(4 4)" stroke="#505050" stroke-width="2" stroke-miterlimit="10"/>
</svg>
