<svg width="42" height="42" viewBox="0 0 42 42" fill="none" xmlns="http://www.w3.org/2000/svg">
<line x1="5" y1="10" x2="5" y2="34" stroke="#505050" stroke-width="2"/>
<line x1="37" y1="10" x2="37" y2="34" stroke="#505050" stroke-width="2"/>
<path d="M0.999994 1.00001V6.00001C0.999994 8.20001 2.79999 10 4.99999 10C7.19999 10 8.99999 8.20001 8.99999 6.00001C8.99999 8.20001 10.8 10 13 10C15.2 10 17 8.20001 17 6.00001C17 8.20001 18.8 10 21 10C23.2 10 25 8.20001 25 6.00001C25 8.20001 26.8 10 29 10C31.2 10 33 8.20001 33 6.00001C33 8.20001 34.8 10 37 10C39.2 10 41 8.20001 41 6.00001V1.00001H0.999994Z" stroke="#00CA69" stroke-width="2" stroke-miterlimit="10" stroke-linejoin="round"/>
<line x1="5" y1="33" x2="36" y2="33" stroke="#505050" stroke-width="2"/>
<path d="M20.5 41C26.299 41 31 36.299 31 30.5C31 24.701 26.299 20 20.5 20C14.701 20 10 24.701 10 30.5C10 36.299 14.701 41 20.5 41Z" fill="#80E4B4" stroke="#20C86D" stroke-width="2" stroke-miterlimit="10"/>
<path d="M17.7258 32.392V33.392C17.7258 34.492 18.6258 35.392 19.7258 35.392H21.7258C22.8258 35.392 23.7258 34.492 23.7258 33.392V32.792C23.7258 31.892 23.1258 31.192 22.3258 30.892L19.1258 29.792C18.3258 29.492 17.7258 28.792 17.7258 27.892V27.292C17.7258 26.192 18.6258 25.292 19.7258 25.292H21.7258C22.8258 25.292 23.7258 26.192 23.7258 27.292V28.292" stroke="#505050" stroke-width="2" stroke-miterlimit="10"/>
<path d="M20.7258 25.3936V22.3936" stroke="#505050" stroke-width="2" stroke-miterlimit="10"/>
<path d="M20.7258 35.3936V38.3936" stroke="#505050" stroke-width="2" stroke-miterlimit="10"/>
</svg>
