<svg width="38" height="47" viewBox="0 0 38 47" fill="none" xmlns="http://www.w3.org/2000/svg">
<path opacity="0.5" d="M7.62939e-07 6.10352e-06V3.00001L2 5.00001H4L6 3.00001V6.10352e-06" transform="translate(16 23)" fill="#00CA69"/>
<path d="M9 14V13C9 11.9 9.4 11.1 10.1 10.3C11.2 9.09999 12 7.70001 12 6.00001C12 2.70001 9.3 6.10352e-06 6 6.10352e-06C2.7 6.10352e-06 7.62939e-07 2.70001 7.62939e-07 6.00001C7.62939e-07 7.80001 0.7 9.19999 1.9 10.3C2.7 11.1 3 11.9 3 13V14H9Z" transform="translate(13 9)" stroke="#00CA69" stroke-width="2" stroke-miterlimit="10"/>
<path d="M7.62939e-07 5.00001V3.00001C7.62939e-07 1.90001 3.3 6.10352e-06 6 6.10352e-06C8.7 6.10352e-06 12 1.90001 12 3.00001V5.00001" transform="translate(13 42)" stroke="#505050" stroke-width="2" stroke-miterlimit="10"/>
<path d="M4 10C6.4 10 8 8.09999 8 5.69999V4.29999C8 1.89999 6.4 6.10352e-06 4 6.10352e-06C1.6 6.10352e-06 7.62939e-07 1.89999 7.62939e-07 4.29999V5.69999C7.62939e-07 8.09999 1.6 10 4 10Z" transform="translate(15 32)" stroke="#505050" stroke-width="2" stroke-miterlimit="10"/>
<path d="M7.62939e-07 3.00001C7.62939e-07 1.90001 3.3 6.10352e-06 6 6.10352e-06C8.7 6.10352e-06 12 1.90001 12 3.00001V5.00001" transform="translate(25 42)" stroke="#505050" stroke-width="2" stroke-miterlimit="10"/>
<path d="M4 10C6.4 10 8 8.09999 8 5.69999V4.29999C8 1.89999 6.4 6.10352e-06 4 6.10352e-06C1.6 6.10352e-06 7.62939e-07 1.89999 7.62939e-07 4.29999V5.69999C7.62939e-07 8.09999 1.6 10 4 10Z" transform="translate(27 32)" stroke="#505050" stroke-width="2" stroke-miterlimit="10"/>
<path d="M-1.90735e-07 5.00001V3.00001C-1.90735e-07 1.90001 3.3 6.10352e-06 6 6.10352e-06C8.7 6.10352e-06 12 1.90001 12 3.00001" transform="translate(1 42)" stroke="#505050" stroke-width="2" stroke-miterlimit="10"/>
<path d="M4 10C6.4 10 8 8.09999 8 5.69999V4.29999C8 1.89999 6.4 6.10352e-06 4 6.10352e-06C1.6 6.10352e-06 -1.90735e-07 1.89999 -1.90735e-07 4.29999V5.69999C-1.90735e-07 8.09999 1.6 10 4 10Z" transform="translate(3 32)" stroke="#505050" stroke-width="2" stroke-miterlimit="10"/>
<path d="M7.62939e-07 6.00001V6.10352e-06" transform="translate(19)" stroke="#00CA69" stroke-width="2" stroke-miterlimit="10"/>
<path d="M1.52588e-06 3.00001L5.2 6.10352e-06" transform="translate(26.7 7.5)" stroke="#00CA69" stroke-width="2" stroke-miterlimit="10"/>
<path d="M0 6.10352e-06L5.2 3.00001" transform="translate(26.8 19.5)" stroke="#00CA69" stroke-width="2" stroke-miterlimit="10"/>
<path d="M-3.8147e-07 6.10352e-06L1.3 2.19999" transform="translate(13.2 5)" stroke="#00CA69" stroke-width="2" stroke-miterlimit="10"/>
<path d="M3 6.10352e-06H7.62939e-07" transform="translate(28 15)" stroke="#00CA69" stroke-width="2" stroke-miterlimit="10"/>
<path d="M1.2 6.10352e-06L7.62939e-07 2.19999" transform="translate(23.5 5)" stroke="#00CA69" stroke-width="2" stroke-miterlimit="10"/>
<path d="M5.2 3.00001L-1.90735e-07 6.10352e-06" transform="translate(5.5 7.5)" stroke="#00CA69" stroke-width="2" stroke-miterlimit="10"/>
<path d="M5.2 6.10352e-06L-1.90735e-07 3.00001" transform="translate(5.5 19.5)" stroke="#00CA69" stroke-width="2" stroke-miterlimit="10"/>
<path d="M-1.90735e-07 6.10352e-06H3" transform="translate(7 15)" stroke="#00CA69" stroke-width="2" stroke-miterlimit="10"/>
<path d="M7.62939e-07 6.10352e-06V3.00001L2 5.00001H4L6 3.00001V6.10352e-06" transform="translate(16 23)" stroke="#00CA69" stroke-width="2" stroke-miterlimit="10"/>
<path d="M9 14V13C9 11.9 9.4 11.1 10.1 10.3C11.2 9.09999 12 7.70001 12 6.00001C12 2.70001 9.3 6.10352e-06 6 6.10352e-06C2.7 6.10352e-06 7.62939e-07 2.70001 7.62939e-07 6.00001C7.62939e-07 7.80001 0.7 9.19999 1.9 10.3C2.7 11.1 3 11.9 3 13V14H9Z" transform="translate(13 9)" stroke="#00CA69" stroke-width="2" stroke-miterlimit="10"/>
</svg>
