<svg width="31" height="31" viewBox="0 0 31 31" fill="none" xmlns="http://www.w3.org/2000/svg">
<circle cx="15.5" cy="15.5" r="15.5" fill="white"/>
<path d="M15.5 0C6.944 0 0 6.944 0 15.5C0 24.056 6.944 31 15.5 31C24.056 31 31 24.056 31 15.5C31 6.944 24.056 0 15.5 0ZM21.0955 9.827C22.754 9.827 24.087 11.16 24.087 12.8185C24.087 14.477 22.754 15.81 21.0955 15.81C19.437 15.81 18.104 14.477 18.104 12.8185C18.0885 11.16 19.437 9.827 21.0955 9.827ZM11.7955 7.378C13.8105 7.378 15.4535 9.021 15.4535 11.036C15.4535 13.051 13.8105 14.694 11.7955 14.694C9.7805 14.694 8.1375 13.051 8.1375 11.036C8.1375 9.0055 9.765 7.378 11.7955 7.378ZM11.7955 21.5295V27.342C8.0755 26.1795 5.1305 23.312 3.8285 19.654C5.456 17.918 9.517 17.0345 11.7955 17.0345C12.617 17.0345 13.6555 17.1585 14.7405 17.3755C12.1985 18.724 11.7955 20.5065 11.7955 21.5295ZM15.5 27.9C15.0815 27.9 14.6785 27.8845 14.2755 27.838V21.5295C14.2755 19.3285 18.8325 18.228 21.0955 18.228C22.754 18.228 25.6215 18.8325 27.0475 20.0105C25.234 24.614 20.7545 27.9 15.5 27.9Z" fill="#C1C2C5"/>
</svg>
