<svg xmlns="http://www.w3.org/2000/svg" width="70" height="70" viewBox="0 0 70 70">
  <path id="compass" d="M35,70A35.009,35.009,0,0,1,21.376,2.75a35.009,35.009,0,0,1,27.247,64.5A34.781,34.781,0,0,1,35,70ZM19,22.347V32.939a19.027,19.027,0,0,0,2.161,8.97,29.338,29.338,0,0,0,4.522,6.271,44.783,44.783,0,0,0,9.093,7.387,44.616,44.616,0,0,0,9.093-7.392,29.012,29.012,0,0,0,4.522-6.31,19.517,19.517,0,0,0,2.161-8.97V22.347a11.352,11.352,0,0,1-2.421.271,15,15,0,0,1-8.7-3.167A24.315,24.315,0,0,1,34.776,15a25.123,25.123,0,0,1-4.656,4.451,14.8,14.8,0,0,1-8.7,3.148A11.823,11.823,0,0,1,19,22.347Z" fill="#c1c2c5"/>
</svg>
