<svg xmlns="http://www.w3.org/2000/svg" width="69" height="70" viewBox="0 0 69 70">
  <path id="heart" d="M34.5,70a33.861,33.861,0,0,1-13.429-2.75,34.361,34.361,0,0,1-10.966-7.5A35.434,35.434,0,0,1,2.711,21.376,34.915,34.915,0,0,1,10.1,10.251a34.361,34.361,0,0,1,10.966-7.5,34.159,34.159,0,0,1,26.858,0,34.363,34.363,0,0,1,10.966,7.5,35.433,35.433,0,0,1,7.394,38.373A34.916,34.916,0,0,1,58.9,59.749a34.363,34.363,0,0,1-10.966,7.5A33.862,33.862,0,0,1,34.5,70ZM25.648,19a8.351,8.351,0,0,0-6.11,2.691,9.528,9.528,0,0,0,0,12.949L34.52,50.552l6.062-6.424,8.937-9.469a9.527,9.527,0,0,0,0-12.95,8.285,8.285,0,0,0-12.222,0l-2.76,2.925-2.777-2.943A8.353,8.353,0,0,0,25.648,19Z" fill="#c1c2c5"/>
</svg>
