<svg width="31" height="31" viewBox="0 0 31 31" fill="none" xmlns="http://www.w3.org/2000/svg">
<circle cx="15.5" cy="15.5" r="15.5" fill="#C1C2C5"/>
<path d="M15.3624 24C15.1887 23.9204 15.0431 23.792 14.9441 23.6311C13.3319 21.3956 11.7075 19.1686 10.1039 16.9263C9.49315 16.0658 9.12336 15.0635 9.03136 14.0193C8.76062 11.2993 10.2618 8.68303 12.8077 7.60353C15.2791 6.55463 17.6133 6.87423 19.7028 8.55213C20.3329 9.05391 20.8556 9.67262 21.241 10.3728C21.6263 11.0729 21.8668 11.8407 21.9485 12.6321C22.1562 14.222 21.7311 15.8291 20.7614 17.1201C19.2006 19.2734 17.6387 21.4307 16.0756 23.592C15.974 23.769 15.8196 23.9114 15.6331 24H15.3624ZM17.6619 13.3988C17.6635 12.9804 17.5388 12.5708 17.3034 12.2216C17.0681 11.8724 16.7325 11.5992 16.3391 11.4363C15.9456 11.2735 15.5117 11.2282 15.092 11.3063C14.6723 11.3843 14.2856 11.5822 13.9804 11.875C13.6753 12.1678 13.4653 12.5424 13.377 12.9518C13.2886 13.3612 13.3258 13.7871 13.4839 14.1758C13.642 14.5645 13.9139 14.8988 14.2655 15.1365C14.617 15.3743 15.0324 15.5049 15.4595 15.5119C15.7459 15.5153 16.0302 15.4632 16.296 15.3588C16.5618 15.2543 16.8039 15.0995 17.0085 14.9032C17.2131 14.7069 17.3761 14.473 17.4883 14.2148C17.6004 13.9566 17.6594 13.6794 17.6619 13.3988Z" fill="white"/>
</svg>
