<svg width="47" height="37" viewBox="0 0 47 37" fill="none" xmlns="http://www.w3.org/2000/svg">
<path opacity="0.5" d="M18 2.14626C10.1 3.75098 4.49999 2.54744 -1.2207e-05 0.541535V19.5976C5.09999 22.2053 11.1 22.9073 19 21.2023C29.9 18.8955 30.7 17.9929 37 22.6064V2.54744C31 -1.86555 26.4 0.441246 18 2.14626Z" transform="translate(9 12.3936)" fill="#00CA69"/>
<path d="M18 2.14626C10.1 3.75098 4.49999 2.54744 -1.2207e-05 0.541535V19.5976C5.09999 22.2053 11.1 22.9073 19 21.2023C29.9 18.8955 30.7 17.9929 37 22.6064V2.54744C31 -1.86555 26.4 0.441246 18 2.14626Z" transform="translate(9 12.3936)" stroke="#00CA69" stroke-width="2" stroke-miterlimit="10"/>
<path d="M37 2.06403C31 -1.346 27.3 0.0581339 22 2.06403C14.3 4.97259 4.89999 2.6658 -1.2207e-05 0.0581339V19.1142" transform="translate(5 6.85938)" stroke="#505050" stroke-width="2" stroke-miterlimit="10" stroke-linecap="round" stroke-linejoin="round"/>
<path d="M37 2.00591C31.5 -0.100289 28.1 1.20354 23 2.90856C15.2 5.61652 4.89999 2.60768 -1.2207e-05 6.12152e-06V18.9558" transform="translate(1 1)" stroke="#505050" stroke-width="2" stroke-miterlimit="10" stroke-linecap="round" stroke-linejoin="round"/>
<path d="M3.2 0C1.3 1.90561 -1.2207e-05 4.61356 -1.2207e-05 7.32153C-1.2207e-05 9.9292 1.19999 11.7345 2.99999 12.5369" transform="translate(20 18.4512)" stroke="#505050" stroke-width="2" stroke-miterlimit="10"/>
<path d="M0.0126671 7.6112C-0.0873329 8.41356 0.412679 8.81474 1.21268 8.51385L2.61267 7.91211C3.41267 7.61122 4.11268 6.60827 4.21268 5.9062L4.41269 4.80295C4.51269 4.20118 4.21268 3.80001 3.71268 3.9003L1.61267 4.10088C1.11267 4.10088 0.812691 3.8 0.912691 3.19823V2.69675C1.01269 1.89439 1.71267 0.991735 2.51267 0.69085L3.91269 0.0890736C4.71269 -0.211812 5.21267 0.289658 5.11267 0.991723" transform="translate(24.4873 19.2646)" stroke="#505050" stroke-width="2" stroke-miterlimit="10" stroke-linejoin="round"/>
<path d="M-1.2207e-05 12.9381C2.49999 11.1327 4.3 7.82302 4.3 4.71388C4.3 2.60768 3.5 0.902655 2.2 0" transform="translate(30 16.9473)" stroke="#505050" stroke-width="2" stroke-miterlimit="10"/>
<path d="M0 1.90562L0.399994 -1.22431e-05" transform="translate(27.7 17.749)" stroke="#505050" stroke-width="2" stroke-miterlimit="10" stroke-linejoin="round"/>
<path d="M0.4 0L6.10351e-06 2.1062" transform="translate(25.8 27.9795)" stroke="#676A73" stroke-width="2" stroke-miterlimit="10" stroke-linejoin="round"/>
<path d="M-1.2207e-05 0H1.99999" transform="translate(14 25.9736)" stroke="#505050" stroke-width="2" stroke-miterlimit="10" stroke-linejoin="round"/>
<path d="M-1.2207e-05 0H1.99999" transform="translate(38 21.9619)" stroke="#505050" stroke-width="2" stroke-miterlimit="10" stroke-linejoin="round"/>
</svg>
