<svg width="31" height="31" viewBox="0 0 31 31" fill="none" xmlns="http://www.w3.org/2000/svg">
<circle cx="15.5" cy="15.5" r="15.5" fill="#C1C2C5"/>
<path d="M23.0749 11.9999H22.4332V6.74983C22.4331 6.62724 22.4074 6.50652 22.3582 6.39825C22.309 6.28998 22.2379 6.19745 22.151 6.12876C22.0641 6.06008 21.9641 6.01734 21.8598 6.00427C21.7555 5.99121 21.6501 6.00822 21.5527 6.05383L12.074 10.4999H8.92513C8.41456 10.4999 7.92489 10.7369 7.56386 11.1589C7.20283 11.5808 7 12.1531 7 12.7499V15.7499C7 16.3467 7.20283 16.919 7.56386 17.3409C7.92489 17.7629 8.41456 17.9999 8.92513 17.9999H8.95722V23.25C8.95722 23.4489 9.02483 23.6397 9.14517 23.7803C9.26552 23.921 9.42874 24 9.59893 24H12.1658C12.336 24 12.4992 23.921 12.6195 23.7803C12.7399 23.6397 12.8075 23.4489 12.8075 23.25V18.3434L21.5527 22.446C21.6285 22.4819 21.7096 22.5003 21.7914 22.5C21.9616 22.5 22.1249 22.421 22.2452 22.2803C22.3655 22.1397 22.4332 21.9489 22.4332 21.75V16.4999H23.0749C23.5854 16.4999 24.0751 16.2629 24.4361 15.8409C24.7972 15.419 25 14.8466 25 14.2499C25 13.6532 24.7972 13.0809 24.4361 12.6589C24.0751 12.2369 23.5854 11.9999 23.0749 11.9999Z" fill="white"/>
</svg>
