<svg width="31" height="31" viewBox="0 0 31 31" fill="none" xmlns="http://www.w3.org/2000/svg">
<circle cx="15.5" cy="15.5" r="15.5" fill="#C1C2C5"/>
<path d="M17.1309 18.2305C17.1309 17.7161 17.0039 17.3125 16.75 17.0195C16.4961 16.7266 16.0501 16.4499 15.4121 16.1895C14.7741 15.929 14.1849 15.6654 13.6445 15.3984C13.1042 15.1315 12.6387 14.8223 12.248 14.4707C11.8574 14.1191 11.5579 13.7122 11.3496 13.25C11.1413 12.7878 11.0371 12.2279 11.0371 11.5703C11.0371 10.4701 11.4082 9.5651 12.1504 8.85547C12.8926 8.13932 13.8822 7.72266 15.1191 7.60547V5.54492H16.6719V7.64453C17.8633 7.82031 18.7975 8.31185 19.4746 9.11914C20.1582 9.91992 20.5 10.9388 20.5 12.1758H17.1992C17.1992 11.4987 17.069 10.9779 16.8086 10.6133C16.5482 10.2487 16.1771 10.0664 15.6953 10.0664C15.2656 10.0664 14.9303 10.2031 14.6895 10.4766C14.4551 10.7435 14.3379 11.1146 14.3379 11.5898C14.3379 12.0716 14.4746 12.4557 14.748 12.7422C15.0215 13.0221 15.4609 13.2923 16.0664 13.5527C16.6719 13.8066 17.2415 14.0736 17.7754 14.3535C18.3158 14.627 18.7812 14.9395 19.1719 15.291C19.5625 15.6426 19.8685 16.0527 20.0898 16.5215C20.3112 16.9902 20.4219 17.5534 20.4219 18.2109C20.4219 19.3242 20.0671 20.2324 19.3574 20.9355C18.6543 21.6387 17.694 22.0488 16.4766 22.166V24.1289H14.9238V22.1562C13.5046 22.0065 12.4141 21.5215 11.6523 20.7012C10.8971 19.8743 10.5195 18.7871 10.5195 17.4395H13.8105C13.8105 18.1816 13.9733 18.748 14.2988 19.1387C14.6309 19.5228 15.0996 19.7148 15.7051 19.7148C16.1478 19.7148 16.4961 19.5846 16.75 19.3242C17.0039 19.0573 17.1309 18.6927 17.1309 18.2305Z" fill="white"/>
</svg>
