<svg width="50" height="58" viewBox="0 0 50 58" fill="none" xmlns="http://www.w3.org/2000/svg">
<path d="M25.0007 7.71875C15.3088 7.71875 7.42395 15.5575 7.42395 25.1934C7.42395 28.5652 8.39223 31.838 10.2234 34.6579C12.0063 37.4041 14.5162 39.594 17.4802 40.9907C17.775 41.1304 18.1284 41.0049 18.2683 40.7112C18.4082 40.4175 18.2826 40.0669 17.9872 39.9278C12.2894 37.2424 8.60696 31.4589 8.60696 25.1934C8.60696 16.2064 15.9614 8.89486 25.0007 8.89486C34.0405 8.89486 41.3943 16.2064 41.3943 25.1934C41.3943 31.4589 37.7125 37.2424 32.0148 39.9278C31.7194 40.0669 31.5938 40.4175 31.7337 40.7112C31.8345 40.9234 32.0473 41.0476 32.2686 41.0476C32.3532 41.0476 32.4397 41.0295 32.5217 40.9907C35.4858 39.594 37.9956 37.4035 39.7786 34.6579C41.6097 31.838 42.578 28.5652 42.578 25.1934C42.5774 15.5575 34.6925 7.71875 25.0007 7.71875Z" fill="#20C86D" stroke="#20C86D" stroke-width="0.75"/>
<path d="M25.0007 4.83884C25.3274 4.83884 25.5922 4.57554 25.5922 4.25079V1.58805C25.5922 1.2633 25.3274 1 25.0007 1C24.674 1 24.4092 1.2633 24.4092 1.58805V4.25079C24.4092 4.57554 24.674 4.83884 25.0007 4.83884Z" fill="#505050" stroke="#505050" stroke-width="0.75"/>
<path d="M14.1231 7.30581C14.2324 7.49471 14.4315 7.59952 14.6359 7.59952C14.7361 7.59952 14.8382 7.57428 14.9313 7.52059C15.2144 7.35821 15.3113 6.99852 15.148 6.71711L13.8088 4.41147C13.6455 4.13006 13.2837 4.03368 13.0006 4.19605C12.7175 4.35843 12.6206 4.71811 12.7839 4.99953L14.1231 7.30581Z" fill="#505050" stroke="#505050" stroke-width="0.75"/>
<path d="M4.43187 13.7329L6.75104 15.0649C6.8441 15.1186 6.94562 15.1438 7.04648 15.1438C7.25081 15.1438 7.44992 15.0384 7.55925 14.8501C7.72258 14.5687 7.62562 14.209 7.3432 14.0466L5.02403 12.7146C4.74096 12.5523 4.37916 12.6486 4.21583 12.9294C4.05249 13.2108 4.14945 13.5705 4.43187 13.7329Z" fill="#505050" stroke="#505050" stroke-width="0.75"/>
<path d="M4.8614 24.8605C4.8614 24.5358 4.59656 24.2725 4.26989 24.2725H1.59151C1.26484 24.2725 1 24.5358 1 24.8605C1 25.1853 1.26484 25.4486 1.59151 25.4486H4.26989C4.59656 25.4486 4.8614 25.1853 4.8614 24.8605Z" fill="#505050" stroke="#505050" stroke-width="0.75"/>
<path d="M6.75232 34.6553L4.4325 35.9854C4.14943 36.1478 4.05247 36.5075 4.2158 36.7882C4.32512 36.9771 4.52425 37.0826 4.72858 37.0826C4.82879 37.0826 4.93029 37.0573 5.02335 37.0036L7.34318 35.6736C7.62625 35.5112 7.72321 35.1515 7.55988 34.8707C7.39654 34.5893 7.03473 34.4923 6.75232 34.6553Z" fill="#505050" stroke="#505050" stroke-width="0.75"/>
<path d="M45.5681 35.9871L43.2489 34.657C42.9659 34.4946 42.6041 34.591 42.4414 34.8724C42.2781 35.1538 42.375 35.5135 42.6581 35.6752L44.9773 37.0053C45.0703 37.059 45.1718 37.0843 45.272 37.0843C45.4764 37.0843 45.6755 36.9788 45.7848 36.7899C45.9481 36.5085 45.8512 36.1488 45.5681 35.9871Z" fill="#505050" stroke="#505050" stroke-width="0.75"/>
<path d="M48.4085 24.2734H45.7314C45.4047 24.2734 45.1399 24.5367 45.1399 24.8615C45.1399 25.1863 45.4047 25.4495 45.7314 25.4495H48.4085C48.7351 25.4495 49 25.1863 49 24.8615C49 24.5367 48.7351 24.2734 48.4085 24.2734Z" fill="#505050" stroke="#505050" stroke-width="0.75"/>
<path d="M42.9541 15.1438C43.0543 15.1438 43.1565 15.1186 43.2496 15.0649L45.5687 13.7335C45.8518 13.5711 45.9488 13.2114 45.7848 12.93C45.6214 12.6486 45.2596 12.5522 44.9766 12.7146L42.6574 14.046C42.3743 14.2084 42.2774 14.568 42.4414 14.8495C42.5513 15.039 42.7498 15.1438 42.9541 15.1438Z" fill="#505050" stroke="#505050" stroke-width="0.75"/>
<path d="M35.0706 7.52092C35.1637 7.57462 35.2652 7.59984 35.366 7.59984C35.5703 7.59984 35.7695 7.4944 35.8788 7.30614L37.218 5.0005C37.3813 4.71909 37.2844 4.35941 37.0019 4.19703C36.7189 4.03465 36.3571 4.13104 36.1937 4.41245L34.8546 6.71809C34.6906 6.99886 34.7875 7.35855 35.0706 7.52092Z" fill="#505050" stroke="#505050" stroke-width="0.75"/>
<path d="M22 27.0004V28.0004C22 29.1004 22.9 30.0004 24 30.0004H26C27.1 30.0004 28 29.1004 28 28.0004V27.4004C28 26.5004 27.4 25.8004 26.6 25.5004L23.4 24.4004C22.6 24.1004 22 23.4004 22 22.5004V21.9004C22 20.8004 22.9 19.9004 24 19.9004H26C27.1 19.9004 28 20.8004 28 21.9004V22.9004" stroke="#505050" stroke-width="2" stroke-miterlimit="10"/>
<path d="M25 20V17" stroke="#505050" stroke-width="2" stroke-miterlimit="10"/>
<path d="M25 30V33" stroke="#505050" stroke-width="2" stroke-miterlimit="10"/>
<mask id="path-14-inside-1" fill="white">
<rect width="10" height="5" rx="1" transform="matrix(1 0 0 -1 20 58)"/>
</mask>
<rect width="10" height="5" rx="1" transform="matrix(1 0 0 -1 20 58)" stroke="#20C86D" stroke-width="4" mask="url(#path-14-inside-1)"/>
<mask id="path-15-inside-2" fill="white">
<rect x="17" y="43" width="16" height="12" rx="1"/>
</mask>
<rect x="17" y="43" width="16" height="12" rx="1" fill="#80E4B4" stroke="#20C86D" stroke-width="4" mask="url(#path-15-inside-2)"/>
</svg>
