<svg width="55" height="47" viewBox="0 0 55 47" fill="none" xmlns="http://www.w3.org/2000/svg">
<rect x="1" y="3" width="43" height="36" stroke="#20C86D" stroke-width="2"/>
<path d="M43.5 46C49.299 46 54 41.299 54 35.5C54 29.701 49.299 25 43.5 25C37.701 25 33 29.701 33 35.5C33 41.299 37.701 46 43.5 46Z" fill="#80E4B4" stroke="#20C86D" stroke-width="2" stroke-miterlimit="10"/>
<path d="M40 35.3529L42.4729 38L48 33" stroke="#31333D" stroke-width="2" stroke-miterlimit="10"/>
<line y1="12" x2="45" y2="12" stroke="#20C86D" stroke-width="2"/>
<line x1="10" y1="4.37114e-08" x2="10" y2="7" stroke="#20C86D" stroke-width="2"/>
<line x1="35" y1="4.37114e-08" x2="35" y2="7" stroke="#20C86D" stroke-width="2"/>
<path d="M15.957 20.5156C15.957 19.6367 16.2435 18.9271 16.8164 18.3867C17.3893 17.8464 18.1576 17.5762 19.1211 17.5762C20.0977 17.5762 20.8691 17.8464 21.4355 18.3867C22.002 18.9206 22.2852 19.6465 22.2852 20.5645V21.2676C22.2852 22.1465 22.002 22.8529 21.4355 23.3867C20.8691 23.9206 20.1042 24.1875 19.1406 24.1875C18.1836 24.1875 17.4121 23.9238 16.8262 23.3965C16.2467 22.8626 15.957 22.1335 15.957 21.209V20.5156ZM18.0762 21.2676C18.0762 21.6061 18.1706 21.8828 18.3594 22.0977C18.5482 22.306 18.8086 22.4102 19.1406 22.4102C19.8242 22.4102 20.166 21.974 20.166 21.1016V20.5156C20.166 20.1771 20.0749 19.9004 19.8926 19.6855C19.7103 19.4642 19.4531 19.3535 19.1211 19.3535C18.8021 19.3535 18.5482 19.4609 18.3594 19.6758C18.1706 19.8841 18.0762 20.1706 18.0762 20.5352V21.2676ZM22.7148 28.5137C22.7148 27.6283 23.0013 26.9186 23.5742 26.3848C24.1536 25.8509 24.9219 25.584 25.8789 25.584C26.849 25.584 27.6204 25.8477 28.1934 26.375C28.7663 26.9023 29.0527 27.638 29.0527 28.582V29.2656C29.0527 30.151 28.7695 30.8607 28.2031 31.3945C27.6367 31.9284 26.8685 32.1953 25.8984 32.1953C24.9414 32.1953 24.1699 31.9316 23.584 31.4043C23.0046 30.8704 22.7148 30.1413 22.7148 29.2168V28.5137ZM24.8242 29.2656C24.8242 29.5716 24.9284 29.8418 25.1367 30.0762C25.3451 30.304 25.599 30.418 25.8984 30.418C26.5299 30.418 26.8717 30.1185 26.9238 29.5195L26.9336 28.5137C26.9336 28.1686 26.8392 27.8919 26.6504 27.6836C26.4616 27.4688 26.2044 27.3613 25.8789 27.3613C25.5664 27.3613 25.3158 27.4622 25.127 27.6641C24.9382 27.8594 24.8372 28.1263 24.8242 28.4648V29.2656ZM19.7656 30.9355L18.2324 30.1641L25.1758 19.0508L26.709 19.8223L19.7656 30.9355Z" fill="#505050"/>
</svg>
