<svg width="42" height="48" viewBox="0 0 42 48" fill="none" xmlns="http://www.w3.org/2000/svg">
<path opacity="0.5" d="M32 6.10352e-06V13H-6.10352e-06V6.10352e-06" transform="translate(5 34)" fill="#00CA69"/>
<path d="M32 6.10352e-06V13H-6.10352e-06V6.10352e-06" transform="translate(5 34)" stroke="#00CA69" stroke-width="2" stroke-miterlimit="10" stroke-linejoin="round"/>
<path d="M-6.10352e-06 6.10352e-06V21" transform="translate(5 10)" stroke="#505050" stroke-width="2" stroke-miterlimit="10"/>
<path d="M-6.10352e-06 6.10352e-06V21" transform="translate(37 10)" stroke="#505050" stroke-width="2" stroke-miterlimit="10"/>
<path d="M13 20V15L17 11C17.7 10.3 19 9.10001 19 8.00001V4.00001C19 1.90001 17.2 6.10352e-06 15 6.10352e-06V6.00001L12 9.00001C11.4 9.60001 10.9 10 9.99999 10H4.99999C2.49999 10 -6.10352e-06 11.8 -6.10352e-06 15V20" transform="translate(12 14)" stroke="#505050" stroke-width="2" stroke-miterlimit="10"/>
<path d="M2.99999 6.9C4.69999 6.9 5.99999 5.60001 5.99999 4.00001V2.9C5.99999 1.3 4.69999 6.10352e-06 2.99999 6.10352e-06C1.29999 6.10352e-06 -6.10352e-06 1.3 -6.10352e-06 2.9V4.00001C-6.10352e-06 5.60001 1.39999 6.9 2.99999 6.9Z" transform="translate(17 14)" stroke="#505050" stroke-width="2" stroke-miterlimit="10"/>
<path d="M-6.10352e-06 6.10352e-06V5.00001" transform="translate(16 29)" stroke="#505050" stroke-width="2" stroke-miterlimit="10"/>
<path d="M-6.10352e-06 6.10352e-06H40" transform="translate(1 34)" stroke="#505050" stroke-width="2" stroke-miterlimit="10"/>
<path d="M-6.10352e-06 6.10352e-06V5.00001C-6.10352e-06 7.20001 1.79999 9.00001 3.99999 9.00001C6.19999 9.00001 7.99999 7.20001 7.99999 5.00001C7.99999 7.20001 9.79999 9.00001 12 9.00001C14.2 9.00001 16 7.20001 16 5.00001C16 7.20001 17.8 9.00001 20 9.00001C22.2 9.00001 24 7.20001 24 5.00001C24 7.20001 25.8 9.00001 28 9.00001C30.2 9.00001 32 7.20001 32 5.00001C32 7.20001 33.8 9.00001 36 9.00001C38.2 9.00001 40 7.20001 40 5.00001V6.10352e-06H-6.10352e-06Z" transform="translate(1 1)" stroke="#00CA69" stroke-width="2" stroke-miterlimit="10" stroke-linejoin="round"/>
<path d="M22 6.10352e-06H-6.10352e-06V5.00001H22V6.10352e-06Z" transform="translate(10 38)" fill="white"/>
</svg>
