<svg width="200" height="49" viewBox="0 0 200 49" fill="none" xmlns="http://www.w3.org/2000/svg">
<path d="M64.254 37.0365C64.1831 38.129 63.7751 38.9707 63.0655 39.5976C62.3559 40.2244 61.4156 40.5289 60.2448 40.5289C58.9675 40.5289 57.9564 40.099 57.229 39.2215C56.5017 38.3439 56.1292 37.1619 56.1292 35.6396V35.0307C56.1292 34.0636 56.3065 33.2039 56.6436 32.4696C56.9807 31.7354 57.4596 31.1623 58.0983 30.7683C58.7192 30.3742 59.4643 30.1772 60.2803 30.1772C61.4334 30.1772 62.3559 30.4817 63.0655 31.1085C63.7751 31.7354 64.1831 32.6129 64.2895 33.7233H62.2317C62.1785 33.0786 62.0011 32.595 61.6995 32.3085C61.3979 32.0219 60.9189 31.8607 60.298 31.8607C59.6062 31.8607 59.0917 32.1115 58.7547 32.6129C58.4176 33.1144 58.2402 33.8845 58.2225 34.9232V35.6933C58.2225 36.7858 58.3821 37.5738 58.7192 38.0753C59.0562 38.5767 59.553 38.8275 60.2625 38.8275C60.9012 38.8275 61.3802 38.6842 61.6817 38.3797C62.0011 38.0932 62.1785 37.6275 62.2139 37.0186H64.254V37.0365Z" fill="white"/>
<path d="M72.645 38.3082H69.0438L68.3519 40.3857H66.1699L69.8776 30.3027H71.7757L75.5189 40.3857H73.3368L72.645 38.3082ZM69.5937 36.6247H72.0951L70.8355 32.8459L69.5937 36.6247Z" fill="white"/>
<path d="M79.9184 36.8396V40.3857H77.8606V30.3027H81.7634C82.5085 30.3027 83.1648 30.446 83.7325 30.7147C84.3002 30.9833 84.7437 31.3773 85.0453 31.8967C85.3468 32.3981 85.5065 32.9891 85.5065 33.6339C85.5065 34.6189 85.1694 35.4069 84.4953 35.9621C83.8212 36.5352 82.8987 36.8217 81.7102 36.8217H79.9184V36.8396ZM79.9184 35.1562H81.7634C82.3133 35.1562 82.7213 35.0308 83.0052 34.7622C83.289 34.5114 83.4309 34.1353 83.4309 33.6518C83.4309 33.1503 83.289 32.7563 83.0052 32.4519C82.7213 32.1474 82.3133 31.9862 81.8166 31.9862H79.9362V35.1562H79.9184Z" fill="white"/>
<path d="M90.5092 40.3857H88.4514V30.3027H90.5092V40.3857Z" fill="white"/>
<path d="M101.331 31.9862H98.2794V40.3857H96.2216V31.9862H93.2058V30.3027H101.331V31.9862Z" fill="white"/>
<path d="M108.728 38.3082H105.127L104.435 40.3857H102.253L105.961 30.3027H107.859L111.602 40.3857H109.42L108.728 38.3082ZM105.677 36.6247H108.178L106.919 32.8459L105.677 36.6247Z" fill="white"/>
<path d="M116.001 38.7201H120.365V40.3857H113.944V30.3027H116.001V38.7201Z" fill="white"/>
<path fill-rule="evenodd" clip-rule="evenodd" d="M24.4911 0C38.0355 0 49 10.9784 49 24.5179C49 37.5559 38.8238 48.212 25.9781 49V34.6188C28.1996 34.4934 30.6004 33.9382 32.5174 33.1323C38.358 30.6429 41.3857 25.6283 42.2099 19.4854L42.4249 17.9452L40.8841 17.8019C38.2863 17.5512 35.0973 18.0885 32.6965 19.0556C28.7013 20.6674 26.0856 23.515 24.5448 27.0789C23.004 23.515 20.3883 20.6674 16.3931 19.0556C13.9923 18.0885 10.7854 17.5512 8.2055 17.8019L6.66474 17.9452L6.87973 19.4854C7.72177 25.6283 10.7316 30.6429 16.5722 33.1323C18.4892 33.9561 20.89 34.5113 23.1115 34.6188V49C10.23 48.2836 2.19245e-05 37.5917 2.19245e-05 24.5179C-0.017894 10.9784 10.9466 0 24.4911 0ZM10.0867 20.7211C10.9646 24.7149 13.0607 28.0102 16.823 29.9444C18.6326 30.8757 20.7825 31.4488 22.8249 31.61C22.0007 27.5625 19.9762 24.1418 16.1064 22.2255C14.3148 21.33 12.147 20.8107 10.0867 20.7211ZM38.985 20.7211C36.9247 20.8107 34.7569 21.3121 32.9474 22.2255C29.0954 24.1418 27.0709 27.5625 26.2289 31.61C28.2892 31.4488 30.4391 30.8757 32.2307 29.9444C36.011 28.0102 38.1071 24.7149 38.985 20.7211Z" fill="white"/>
<path d="M72.4854 25.2699V16.4585C72.4854 11.1931 69.3455 8.22017 65.4427 8.22017C63.3494 8.22017 61.6641 9.06191 59.9788 10.7454L59.7127 8.4709H56.0405V25.2699H60.1207V16.6913C60.1207 14.1482 61.8415 11.999 64.3605 11.999C66.9861 11.999 68.3698 13.9333 68.3698 16.4943V25.2699H72.4854ZM92.4961 18.3569C93.1347 11.4439 89.6577 7.98735 84.1051 7.98735C78.7122 7.98735 75.2706 11.6588 75.2706 16.7629C75.2706 22.1357 78.6767 25.7176 84.4067 25.7176C86.9257 25.7176 89.7996 24.8401 91.5559 22.9954L88.9303 20.3806C87.9901 21.3656 86.0033 21.9387 84.4776 21.9387C81.586 21.9387 79.7943 20.4344 79.5282 18.3748H92.4961V18.3569ZM79.5991 14.9183C80.2023 12.7333 82.0295 11.6588 84.247 11.6588C86.6064 11.6588 88.2917 12.7512 88.5578 14.9183H79.5991ZM101.685 14.184L98.4212 8.50672H93.5072V8.65L98.9711 16.7808L93.1702 25.1803V25.2878H98.0841L101.685 19.6822L105.287 25.2878H110.201V25.1803L104.4 16.7808L109.863 8.65V8.50672H104.949L101.685 14.184ZM114.937 4.20848V8.52463H111.833V12.0886H114.937V19.3419C114.937 23.5327 117.296 25.5922 120.898 25.4669C122.139 25.4311 123.115 25.2341 124.304 24.7505L123.151 21.2045C122.547 21.5089 121.802 21.7238 121.164 21.7238C119.887 21.7238 119 20.9358 119 19.3419V12.1065H123.612V8.52463H119.035V3.76074L114.937 4.20848Z" fill="white"/>
<path d="M140.074 10.2261C138.158 8.5247 136.207 8.02324 133.599 8.02324C130.566 8.02324 126.592 9.38435 126.592 13.2528C126.592 17.0675 130.335 18.2137 133.457 18.4644C135.817 18.6077 136.757 19.0733 136.757 20.2374C136.757 21.4553 135.302 22.2791 133.759 22.2433C131.914 22.2075 129.218 21.2224 128.029 19.8971L126.007 22.8522C128.437 25.3953 131.062 25.8431 133.688 25.8431C138.442 25.8431 140.837 23.2999 140.837 20.327C140.837 15.8675 136.863 15.1512 133.723 14.9542C131.595 14.8109 130.619 14.202 130.619 13.1095C130.619 12.0528 131.701 11.4439 133.652 11.4439C135.231 11.4439 136.58 11.82 137.768 12.9483L140.074 10.2261ZM159.961 18.3569C160.599 11.4439 157.122 7.98742 151.57 7.98742C146.177 7.98742 142.735 11.6588 142.735 16.763C142.735 22.1358 146.141 25.7177 151.871 25.7177C154.39 25.7177 157.264 24.8401 159.021 22.9955L156.395 20.3807C155.455 21.3657 153.468 21.9388 151.942 21.9388C149.051 21.9388 147.259 20.4344 146.993 18.3748H159.961V18.3569ZM147.046 14.9183C147.649 12.7334 149.477 11.6588 151.694 11.6588C154.053 11.6588 155.739 12.7513 156.005 14.9183H147.046ZM179.599 18.3569C180.238 11.4439 176.761 7.98742 171.208 7.98742C165.815 7.98742 162.373 11.6588 162.373 16.763C162.373 22.1358 165.779 25.7177 171.509 25.7177C174.029 25.7177 176.902 24.8401 178.659 22.9955L176.033 20.3807C175.093 21.3657 173.106 21.9388 171.58 21.9388C168.689 21.9388 166.897 20.4344 166.631 18.3748H179.599V18.3569ZM166.684 14.9183C167.287 12.7334 169.115 11.6588 171.332 11.6588C173.692 11.6588 175.377 12.7513 175.643 14.9183H166.684ZM190.811 11.9633C193.401 11.9633 195.636 13.9333 195.636 16.8526C195.636 19.8792 193.418 21.7776 190.811 21.7776C188.185 21.7776 186.092 19.7718 186.092 16.8526C186.092 13.8438 188.185 11.9633 190.811 11.9633ZM195.902 1.48633V10.7634C194.926 9.02617 192.194 8.07697 190.438 8.07697C185.595 8.07697 181.976 11.0678 181.976 16.8526C181.976 22.3686 185.648 25.6281 190.527 25.6281C192.549 25.6281 194.607 24.9476 195.884 22.9417L196.15 25.252H200V1.48633H195.902Z" fill="white"/>
</svg>
